<?xml version="1.0" encoding="utf-8"?>
<!-- Generator: Adobe Illustrator 27.5.0, SVG Export Plug-In . SVG Version: 6.00 Build 0)  -->
<svg version="1.1" xmlns="http://www.w3.org/2000/svg" xmlns:xlink="http://www.w3.org/1999/xlink" x="0px" y="0px"
	 viewBox="0 0 500 500" style="enable-background:new 0 0 500 500;" xml:space="preserve">
<g id="Background_Complete">
	<g>
		<rect x="416.779" y="398.494" style="fill:#EBEBEB;" width="33.122" height="0.25"/>
		<rect x="322.527" y="401.208" style="fill:#EBEBEB;" width="8.693" height="0.25"/>
		<rect x="396.586" y="389.208" style="fill:#EBEBEB;" width="19.192" height="0.25"/>
		<rect x="52.459" y="390.888" style="fill:#EBEBEB;" width="43.193" height="0.25"/>
		<rect x="104.556" y="390.888" style="fill:#EBEBEB;" width="6.333" height="0.25"/>
		<rect x="131.471" y="395.111" style="fill:#EBEBEB;" width="93.676" height="0.25"/>
		<path style="fill:#EBEBEB;" d="M237.014,337.8H43.915c-3.147,0-5.708-2.561-5.708-5.708V60.66c0-3.147,2.561-5.708,5.708-5.708
			h193.099c3.146,0,5.707,2.561,5.707,5.708v271.432C242.721,335.239,240.16,337.8,237.014,337.8z M43.915,55.203
			c-3.01,0-5.458,2.448-5.458,5.458v271.432c0,3.01,2.448,5.458,5.458,5.458h193.099c3.009,0,5.457-2.448,5.457-5.458V60.66
			c0-3.009-2.448-5.458-5.457-5.458H43.915z"/>
		<path style="fill:#EBEBEB;" d="M453.31,337.8H260.212c-3.147,0-5.707-2.561-5.707-5.708V60.66c0-3.147,2.561-5.708,5.707-5.708
			H453.31c3.148,0,5.708,2.561,5.708,5.708v271.432C459.019,335.239,456.458,337.8,453.31,337.8z M260.212,55.203
			c-3.009,0-5.457,2.448-5.457,5.458v271.432c0,3.01,2.448,5.458,5.457,5.458H453.31c3.01,0,5.458-2.448,5.458-5.458V60.66
			c0-3.009-2.448-5.458-5.458-5.458H260.212z"/>
		<rect y="382.398" style="fill:#EBEBEB;" width="500" height="0.25"/>
	</g>
	<g>
		<g>
			<rect x="79.45" y="96.503" style="fill:#F0F0F0;" width="124.785" height="258.176"/>
			<rect x="86.95" y="104.003" style="fill:#FAFAFA;" width="109.786" height="243.177"/>
			<g>
				<polygon style="fill:#F5F5F5;" points="130.043,347.18 163.043,347.18 194.024,104.003 161.024,104.003 				"/>
				<polygon style="fill:#F5F5F5;" points="145.691,104.003 114.709,347.18 122.709,347.18 153.691,104.003 				"/>
			</g>
			<g>
				<polygon style="fill:#F5F5F5;" points="205.818,102.756 77.868,102.756 75.168,96.456 208.518,96.456 				"/>
				<polygon style="fill:#F0F0F0;" points="205.818,106.405 77.868,106.405 75.168,100.105 208.518,100.105 				"/>
				<polygon style="fill:#E6E6E6;" points="205.818,110.054 77.868,110.054 75.168,103.754 208.518,103.754 				"/>
				<polygon style="fill:#E0E0E0;" points="205.818,113.704 77.868,113.704 75.168,107.404 208.518,107.404 				"/>
				<rect x="70.518" y="88.565" style="fill:#F0F0F0;" width="142.65" height="8.401"/>
				<path style="fill:#E0E0E0;" d="M71.982,173.125L71.982,173.125c-0.802,0-1.451-0.65-1.451-1.451V122.68
					c0-0.801,0.65-1.451,1.451-1.451l0,0c0.801,0,1.451,0.65,1.451,1.451v48.994C73.434,172.476,72.784,173.125,71.982,173.125z"/>
				<rect x="71.457" y="95.281" style="fill:#E0E0E0;" width="1.05" height="29.098"/>
			</g>
		</g>
		<g>
			<rect x="295.764" y="96.503" style="fill:#F0F0F0;" width="124.785" height="258.176"/>
			<rect x="303.264" y="104.003" style="fill:#FAFAFA;" width="109.786" height="243.177"/>
			<g>
				<polygon style="fill:#F5F5F5;" points="346.357,347.18 379.357,347.18 410.338,104.003 377.338,104.003 				"/>
				<polygon style="fill:#F5F5F5;" points="362.005,104.003 331.024,347.18 339.024,347.18 370.005,104.003 				"/>
			</g>
			<g>
				<polygon style="fill:#F5F5F5;" points="422.132,102.756 294.182,102.756 291.482,96.456 424.832,96.456 				"/>
				<polygon style="fill:#F0F0F0;" points="422.132,106.405 294.182,106.405 291.482,100.105 424.832,100.105 				"/>
				<polygon style="fill:#E6E6E6;" points="422.132,110.054 294.182,110.054 291.482,103.754 424.832,103.754 				"/>
				<polygon style="fill:#E0E0E0;" points="422.132,113.704 294.182,113.704 291.482,107.404 424.832,107.404 				"/>
				<rect x="286.832" y="88.565" style="fill:#F0F0F0;" width="142.65" height="8.401"/>
				<path style="fill:#E0E0E0;" d="M288.297,173.125L288.297,173.125c-0.802,0-1.451-0.65-1.451-1.451V122.68
					c0-0.801,0.65-1.451,1.451-1.451l0,0c0.802,0,1.451,0.65,1.451,1.451v48.994C289.748,172.476,289.098,173.125,288.297,173.125z"
					/>
				<rect x="287.772" y="95.281" style="fill:#E0E0E0;" width="1.05" height="29.098"/>
			</g>
		</g>
	</g>
	<g>
		<polygon style="fill:#E0E0E0;" points="401.517,284.582 407.077,357.448 410.46,357.148 402.186,284.282 		"/>
		<polygon style="fill:#E0E0E0;" points="431.498,294.757 421.578,354.927 418.788,354.431 430.964,294.459 		"/>
		<polygon style="fill:#E0E0E0;" points="418.14,270.993 416.386,359.171 412.991,358.954 417.456,270.659 		"/>
		<path style="fill:#F0F0F0;" d="M401.719,283.964c-3.825-0.712-15.333,0-15.333,2.667c0,2.667,11.5-0.333,10.5,2.333
			c-1,2.667-11.667,1.833-11.333,4.333s10.167-1.333,10,0.333c-0.167,1.667-8.5,4.167-6.833,6c1.667,1.833,7.667-4.303,7.667-1.901
			c0,2.401-4.366,6.764-1.667,7.401c4.238,1,3-7.469,4.5-7.401c1.5,0.068,1.56,7.104,4.107,6.735
			c2.547-0.37-2.107-7.884-1.274-9.192c0.833-1.308,6.667,4.692,8.5,3.359c1.833-1.333-6.833-6.667-5.667-8.333
			c1.167-1.667,6.267,3.5,7.383,0.833C413.385,288.464,404.853,284.547,401.719,283.964z"/>
		<path style="fill:#EBEBEB;" d="M418.252,275.762c3.452-1.794,12.082-9.442,10.44-11.543c-1.642-2.101-8.856,7.344-9.71,4.627
			c-0.854-2.717,8.064-8.628,6.262-10.393c-1.802-1.765-7.19,7.311-8.085,5.895c-0.895-1.416,4.132-8.517,1.69-8.935
			c-2.442-0.418-3.391,8.111-4.87,6.219c-1.479-1.892-0.725-8.019-3.244-6.858c-3.955,1.822,2.236,7.733,1.012,8.603
			c-1.224,0.87-5.604-4.637-7.383-2.777c-1.779,1.86,6.515,4.914,6.664,6.458c0.149,1.544-8.142,0.408-8.766,2.588
			c-0.624,2.179,9.489,1.045,9.596,3.077c0.107,2.032-7.093,1.101-6.331,3.89C406.289,279.4,415.423,277.232,418.252,275.762z"/>
		<path style="fill:#E6E6E6;" d="M418.923,273.21c3.825-0.712,15.333,0,15.333,2.667c0,2.667-11.5-0.333-10.5,2.333
			c1,2.667,11.667,1.833,11.333,4.333c-0.333,2.5-10.167-1.333-10,0.333c0.167,1.667,8.5,4.167,6.833,6
			c-1.667,1.833-7.667-4.303-7.667-1.901c0,2.401,4.366,6.764,1.667,7.401c-4.238,1-3-7.469-4.5-7.401
			c-1.5,0.068-1.56,7.104-4.107,6.735c-2.547-0.37,2.107-7.884,1.274-9.192c-0.833-1.308-6.667,4.692-8.5,3.359
			c-1.833-1.333,6.833-6.667,5.667-8.333c-1.167-1.667-6.267,3.5-7.383,0.833C407.257,277.71,415.789,273.793,418.923,273.21z"/>
		<path style="fill:#F5F5F5;" d="M427.965,294.904c2.207-2.355,10.251-7.533,11.561-5.75c1.31,1.783-7.852,5.427-5.873,6.719
			c1.979,1.291,8.7-4.506,9.706-2.671c1.005,1.835-7.452,4.104-6.522,5.136c0.93,1.032,7.73-1.391,7.516,0.654
			c-0.214,2.045-7.239,0.89-6.06,2.495c1.18,1.605,6.242,2.377,4.75,4.129c-2.342,2.751-5.675-3.52-6.645-2.737
			c-0.969,0.782,2.447,5.516,0.563,6.52c-1.884,1.004-2.465-6.306-3.664-6.771c-1.2-0.465-2.152,6.412-4.032,6.421
			c-1.881,0.009,1.293-7.814-0.306-8.355c-1.599-0.541-2.47,5.419-4.526,4.185S426.156,296.834,427.965,294.904z"/>
		<path style="fill:#E6E6E6;" d="M403.809,307.005c-3.173-0.429-12.721,0-12.721,1.606c0,1.606,9.541-0.201,8.711,1.405
			c-0.83,1.606-9.679,1.104-9.403,2.61c0.277,1.506,8.435-0.803,8.297,0.201c-0.138,1.004-7.052,2.509-5.669,3.614
			c1.383,1.104,6.361-2.591,6.361-1.145c0,1.446-3.623,4.074-1.383,4.458c3.516,0.602,2.489-4.499,3.733-4.458
			c1.245,0.041,1.295,4.279,3.408,4.056c2.113-0.223-1.749-4.748-1.057-5.536c0.691-0.788,5.531,2.826,7.052,2.023
			c1.521-0.803-5.669-4.015-4.701-5.019c0.968-1.004,5.199,2.108,6.126,0.502C413.488,309.715,406.409,307.356,403.809,307.005z"/>
		<path style="fill:#EBEBEB;" d="M426.606,314.545c3.174-0.429,12.721,0,12.721,1.606c0,1.606-9.541-0.201-8.711,1.405
			c0.83,1.606,9.679,1.104,9.403,2.61c-0.276,1.506-8.435-0.803-8.296,0.201c0.138,1.004,7.052,2.51,5.669,3.614
			c-1.383,1.104-6.361-2.591-6.361-1.145c0,1.446,3.623,4.074,1.383,4.458c-3.516,0.602-2.489-4.499-3.733-4.458
			c-1.245,0.041-1.295,4.279-3.408,4.056c-2.113-0.223,1.749-4.748,1.057-5.536c-0.691-0.788-5.531,2.826-7.052,2.023
			c-1.521-0.803,5.669-4.015,4.701-5.019c-0.968-1.004-5.199,2.108-6.125,0.502C416.927,317.255,424.005,314.896,426.606,314.545z"
			/>
		<polygon style="fill:#EBEBEB;" points="393.609,334.331 399.609,383.999 429.128,383.999 435.128,334.331 		"/>
	</g>
</g>
<g id="Background_Simple" style="display:none;">
	<g>
		<path style="display:inline;fill:#407BFF;" d="M219.365,292.058c-16.753-7.14-53.258,12.19-70.929,16.591
			c-44.588,11.104-96.446-7.629-92.039-69.989c6.025-85.254,131.879-178.944,263.452-134.088
			c66.461,22.658,120.878,85.988,120.749,161.958C440.362,404.583,309.47,409.259,268.34,374.639
			C229.822,342.216,241.446,301.469,219.365,292.058z"/>
		<path style="display:inline;opacity:0.9;fill:#FFFFFF;" d="M219.365,292.058c-16.753-7.14-53.258,12.19-70.929,16.591
			c-44.588,11.104-96.446-7.629-92.039-69.989c6.025-85.254,131.879-178.944,263.452-134.088
			c66.461,22.658,120.878,85.988,120.749,161.958C440.362,404.583,309.47,409.259,268.34,374.639
			C229.822,342.216,241.446,301.469,219.365,292.058z"/>
	</g>
</g>
<g id="Shadow">
	<ellipse id="_x3C_Path_x3E__1_" style="fill:#F5F5F5;" cx="245.178" cy="412.391" rx="193.889" ry="11.323"/>
</g>
<g id="Graphics">
	<g>
		<g>
			<path style="fill:#407BFF;" d="M413.698,173.061c0,0.402,0.153,0.731,0.457,0.987c0.305,0.256,0.747,0.473,1.324,0.649v-3.417
				c-0.61,0.144-1.059,0.373-1.347,0.686C413.841,172.279,413.698,172.644,413.698,173.061z"/>
			<path style="fill:#407BFF;" d="M417.885,178.837v3.321c0.578-0.129,1.011-0.338,1.3-0.626c0.288-0.29,0.433-0.633,0.433-1.035
				c0-0.401-0.149-0.73-0.445-0.987C418.875,179.253,418.447,179.029,417.885,178.837z"/>
			<path style="fill:#407BFF;" d="M416.489,158.769c-9.913,0-17.95,8.036-17.95,17.95c0,9.913,8.036,17.95,17.95,17.95
				c9.913,0,17.95-8.036,17.95-17.95C434.439,166.805,426.403,158.769,416.489,158.769z M422.048,183.589
				c-0.962,0.939-2.35,1.52-4.163,1.744v2.695h-2.407v-2.623c-1.187-0.064-2.318-0.272-3.393-0.626
				c-1.076-0.353-1.942-0.786-2.599-1.299l1.324-2.937c0.609,0.45,1.324,0.827,2.142,1.131c0.818,0.305,1.66,0.498,2.527,0.578
				v-4.02c-1.139-0.272-2.101-0.577-2.888-0.914c-0.786-0.337-1.444-0.83-1.973-1.48c-0.53-0.649-0.795-1.512-0.795-2.587
				c0-1.331,0.485-2.474,1.456-3.429c0.971-0.954,2.37-1.536,4.199-1.745v-2.672h2.407v2.624c1.973,0.16,3.602,0.65,4.885,1.468
				l-1.203,2.96c-1.204-0.69-2.43-1.108-3.682-1.252v4.091c1.123,0.256,2.073,0.55,2.852,0.878c0.778,0.329,1.431,0.818,1.961,1.469
				c0.529,0.65,0.794,1.504,0.794,2.563C423.492,181.523,423.012,182.65,422.048,183.589z"/>
		</g>
		<g style="opacity:0.6;">
			<path style="fill:#FFFFFF;" d="M413.698,173.061c0,0.402,0.153,0.731,0.457,0.987c0.305,0.256,0.747,0.473,1.324,0.649v-3.417
				c-0.61,0.144-1.059,0.373-1.347,0.686C413.841,172.279,413.698,172.644,413.698,173.061z"/>
			<path style="fill:#FFFFFF;" d="M417.885,178.837v3.321c0.578-0.129,1.011-0.338,1.3-0.626c0.288-0.29,0.433-0.633,0.433-1.035
				c0-0.401-0.149-0.73-0.445-0.987C418.875,179.253,418.447,179.029,417.885,178.837z"/>
			<path style="fill:#FFFFFF;" d="M416.489,158.769c-9.913,0-17.95,8.036-17.95,17.95c0,9.913,8.036,17.95,17.95,17.95
				c9.913,0,17.95-8.036,17.95-17.95C434.439,166.805,426.403,158.769,416.489,158.769z M422.048,183.589
				c-0.962,0.939-2.35,1.52-4.163,1.744v2.695h-2.407v-2.623c-1.187-0.064-2.318-0.272-3.393-0.626
				c-1.076-0.353-1.942-0.786-2.599-1.299l1.324-2.937c0.609,0.45,1.324,0.827,2.142,1.131c0.818,0.305,1.66,0.498,2.527,0.578
				v-4.02c-1.139-0.272-2.101-0.577-2.888-0.914c-0.786-0.337-1.444-0.83-1.973-1.48c-0.53-0.649-0.795-1.512-0.795-2.587
				c0-1.331,0.485-2.474,1.456-3.429c0.971-0.954,2.37-1.536,4.199-1.745v-2.672h2.407v2.624c1.973,0.16,3.602,0.65,4.885,1.468
				l-1.203,2.96c-1.204-0.69-2.43-1.108-3.682-1.252v4.091c1.123,0.256,2.073,0.55,2.852,0.878c0.778,0.329,1.431,0.818,1.961,1.469
				c0.529,0.65,0.794,1.504,0.794,2.563C423.492,181.523,423.012,182.65,422.048,183.589z"/>
		</g>
	</g>
	<g>
		<g>
			<path style="fill:#407BFF;" d="M62.274,235.236c0,0.208,0.079,0.378,0.237,0.511c0.158,0.133,0.387,0.245,0.685,0.336v-1.769
				c-0.316,0.075-0.548,0.193-0.697,0.355C62.348,234.831,62.274,235.02,62.274,235.236z"/>
			<path style="fill:#407BFF;" d="M64.441,238.225v1.719c0.299-0.067,0.523-0.175,0.673-0.324c0.149-0.15,0.224-0.328,0.224-0.536
				c0-0.207-0.077-0.378-0.23-0.511C64.954,238.441,64.732,238.325,64.441,238.225z"/>
			<path style="fill:#407BFF;" d="M63.719,227.838c-5.131,0-9.29,4.159-9.29,9.29c0,5.131,4.159,9.29,9.29,9.29
				s9.29-4.159,9.29-9.29C73.009,231.998,68.85,227.838,63.719,227.838z M66.596,240.685c-0.498,0.486-1.216,0.787-2.155,0.903
				v1.395h-1.246v-1.357c-0.614-0.033-1.2-0.141-1.756-0.324c-0.557-0.182-1.005-0.407-1.345-0.672l0.685-1.52
				c0.315,0.233,0.685,0.428,1.109,0.585c0.424,0.158,0.859,0.258,1.308,0.299v-2.081c-0.59-0.141-1.088-0.299-1.494-0.473
				c-0.407-0.174-0.748-0.43-1.021-0.766c-0.274-0.336-0.411-0.782-0.411-1.339c0-0.689,0.251-1.281,0.754-1.775
				c0.503-0.494,1.227-0.795,2.174-0.903v-1.383h1.246v1.358c1.021,0.083,1.864,0.336,2.528,0.76l-0.623,1.532
				c-0.623-0.357-1.258-0.573-1.906-0.648v2.118c0.581,0.133,1.073,0.285,1.476,0.454c0.402,0.17,0.741,0.423,1.015,0.76
				c0.274,0.336,0.411,0.779,0.411,1.326C67.343,239.616,67.094,240.199,66.596,240.685z"/>
		</g>
		<g style="opacity:0.6;">
			<path style="fill:#FFFFFF;" d="M62.274,235.236c0,0.208,0.079,0.378,0.237,0.511c0.158,0.133,0.387,0.245,0.685,0.336v-1.769
				c-0.316,0.075-0.548,0.193-0.697,0.355C62.348,234.831,62.274,235.02,62.274,235.236z"/>
			<path style="fill:#FFFFFF;" d="M64.441,238.225v1.719c0.299-0.067,0.523-0.175,0.673-0.324c0.149-0.15,0.224-0.328,0.224-0.536
				c0-0.207-0.077-0.378-0.23-0.511C64.954,238.441,64.732,238.325,64.441,238.225z"/>
			<path style="fill:#FFFFFF;" d="M63.719,227.838c-5.131,0-9.29,4.159-9.29,9.29c0,5.131,4.159,9.29,9.29,9.29
				s9.29-4.159,9.29-9.29C73.009,231.998,68.85,227.838,63.719,227.838z M66.596,240.685c-0.498,0.486-1.216,0.787-2.155,0.903
				v1.395h-1.246v-1.357c-0.614-0.033-1.2-0.141-1.756-0.324c-0.557-0.182-1.005-0.407-1.345-0.672l0.685-1.52
				c0.315,0.233,0.685,0.428,1.109,0.585c0.424,0.158,0.859,0.258,1.308,0.299v-2.081c-0.59-0.141-1.088-0.299-1.494-0.473
				c-0.407-0.174-0.748-0.43-1.021-0.766c-0.274-0.336-0.411-0.782-0.411-1.339c0-0.689,0.251-1.281,0.754-1.775
				c0.503-0.494,1.227-0.795,2.174-0.903v-1.383h1.246v1.358c1.021,0.083,1.864,0.336,2.528,0.76l-0.623,1.532
				c-0.623-0.357-1.258-0.573-1.906-0.648v2.118c0.581,0.133,1.073,0.285,1.476,0.454c0.402,0.17,0.741,0.423,1.015,0.76
				c0.274,0.336,0.411,0.779,0.411,1.326C67.343,239.616,67.094,240.199,66.596,240.685z"/>
		</g>
	</g>
	<g>
		<g>
			<path style="fill:#407BFF;" d="M404.341,213.077c0,0.259,0.099,0.471,0.295,0.637c0.197,0.165,0.482,0.305,0.854,0.419v-2.205
				c-0.394,0.093-0.683,0.241-0.869,0.443C404.434,212.573,404.341,212.808,404.341,213.077z"/>
			<path style="fill:#407BFF;" d="M407.043,216.804v2.143c0.373-0.083,0.652-0.218,0.839-0.404c0.186-0.187,0.279-0.409,0.279-0.668
				c0-0.258-0.096-0.471-0.287-0.637C407.681,217.072,407.405,216.928,407.043,216.804z"/>
			<path style="fill:#407BFF;" d="M406.142,203.857c-6.396,0-11.58,5.184-11.58,11.58c0,6.395,5.185,11.58,11.58,11.58
				c6.395,0,11.58-5.185,11.58-11.58C417.722,209.041,412.538,203.857,406.142,203.857z M409.728,219.87
				c-0.621,0.606-1.516,0.981-2.686,1.125v1.739h-1.553v-1.692c-0.766-0.041-1.496-0.176-2.189-0.404
				c-0.694-0.227-1.253-0.507-1.677-0.838l0.854-1.895c0.393,0.29,0.854,0.533,1.382,0.73c0.528,0.196,1.071,0.321,1.63,0.373
				v-2.593c-0.735-0.176-1.356-0.372-1.863-0.59c-0.507-0.217-0.932-0.535-1.273-0.955c-0.342-0.419-0.513-0.975-0.513-1.669
				c0-0.859,0.313-1.596,0.939-2.212c0.626-0.615,1.529-0.991,2.709-1.125v-1.724h1.553v1.693c1.273,0.103,2.324,0.419,3.152,0.947
				l-0.776,1.91c-0.777-0.445-1.568-0.715-2.376-0.808v2.639c0.724,0.165,1.338,0.355,1.84,0.566
				c0.502,0.212,0.923,0.528,1.265,0.948c0.341,0.419,0.512,0.97,0.512,1.653C410.66,218.537,410.35,219.264,409.728,219.87z"/>
		</g>
		<g style="opacity:0.6;">
			<path style="fill:#FFFFFF;" d="M404.341,213.077c0,0.259,0.099,0.471,0.295,0.637c0.197,0.165,0.482,0.305,0.854,0.419v-2.205
				c-0.394,0.093-0.683,0.241-0.869,0.443C404.434,212.573,404.341,212.808,404.341,213.077z"/>
			<path style="fill:#FFFFFF;" d="M407.043,216.804v2.143c0.373-0.083,0.652-0.218,0.839-0.404c0.186-0.187,0.279-0.409,0.279-0.668
				c0-0.258-0.096-0.471-0.287-0.637C407.681,217.072,407.405,216.928,407.043,216.804z"/>
			<path style="fill:#FFFFFF;" d="M406.142,203.857c-6.396,0-11.58,5.184-11.58,11.58c0,6.395,5.185,11.58,11.58,11.58
				c6.395,0,11.58-5.185,11.58-11.58C417.722,209.041,412.538,203.857,406.142,203.857z M409.728,219.87
				c-0.621,0.606-1.516,0.981-2.686,1.125v1.739h-1.553v-1.692c-0.766-0.041-1.496-0.176-2.189-0.404
				c-0.694-0.227-1.253-0.507-1.677-0.838l0.854-1.895c0.393,0.29,0.854,0.533,1.382,0.73c0.528,0.196,1.071,0.321,1.63,0.373
				v-2.593c-0.735-0.176-1.356-0.372-1.863-0.59c-0.507-0.217-0.932-0.535-1.273-0.955c-0.342-0.419-0.513-0.975-0.513-1.669
				c0-0.859,0.313-1.596,0.939-2.212c0.626-0.615,1.529-0.991,2.709-1.125v-1.724h1.553v1.693c1.273,0.103,2.324,0.419,3.152,0.947
				l-0.776,1.91c-0.777-0.445-1.568-0.715-2.376-0.808v2.639c0.724,0.165,1.338,0.355,1.84,0.566
				c0.502,0.212,0.923,0.528,1.265,0.948c0.341,0.419,0.512,0.97,0.512,1.653C410.66,218.537,410.35,219.264,409.728,219.87z"/>
		</g>
	</g>
	<g>
		<g>
			<path style="fill:#407BFF;" d="M76.15,266.618c0,0.259,0.099,0.471,0.295,0.637c0.197,0.165,0.482,0.305,0.854,0.419v-2.205
				c-0.394,0.093-0.683,0.241-0.869,0.442C76.243,266.114,76.15,266.35,76.15,266.618z"/>
			<path style="fill:#407BFF;" d="M78.852,270.345v2.143c0.373-0.083,0.652-0.218,0.839-0.404c0.186-0.187,0.279-0.409,0.279-0.668
				c0-0.259-0.096-0.471-0.287-0.637C79.491,270.613,79.214,270.469,78.852,270.345z"/>
			<path style="fill:#407BFF;" d="M77.951,257.398c-6.396,0-11.58,5.185-11.58,11.58c0,6.396,5.185,11.58,11.58,11.58
				s11.58-5.185,11.58-11.58C89.532,262.583,84.347,257.398,77.951,257.398z M81.538,273.411c-0.621,0.606-1.516,0.981-2.686,1.125
				v1.739h-1.553v-1.692c-0.766-0.041-1.495-0.176-2.189-0.404c-0.694-0.227-1.253-0.507-1.677-0.838l0.854-1.895
				c0.393,0.29,0.854,0.534,1.382,0.73c0.528,0.196,1.071,0.321,1.63,0.373v-2.593c-0.735-0.176-1.356-0.372-1.863-0.59
				c-0.507-0.217-0.932-0.536-1.273-0.955c-0.342-0.419-0.513-0.975-0.513-1.669c0-0.859,0.313-1.596,0.939-2.212
				c0.627-0.615,1.529-0.991,2.709-1.125v-1.724h1.553v1.693c1.273,0.103,2.324,0.419,3.152,0.947l-0.776,1.91
				c-0.777-0.445-1.568-0.715-2.376-0.808v2.639c0.724,0.165,1.338,0.355,1.84,0.566c0.502,0.212,0.923,0.528,1.265,0.948
				c0.341,0.419,0.512,0.97,0.512,1.653C82.469,272.078,82.159,272.805,81.538,273.411z"/>
		</g>
		<g style="opacity:0.6;">
			<path style="fill:#FFFFFF;" d="M76.15,266.618c0,0.259,0.099,0.471,0.295,0.637c0.197,0.165,0.482,0.305,0.854,0.419v-2.205
				c-0.394,0.093-0.683,0.241-0.869,0.442C76.243,266.114,76.15,266.35,76.15,266.618z"/>
			<path style="fill:#FFFFFF;" d="M78.852,270.345v2.143c0.373-0.083,0.652-0.218,0.839-0.404c0.186-0.187,0.279-0.409,0.279-0.668
				c0-0.259-0.096-0.471-0.287-0.637C79.491,270.613,79.214,270.469,78.852,270.345z"/>
			<path style="fill:#FFFFFF;" d="M77.951,257.398c-6.396,0-11.58,5.185-11.58,11.58c0,6.396,5.185,11.58,11.58,11.58
				s11.58-5.185,11.58-11.58C89.532,262.583,84.347,257.398,77.951,257.398z M81.538,273.411c-0.621,0.606-1.516,0.981-2.686,1.125
				v1.739h-1.553v-1.692c-0.766-0.041-1.495-0.176-2.189-0.404c-0.694-0.227-1.253-0.507-1.677-0.838l0.854-1.895
				c0.393,0.29,0.854,0.534,1.382,0.73c0.528,0.196,1.071,0.321,1.63,0.373v-2.593c-0.735-0.176-1.356-0.372-1.863-0.59
				c-0.507-0.217-0.932-0.536-1.273-0.955c-0.342-0.419-0.513-0.975-0.513-1.669c0-0.859,0.313-1.596,0.939-2.212
				c0.627-0.615,1.529-0.991,2.709-1.125v-1.724h1.553v1.693c1.273,0.103,2.324,0.419,3.152,0.947l-0.776,1.91
				c-0.777-0.445-1.568-0.715-2.376-0.808v2.639c0.724,0.165,1.338,0.355,1.84,0.566c0.502,0.212,0.923,0.528,1.265,0.948
				c0.341,0.419,0.512,0.97,0.512,1.653C82.469,272.078,82.159,272.805,81.538,273.411z"/>
		</g>
	</g>
	<g>
		<g>
			<path style="fill:#407BFF;" d="M417.112,117.655c-0.934-0.661-2.073-1.051-3.305-1.051h-92.398c-3.171,0-5.742,2.571-5.742,5.742
				v13.751c0,1.049,0.283,2.032,0.775,2.877c0.493,0.845,2.976,3.317,3.611,3.778c0.943,0.684,2.102,1.087,3.356,1.087h92.398
				c3.171,0,5.742-2.57,5.742-5.742v-13.751c0-1.267-0.412-2.436-1.107-3.383C419.984,120.339,417.768,118.12,417.112,117.655z"/>
			<path style="opacity:0.4;fill:#FFFFFF;" d="M417.112,117.655c-0.934-0.661-2.073-1.051-3.305-1.051h-92.398
				c-3.171,0-5.742,2.571-5.742,5.742v13.751c0,1.049,0.283,2.032,0.775,2.877c0.493,0.845,2.976,3.317,3.611,3.778
				c0.943,0.684,2.102,1.087,3.356,1.087h92.398c3.171,0,5.742-2.57,5.742-5.742v-13.751c0-1.267-0.412-2.436-1.107-3.383
				C419.984,120.339,417.768,118.12,417.112,117.655z"/>
			<path style="opacity:0.4;fill:#FFFFFF;" d="M413.807,141.838h-92.398c-3.171,0-5.741-2.57-5.741-5.742v-13.751
				c0-3.171,2.571-5.742,5.741-5.742h92.398c3.171,0,5.741,2.571,5.741,5.742v13.751
				C419.548,139.268,416.978,141.838,413.807,141.838z"/>
		</g>
		<polygon style="fill:#407BFF;" points="329.393,120.96 331.836,125.909 337.297,126.702 333.345,130.555 334.278,135.995 
			329.393,133.426 324.508,135.995 325.441,130.555 321.489,126.702 326.95,125.909 		"/>
		<polygon style="fill:#407BFF;" points="348.791,120.96 351.233,125.909 356.695,126.702 352.743,130.555 353.676,135.995 
			348.791,133.426 343.905,135.995 344.839,130.555 340.886,126.702 346.348,125.909 		"/>
		<polygon style="fill:#407BFF;" points="368.188,120.96 370.631,125.909 376.093,126.702 372.141,130.555 373.073,135.995 
			368.188,133.426 363.303,135.995 364.236,130.555 360.284,126.702 365.746,125.909 		"/>
		<polygon style="fill:#407BFF;" points="387.586,120.96 390.029,125.909 395.49,126.702 391.538,130.555 392.471,135.995 
			387.586,133.426 382.701,135.995 383.634,130.555 379.682,126.702 385.143,125.909 		"/>
		<polygon style="fill:#407BFF;" points="406.984,120.96 409.426,125.909 414.888,126.702 410.936,130.555 411.869,135.995 
			406.984,133.426 402.099,135.995 403.032,130.555 399.079,126.702 404.541,125.909 		"/>
		<g>
			<polygon style="opacity:0.9;fill:#FFFFFF;" points="329.393,120.96 331.836,125.909 337.297,126.702 333.345,130.555 
				334.278,135.995 329.393,133.426 324.508,135.995 325.441,130.555 321.489,126.702 326.95,125.909 			"/>
			<polygon style="opacity:0.9;fill:#FFFFFF;" points="348.791,120.96 351.233,125.909 356.695,126.702 352.743,130.555 
				353.676,135.995 348.791,133.426 343.905,135.995 344.839,130.555 340.886,126.702 346.348,125.909 			"/>
			<polygon style="opacity:0.9;fill:#FFFFFF;" points="368.188,120.96 370.631,125.909 376.093,126.702 372.141,130.555 
				373.073,135.995 368.188,133.426 363.303,135.995 364.236,130.555 360.284,126.702 365.746,125.909 			"/>
			<polygon style="opacity:0.9;fill:#FFFFFF;" points="387.586,120.96 390.029,125.909 395.49,126.702 391.538,130.555 
				392.471,135.995 387.586,133.426 382.701,135.995 383.634,130.555 379.682,126.702 385.143,125.909 			"/>
			<polygon style="opacity:0.9;fill:#FFFFFF;" points="406.984,120.96 409.426,125.909 414.888,126.702 410.936,130.555 
				411.869,135.995 406.984,133.426 402.099,135.995 403.032,130.555 399.079,126.702 404.541,125.909 			"/>
		</g>
	</g>
	<g>
		<path style="fill:#407BFF;" d="M267.83,269.275v-3.768c0-5.172-4.208-9.381-9.381-9.381c-5.173,0-9.381,4.208-9.381,9.381v3.768
			h-2.509v19.583h23.779v-19.583H267.83z M251.586,265.508c0-3.784,3.079-6.863,6.863-6.863c3.784,0,6.863,3.079,6.863,6.863v3.768
			h-13.726V265.508z M259.703,279v3.157c0,0.692-0.561,1.254-1.254,1.254c-0.692,0-1.254-0.561-1.254-1.254V279
			c-0.762-0.49-1.222-1.408-1.025-2.418c0.178-0.913,0.932-1.655,1.847-1.819c1.474-0.265,2.756,0.86,2.756,2.285
			C260.773,277.868,260.345,278.586,259.703,279z"/>
		<path style="opacity:0.6;fill:#FFFFFF;" d="M267.83,269.275v-3.768c0-5.172-4.208-9.381-9.381-9.381
			c-5.173,0-9.381,4.208-9.381,9.381v3.768h-2.509v19.583h23.779v-19.583H267.83z M251.586,265.508c0-3.784,3.079-6.863,6.863-6.863
			c3.784,0,6.863,3.079,6.863,6.863v3.768h-13.726V265.508z M259.703,279v3.157c0,0.692-0.561,1.254-1.254,1.254
			c-0.692,0-1.254-0.561-1.254-1.254V279c-0.762-0.49-1.222-1.408-1.025-2.418c0.178-0.913,0.932-1.655,1.847-1.819
			c1.474-0.265,2.756,0.86,2.756,2.285C260.773,277.868,260.345,278.586,259.703,279z"/>
	</g>
	<g>
		<g>
			<g>
				<circle style="fill:#407BFF;" cx="67.134" cy="166.504" r="3.415"/>
				<path style="fill:#407BFF;" d="M95.031,166.504c0,1.886-1.529,3.415-3.415,3.415c-1.886,0-3.415-1.529-3.415-3.415
					c0-1.886,1.529-3.415,3.415-3.415C93.503,163.089,95.031,164.618,95.031,166.504z"/>
				<circle style="fill:#407BFF;" cx="116.099" cy="166.504" r="3.415"/>
				<path style="fill:#407BFF;" d="M70.549,143.638c0,1.886-1.529,3.415-3.415,3.415c-1.886,0-3.415-1.529-3.415-3.415
					c0-1.886,1.529-3.415,3.415-3.415C69.02,140.223,70.549,141.752,70.549,143.638z"/>
				<path style="fill:#407BFF;" d="M95.031,143.638c0,1.886-1.529,3.415-3.415,3.415c-1.886,0-3.415-1.529-3.415-3.415
					c0-1.886,1.529-3.415,3.415-3.415C93.503,140.223,95.031,141.752,95.031,143.638z"/>
				<path style="fill:#407BFF;" d="M119.514,143.638c0,1.886-1.529,3.415-3.415,3.415c-1.886,0-3.415-1.529-3.415-3.415
					c0-1.886,1.529-3.415,3.415-3.415C117.985,140.223,119.514,141.752,119.514,143.638z"/>
				<circle style="fill:#407BFF;" cx="67.134" cy="120.773" r="3.415"/>
				<path style="fill:#407BFF;" d="M95.031,120.773c0,1.886-1.529,3.415-3.415,3.415c-1.886,0-3.415-1.529-3.415-3.415
					c0-1.886,1.529-3.415,3.415-3.415C93.503,117.358,95.031,118.887,95.031,120.773z"/>
				<circle style="fill:#407BFF;" cx="116.099" cy="120.773" r="3.415"/>
			</g>
			<g style="opacity:0.3;">
				<circle style="fill:#FFFFFF;" cx="67.134" cy="166.504" r="3.415"/>
				<path style="fill:#FFFFFF;" d="M95.031,166.504c0,1.886-1.529,3.415-3.415,3.415c-1.886,0-3.415-1.529-3.415-3.415
					c0-1.886,1.529-3.415,3.415-3.415C93.503,163.089,95.031,164.618,95.031,166.504z"/>
				<circle style="fill:#FFFFFF;" cx="116.099" cy="166.504" r="3.415"/>
				<path style="fill:#FFFFFF;" d="M70.549,143.638c0,1.886-1.529,3.415-3.415,3.415c-1.886,0-3.415-1.529-3.415-3.415
					c0-1.886,1.529-3.415,3.415-3.415C69.02,140.223,70.549,141.752,70.549,143.638z"/>
				<path style="fill:#FFFFFF;" d="M95.031,143.638c0,1.886-1.529,3.415-3.415,3.415c-1.886,0-3.415-1.529-3.415-3.415
					c0-1.886,1.529-3.415,3.415-3.415C93.503,140.223,95.031,141.752,95.031,143.638z"/>
				<path style="fill:#FFFFFF;" d="M119.514,143.638c0,1.886-1.529,3.415-3.415,3.415c-1.886,0-3.415-1.529-3.415-3.415
					c0-1.886,1.529-3.415,3.415-3.415C117.985,140.223,119.514,141.752,119.514,143.638z"/>
				<circle style="fill:#FFFFFF;" cx="67.134" cy="120.773" r="3.415"/>
				<path style="fill:#FFFFFF;" d="M95.031,120.773c0,1.886-1.529,3.415-3.415,3.415c-1.886,0-3.415-1.529-3.415-3.415
					c0-1.886,1.529-3.415,3.415-3.415C93.503,117.358,95.031,118.887,95.031,120.773z"/>
				<circle style="fill:#FFFFFF;" cx="116.099" cy="120.773" r="3.415"/>
			</g>
		</g>
		<g>
			<g>
				<path style="fill:#407BFF;" d="M116.099,166.504c0,0.909-0.737,1.646-1.646,1.646H67.945c-0.813,0-1.53-0.489-1.828-1.244
					c-0.298-0.756-0.107-1.603,0.487-2.157l45.322-42.33H68.779c-0.909,0-1.646-0.737-1.646-1.646l0,0
					c0-0.909,0.737-1.645,1.646-1.645h46.509c0.813,0,1.53,0.488,1.829,1.244c0.298,0.757,0.107,1.603-0.487,2.157l-45.322,42.33
					h43.146C115.362,164.858,116.099,165.595,116.099,166.504L116.099,166.504z"/>
			</g>
			<g style="opacity:0.6;">
				<path style="fill:#FFFFFF;" d="M116.099,166.504c0,0.909-0.737,1.646-1.646,1.646H67.945c-0.813,0-1.53-0.489-1.828-1.244
					c-0.298-0.756-0.107-1.603,0.487-2.157l45.322-42.33H68.779c-0.909,0-1.646-0.737-1.646-1.646l0,0
					c0-0.909,0.737-1.645,1.646-1.645h46.509c0.813,0,1.53,0.488,1.829,1.244c0.298,0.757,0.107,1.603-0.487,2.157l-45.322,42.33
					h43.146C115.362,164.858,116.099,165.595,116.099,166.504L116.099,166.504z"/>
			</g>
		</g>
	</g>
</g>
<g id="Device_2">
	<g>
		<g>
			<path style="fill:#407BFF;" d="M297.589,354.945h72.219c8.125,0,14.711-6.586,14.711-14.711l0-172.613
				c0-8.124-6.586-14.711-14.711-14.711h-72.219c-8.124,0-14.71,6.586-14.711,14.711l0,172.613
				C282.878,348.358,289.464,354.945,297.589,354.945z"/>
			<path style="fill:#263238;" d="M301.339,354.945h72.219c8.125,0,14.711-6.586,14.711-14.711l0-172.613
				c0-8.124-6.586-14.711-14.711-14.711h-72.219c-8.124,0-14.71,6.586-14.711,14.711l0,172.613
				C286.628,348.358,293.214,354.945,301.339,354.945z"/>
			<g>
				<path style="fill:#407BFF;" d="M301.339,156.286h18.771c1.229,0,2.267,0.914,2.423,2.133l0.075,0.588
					c0.38,2.978,2.915,5.21,5.917,5.21h17.846c3.002,0,5.537-2.232,5.917-5.21l0.075-0.588c0.156-1.219,1.194-2.133,2.423-2.133
					h18.771c6.26,0,11.335,5.075,11.335,11.335v172.613c0,6.26-5.075,11.336-11.336,11.336h-72.219
					c-6.26,0-11.336-5.075-11.336-11.336V167.621C290.003,161.361,295.078,156.286,301.339,156.286z"/>
				<path style="opacity:0.8;fill:#FFFFFF;" d="M301.339,156.286h18.771c1.229,0,2.267,0.914,2.423,2.133l0.075,0.588
					c0.38,2.978,2.915,5.21,5.917,5.21h17.846c3.002,0,5.537-2.232,5.917-5.21l0.075-0.588c0.156-1.219,1.194-2.133,2.423-2.133
					h18.771c6.26,0,11.335,5.075,11.335,11.335v172.613c0,6.26-5.075,11.336-11.336,11.336h-72.219
					c-6.26,0-11.336-5.075-11.336-11.336V167.621C290.003,161.361,295.078,156.286,301.339,156.286z"/>
			</g>
			<g style="opacity:0.9;">
				<path d="M341.816,158.198c0,0.792,0.642,1.434,1.434,1.434c0.792,0,1.434-0.642,1.434-1.434c0-0.792-0.642-1.434-1.434-1.434
					C342.458,156.764,341.816,157.406,341.816,158.198z"/>
				<path d="M331.646,156.764c0.567,0,4.351,0,4.918,0c0.792,0,1.434,0.642,1.434,1.434c0,0.792-0.642,1.434-1.434,1.434
					c-0.492,0-4.426,0-4.918,0c-0.792,0-1.435-0.642-1.434-1.434C330.211,157.406,330.854,156.764,331.646,156.764z"/>
			</g>
			<g>
				<rect x="298.964" y="162.67" style="fill:#407BFF;" width="1.519" height="1.519"/>
				<polygon style="fill:#407BFF;" points="302.002,162.67 302.002,164.189 303.52,164.189 303.521,162.67 303.521,161.151 
					302.002,161.151 				"/>
				<polygon style="fill:#407BFF;" points="305.039,159.632 305.039,161.151 305.039,162.67 305.039,164.189 306.558,164.189 
					306.558,162.67 306.558,161.151 306.558,159.632 				"/>
			</g>
			<path style="fill:#407BFF;" d="M370.35,159.734l0,1.114h-0.743v2.228h0.743l0,1.114h6.683v-4.455H370.35z M373.32,163.075h-2.228
				v-2.228h2.228V163.075z"/>
		</g>
		<g>
			<circle style="opacity:0.9;fill:#FFFFFF;" cx="337.219" cy="312.11" r="13.474"/>
			<g>
				<g>
					<path style="fill:#407BFF;" d="M336.958,319.314l-11.753-11.753c-1.025-1.025-1.025-2.687,0-3.712l0,0
						c1.025-1.025,2.687-1.025,3.712,0l8.04,8.04l13.258-13.258c1.025-1.025,2.687-1.025,3.712,0l0,0
						c1.025,1.025,1.025,2.687,0,3.712L336.958,319.314z"/>
				</g>
			</g>
		</g>
	</g>
</g>
<g id="Money">
	<g>
		<path style="opacity:0.3;" d="M379.392,287h-83.75c-1.381,0-2.5-1.119-2.5-2.5l0,0c0-1.381,1.119-2.5,2.5-2.5h83.75
			c1.381,0,2.5,1.119,2.5,2.5l0,0C381.892,285.881,380.772,287,379.392,287z"/>
		<g>
			<g>
				<g>
					<rect x="139.74" y="237.333" style="fill:#407BFF;" width="84.656" height="47.084"/>
					<rect x="139.74" y="237.333" style="opacity:0.3;fill:#FFFFFF;" width="84.656" height="47.084"/>
					<path style="opacity:0.8;fill:#FFFFFF;" d="M220.598,277.01v-32.271c-1.993,0-3.608-1.615-3.608-3.608h-69.843
						c0,1.993-1.615,3.608-3.608,3.608v32.271c1.993,0,3.608,1.615,3.608,3.608h69.843
						C216.99,278.625,218.605,277.01,220.598,277.01z"/>
				</g>
				<g>
					<g>
						<path style="fill:#407BFF;" d="M180.014,258.184c0,0.295,0.112,0.538,0.336,0.726c0.224,0.189,0.549,0.348,0.974,0.478v-2.514
							c-0.449,0.106-0.779,0.274-0.991,0.505C180.12,257.608,180.014,257.877,180.014,258.184z"/>
						<path style="fill:#407BFF;" d="M183.095,262.433v2.443c0.425-0.095,0.744-0.248,0.956-0.46
							c0.212-0.213,0.318-0.466,0.318-0.762c0-0.295-0.109-0.537-0.328-0.726C183.824,262.739,183.508,262.574,183.095,262.433z"/>
						<path style="fill:#407BFF;" d="M182.068,247.67c-7.293,0-13.205,5.912-13.205,13.205c0,7.293,5.912,13.205,13.205,13.205
							c7.293,0,13.205-5.912,13.205-13.205C195.273,253.582,189.361,247.67,182.068,247.67z M186.158,265.929
							c-0.708,0.691-1.729,1.118-3.063,1.283v1.983h-1.771v-1.929c-0.873-0.047-1.705-0.2-2.496-0.461
							c-0.791-0.259-1.429-0.578-1.912-0.956l0.974-2.16c0.448,0.331,0.974,0.608,1.576,0.832c0.602,0.224,1.221,0.366,1.859,0.425
							v-2.957c-0.838-0.2-1.546-0.424-2.124-0.673c-0.578-0.248-1.063-0.611-1.451-1.089c-0.39-0.478-0.585-1.112-0.585-1.903
							c0-0.979,0.357-1.82,1.071-2.523c0.714-0.702,1.744-1.13,3.089-1.283v-1.965h1.771v1.93c1.452,0.118,2.65,0.478,3.594,1.08
							l-0.885,2.178c-0.886-0.508-1.788-0.815-2.709-0.921v3.01c0.826,0.189,1.525,0.405,2.098,0.646
							c0.572,0.242,1.053,0.602,1.443,1.081c0.389,0.478,0.584,1.107,0.584,1.885C187.22,264.409,186.866,265.238,186.158,265.929z"
							/>
					</g>
					<g style="opacity:0.3;">
						<path style="fill:#FFFFFF;" d="M180.014,258.184c0,0.295,0.112,0.538,0.336,0.726c0.224,0.189,0.549,0.348,0.974,0.478v-2.514
							c-0.449,0.106-0.779,0.274-0.991,0.505C180.12,257.608,180.014,257.877,180.014,258.184z"/>
						<path style="fill:#FFFFFF;" d="M183.095,262.433v2.443c0.425-0.095,0.744-0.248,0.956-0.46
							c0.212-0.213,0.318-0.466,0.318-0.762c0-0.295-0.109-0.537-0.328-0.726C183.824,262.739,183.508,262.574,183.095,262.433z"/>
						<path style="fill:#FFFFFF;" d="M182.068,247.67c-7.293,0-13.205,5.912-13.205,13.205c0,7.293,5.912,13.205,13.205,13.205
							c7.293,0,13.205-5.912,13.205-13.205C195.273,253.582,189.361,247.67,182.068,247.67z M186.158,265.929
							c-0.708,0.691-1.729,1.118-3.063,1.283v1.983h-1.771v-1.929c-0.873-0.047-1.705-0.2-2.496-0.461
							c-0.791-0.259-1.429-0.578-1.912-0.956l0.974-2.16c0.448,0.331,0.974,0.608,1.576,0.832c0.602,0.224,1.221,0.366,1.859,0.425
							v-2.957c-0.838-0.2-1.546-0.424-2.124-0.673c-0.578-0.248-1.063-0.611-1.451-1.089c-0.39-0.478-0.585-1.112-0.585-1.903
							c0-0.979,0.357-1.82,1.071-2.523c0.714-0.702,1.744-1.13,3.089-1.283v-1.965h1.771v1.93c1.452,0.118,2.65,0.478,3.594,1.08
							l-0.885,2.178c-0.886-0.508-1.788-0.815-2.709-0.921v3.01c0.826,0.189,1.525,0.405,2.098,0.646
							c0.572,0.242,1.053,0.602,1.443,1.081c0.389,0.478,0.584,1.107,0.584,1.885C187.22,264.409,186.866,265.238,186.158,265.929z"
							/>
					</g>
				</g>
			</g>
			<g>
				<g>
					
						<rect x="164.447" y="188.781" transform="matrix(0.3827 -0.9239 0.9239 0.3827 -97.4679 316.3466)" style="fill:#407BFF;" width="47.084" height="84.656"/>
					
						<rect x="164.447" y="188.781" transform="matrix(0.3827 -0.9239 0.9239 0.3827 -97.4679 316.3466)" style="opacity:0.3;fill:#FFFFFF;" width="47.084" height="84.656"/>
					<path style="opacity:0.8;fill:#FFFFFF;" d="M158.567,201.457l-12.349,29.814c1.841,0.762,2.715,2.873,1.953,4.714
						l64.526,26.728c0.762-1.841,2.873-2.715,4.714-1.953l12.349-29.814c-1.841-0.763-2.715-2.873-1.953-4.714l-64.526-26.728
						C162.519,201.346,160.408,202.22,158.567,201.457z"/>
				</g>
				<g>
					<g>
						<path style="fill:#407BFF;" d="M188.857,234.381c0.113-0.273,0.102-0.54-0.033-0.8c-0.135-0.26-0.374-0.532-0.717-0.814
							l-0.962,2.323c0.455,0.074,0.825,0.045,1.109-0.087C188.539,234.872,188.74,234.664,188.857,234.381z"/>
						<path style="fill:#407BFF;" d="M187.637,229.276l0.935-2.257c-0.429-0.075-0.782-0.055-1.06,0.059
							c-0.277,0.116-0.472,0.309-0.585,0.582c-0.113,0.272-0.104,0.538,0.025,0.796
							C187.081,228.714,187.309,228.987,187.637,229.276z"/>
						<path style="fill:#407BFF;" d="M182.936,243.309c6.738,2.791,14.462-0.409,17.253-7.146
							c2.791-6.738-0.409-14.462-7.146-17.253c-6.738-2.791-14.462,0.409-17.253,7.146
							C172.998,232.793,176.198,240.518,182.936,243.309z M186.145,224.874c0.919-0.367,2.025-0.372,3.321-0.014l0.759-1.832
							l1.636,0.678l-0.738,1.783c0.789,0.378,1.499,0.838,2.13,1.381c0.632,0.542,1.099,1.081,1.401,1.615l-1.726,1.623
							c-0.287-0.477-0.667-0.935-1.137-1.372c-0.47-0.437-0.988-0.806-1.554-1.104l-1.132,2.732
							c0.697,0.506,1.266,0.984,1.705,1.435c0.44,0.45,0.748,0.971,0.924,1.561c0.177,0.591,0.115,1.251-0.188,1.982
							c-0.375,0.905-1.026,1.545-1.955,1.921c-0.929,0.375-2.044,0.377-3.345,0.003l-0.752,1.816l-1.636-0.678l0.739-1.783
							c-1.296-0.664-2.266-1.456-2.907-2.373l1.651-1.673c0.624,0.808,1.34,1.437,2.15,1.888l1.152-2.781
							c-0.691-0.49-1.254-0.958-1.691-1.4c-0.436-0.443-0.743-0.959-0.919-1.551c-0.177-0.59-0.116-1.246,0.182-1.965
							C184.582,225.872,185.226,225.241,186.145,224.874z"/>
					</g>
					<g style="opacity:0.3;">
						<path style="fill:#FFFFFF;" d="M188.857,234.381c0.113-0.273,0.102-0.54-0.033-0.8c-0.135-0.26-0.374-0.532-0.717-0.814
							l-0.962,2.323c0.455,0.074,0.825,0.045,1.109-0.087C188.539,234.872,188.74,234.664,188.857,234.381z"/>
						<path style="fill:#FFFFFF;" d="M187.637,229.276l0.935-2.257c-0.429-0.075-0.782-0.055-1.06,0.059
							c-0.277,0.116-0.472,0.309-0.585,0.582c-0.113,0.272-0.104,0.538,0.025,0.796
							C187.081,228.714,187.309,228.987,187.637,229.276z"/>
						<path style="fill:#FFFFFF;" d="M182.936,243.309c6.738,2.791,14.462-0.409,17.253-7.146
							c2.791-6.738-0.409-14.462-7.146-17.253c-6.738-2.791-14.462,0.409-17.253,7.146
							C172.998,232.793,176.198,240.518,182.936,243.309z M186.145,224.874c0.919-0.367,2.025-0.372,3.321-0.014l0.759-1.832
							l1.636,0.678l-0.738,1.783c0.789,0.378,1.499,0.838,2.13,1.381c0.632,0.542,1.099,1.081,1.401,1.615l-1.726,1.623
							c-0.287-0.477-0.667-0.935-1.137-1.372c-0.47-0.437-0.988-0.806-1.554-1.104l-1.132,2.732
							c0.697,0.506,1.266,0.984,1.705,1.435c0.44,0.45,0.748,0.971,0.924,1.561c0.177,0.591,0.115,1.251-0.188,1.982
							c-0.375,0.905-1.026,1.545-1.955,1.921c-0.929,0.375-2.044,0.377-3.345,0.003l-0.752,1.816l-1.636-0.678l0.739-1.783
							c-1.296-0.664-2.266-1.456-2.907-2.373l1.651-1.673c0.624,0.808,1.34,1.437,2.15,1.888l1.152-2.781
							c-0.691-0.49-1.254-0.958-1.691-1.4c-0.436-0.443-0.743-0.959-0.919-1.551c-0.177-0.59-0.116-1.246,0.182-1.965
							C184.582,225.872,185.226,225.241,186.145,224.874z"/>
					</g>
				</g>
			</g>
			<g>
				<g>
					
						<rect x="181.308" y="163.547" transform="matrix(0.7071 -0.7071 0.7071 0.7071 -85.5762 205.1501)" style="fill:#407BFF;" width="47.084" height="84.656"/>
					
						<rect x="181.308" y="163.547" transform="matrix(0.7071 -0.7071 0.7071 0.7071 -85.5762 205.1501)" style="opacity:0.3;fill:#FFFFFF;" width="47.084" height="84.656"/>
					<path style="opacity:0.8;fill:#FFFFFF;" d="M189.015,167.221l-22.819,22.819c1.409,1.409,1.409,3.693,0,5.102l49.386,49.386
						c1.409-1.409,3.693-1.409,5.102,0l22.819-22.819c-1.409-1.409-1.409-3.693,0-5.102l-49.386-49.386
						C192.708,168.63,190.424,168.63,189.015,167.221z"/>
				</g>
				<g>
					<g>
						<path style="fill:#407BFF;" d="M204.4,209.23c0.209-0.209,0.301-0.46,0.276-0.751c-0.025-0.292-0.142-0.635-0.351-1.026
							l-1.778,1.778c0.392,0.242,0.745,0.357,1.057,0.344C203.918,209.561,204.183,209.446,204.4,209.23z"/>
						<path style="fill:#407BFF;" d="M205.226,204.047l1.728-1.728c-0.368-0.233-0.701-0.35-1.002-0.351
							c-0.301,0.001-0.555,0.104-0.764,0.313c-0.208,0.208-0.302,0.457-0.282,0.745
							C204.928,203.315,205.034,203.654,205.226,204.047z"/>
						<path style="fill:#407BFF;" d="M195.513,215.212c5.157,5.157,13.518,5.157,18.674,0c5.157-5.157,5.157-13.518,0-18.674
							c-5.157-5.157-13.518-5.157-18.675,0C190.356,201.694,190.356,210.055,195.513,215.212z M205.533,199.409
							c0.989,0.012,2.013,0.432,3.073,1.258l1.402-1.402l1.252,1.252l-1.364,1.364c0.584,0.651,1.064,1.348,1.439,2.091
							c0.376,0.743,0.601,1.419,0.676,2.028l-2.216,0.839c-0.083-0.551-0.258-1.119-0.526-1.703
							c-0.267-0.584-0.605-1.122-1.014-1.615l-2.091,2.091c0.451,0.734,0.793,1.393,1.027,1.978c0.234,0.584,0.32,1.183,0.257,1.796
							c-0.062,0.613-0.373,1.2-0.932,1.759c-0.692,0.692-1.539,1.035-2.541,1.026c-1.001-0.009-2.032-0.434-3.092-1.277l-1.39,1.39
							l-1.252-1.252l1.365-1.365c-0.943-1.11-1.536-2.212-1.778-3.305l2.166-0.914c0.267,0.985,0.688,1.84,1.264,2.567l2.128-2.128
							c-0.451-0.717-0.793-1.365-1.027-1.941c-0.233-0.576-0.319-1.17-0.256-1.784c0.063-0.613,0.37-1.195,0.92-1.746
							C203.707,199.732,204.543,199.396,205.533,199.409z"/>
					</g>
					<g style="opacity:0.3;">
						<path style="fill:#FFFFFF;" d="M204.4,209.23c0.209-0.209,0.301-0.46,0.276-0.751c-0.025-0.292-0.142-0.635-0.351-1.026
							l-1.778,1.778c0.392,0.242,0.745,0.357,1.057,0.344C203.918,209.561,204.183,209.446,204.4,209.23z"/>
						<path style="fill:#FFFFFF;" d="M205.226,204.047l1.728-1.728c-0.368-0.233-0.701-0.35-1.002-0.351
							c-0.301,0.001-0.555,0.104-0.764,0.313c-0.208,0.208-0.302,0.457-0.282,0.745
							C204.928,203.315,205.034,203.654,205.226,204.047z"/>
						<path style="fill:#FFFFFF;" d="M195.513,215.212c5.157,5.157,13.518,5.157,18.674,0c5.157-5.157,5.157-13.518,0-18.674
							c-5.157-5.157-13.518-5.157-18.675,0C190.356,201.694,190.356,210.055,195.513,215.212z M205.533,199.409
							c0.989,0.012,2.013,0.432,3.073,1.258l1.402-1.402l1.252,1.252l-1.364,1.364c0.584,0.651,1.064,1.348,1.439,2.091
							c0.376,0.743,0.601,1.419,0.676,2.028l-2.216,0.839c-0.083-0.551-0.258-1.119-0.526-1.703
							c-0.267-0.584-0.605-1.122-1.014-1.615l-2.091,2.091c0.451,0.734,0.793,1.393,1.027,1.978c0.234,0.584,0.32,1.183,0.257,1.796
							c-0.062,0.613-0.373,1.2-0.932,1.759c-0.692,0.692-1.539,1.035-2.541,1.026c-1.001-0.009-2.032-0.434-3.092-1.277l-1.39,1.39
							l-1.252-1.252l1.365-1.365c-0.943-1.11-1.536-2.212-1.778-3.305l2.166-0.914c0.267,0.985,0.688,1.84,1.264,2.567l2.128-2.128
							c-0.451-0.717-0.793-1.365-1.027-1.941c-0.233-0.576-0.319-1.17-0.256-1.784c0.063-0.613,0.37-1.195,0.92-1.746
							C203.707,199.732,204.543,199.396,205.533,199.409z"/>
					</g>
				</g>
			</g>
			<g>
				<g>
					
						<rect x="206.542" y="146.686" transform="matrix(0.9239 -0.3827 0.3827 0.9239 -54.8183 102.4374)" style="fill:#407BFF;" width="47.084" height="84.656"/>
					
						<rect x="206.542" y="146.686" transform="matrix(0.9239 -0.3827 0.3827 0.9239 -54.8183 102.4374)" style="opacity:0.3;fill:#FFFFFF;" width="47.084" height="84.656"/>
					<path style="opacity:0.8;fill:#FFFFFF;" d="M230.247,147.242l-29.814,12.349c0.762,1.841-0.112,3.951-1.953,4.714
						l26.728,64.526c1.841-0.763,3.951,0.112,4.714,1.952l29.814-12.349c-0.763-1.841,0.112-3.951,1.953-4.714l-26.728-64.526
						C233.12,149.958,231.009,149.083,230.247,147.242z"/>
				</g>
				<g>
					<g>
						<path style="fill:#407BFF;" d="M228.384,191.941c0.273-0.113,0.454-0.31,0.542-0.589c0.089-0.279,0.111-0.641,0.069-1.083
							l-2.323,0.962c0.27,0.374,0.551,0.615,0.845,0.722C227.812,192.063,228.101,192.058,228.384,191.941z"/>
						<path style="fill:#407BFF;" d="M231.131,187.469l2.257-0.935c-0.251-0.356-0.514-0.592-0.792-0.707
							c-0.278-0.114-0.552-0.116-0.825-0.003c-0.272,0.113-0.454,0.306-0.546,0.581
							C231.135,186.678,231.104,187.033,231.131,187.469z"/>
						<path style="fill:#407BFF;" d="M217.884,194.067c2.791,6.738,10.515,9.937,17.253,7.146
							c6.738-2.791,9.937-10.515,7.146-17.253c-2.791-6.738-10.515-9.937-17.253-7.146
							C218.293,179.605,215.094,187.329,217.884,194.067z M233.189,183.301c0.909,0.39,1.695,1.169,2.358,2.338l1.832-0.759
							l0.678,1.636l-1.783,0.738c0.29,0.825,0.467,1.652,0.53,2.482c0.063,0.83,0.012,1.541-0.151,2.132l-2.369-0.073
							c0.134-0.54,0.189-1.132,0.166-1.774c-0.024-0.642-0.129-1.268-0.319-1.88l-2.732,1.132c0.136,0.851,0.199,1.591,0.191,2.22
							c-0.007,0.629-0.158,1.215-0.45,1.758c-0.292,0.543-0.804,0.966-1.535,1.269c-0.905,0.375-1.818,0.367-2.741-0.024
							c-0.922-0.391-1.711-1.179-2.368-2.363l-1.816,0.752l-0.678-1.636l1.783-0.739c-0.447-1.386-0.573-2.631-0.378-3.733
							l2.351-0.016c-0.13,1.012-0.069,1.964,0.186,2.855l2.781-1.152c-0.142-0.835-0.21-1.564-0.206-2.186
							c0.005-0.621,0.153-1.203,0.446-1.746c0.293-0.542,0.799-0.963,1.518-1.261C231.378,182.901,232.28,182.911,233.189,183.301z"
							/>
					</g>
					<g style="opacity:0.3;">
						<path style="fill:#FFFFFF;" d="M228.384,191.941c0.273-0.113,0.454-0.31,0.542-0.589c0.089-0.279,0.111-0.641,0.069-1.083
							l-2.323,0.962c0.27,0.374,0.551,0.615,0.845,0.722C227.812,192.063,228.101,192.058,228.384,191.941z"/>
						<path style="fill:#FFFFFF;" d="M231.131,187.469l2.257-0.935c-0.251-0.356-0.514-0.592-0.792-0.707
							c-0.278-0.114-0.552-0.116-0.825-0.003c-0.272,0.113-0.454,0.306-0.546,0.581
							C231.135,186.678,231.104,187.033,231.131,187.469z"/>
						<path style="fill:#FFFFFF;" d="M217.884,194.067c2.791,6.738,10.515,9.937,17.253,7.146
							c6.738-2.791,9.937-10.515,7.146-17.253c-2.791-6.738-10.515-9.937-17.253-7.146
							C218.293,179.605,215.094,187.329,217.884,194.067z M233.189,183.301c0.909,0.39,1.695,1.169,2.358,2.338l1.832-0.759
							l0.678,1.636l-1.783,0.738c0.29,0.825,0.467,1.652,0.53,2.482c0.063,0.83,0.012,1.541-0.151,2.132l-2.369-0.073
							c0.134-0.54,0.189-1.132,0.166-1.774c-0.024-0.642-0.129-1.268-0.319-1.88l-2.732,1.132c0.136,0.851,0.199,1.591,0.191,2.22
							c-0.007,0.629-0.158,1.215-0.45,1.758c-0.292,0.543-0.804,0.966-1.535,1.269c-0.905,0.375-1.818,0.367-2.741-0.024
							c-0.922-0.391-1.711-1.179-2.368-2.363l-1.816,0.752l-0.678-1.636l1.783-0.739c-0.447-1.386-0.573-2.631-0.378-3.733
							l2.351-0.016c-0.13,1.012-0.069,1.964,0.186,2.855l2.781-1.152c-0.142-0.835-0.21-1.564-0.206-2.186
							c0.005-0.621,0.153-1.203,0.446-1.746c0.293-0.542,0.799-0.963,1.518-1.261C231.378,182.901,232.28,182.911,233.189,183.301z"
							/>
					</g>
				</g>
			</g>
			<g>
				<g>
					<rect x="236.308" y="140.765" style="fill:#407BFF;" width="47.084" height="84.656"/>
					<rect x="236.308" y="140.765" style="opacity:0.3;fill:#FFFFFF;" width="47.084" height="84.656"/>
					<path style="opacity:0.8;fill:#FFFFFF;" d="M275.985,144.564h-32.271c0,1.993-1.615,3.608-3.608,3.608v69.843
						c1.993,0,3.608,1.615,3.608,3.608h32.271c0-1.993,1.615-3.608,3.608-3.608v-69.843
						C277.6,148.171,275.985,146.556,275.985,144.564z"/>
				</g>
				<g>
					<g>
						<path style="fill:#407BFF;" d="M257.159,185.147c0.296,0,0.538-0.112,0.726-0.336c0.189-0.224,0.348-0.549,0.478-0.974h-2.514
							c0.106,0.449,0.274,0.779,0.505,0.991C256.584,185.041,256.853,185.147,257.159,185.147z"/>
						<path style="fill:#407BFF;" d="M261.408,182.066h2.443c-0.095-0.425-0.248-0.743-0.461-0.956
							c-0.213-0.212-0.466-0.318-0.762-0.318c-0.295,0-0.537,0.109-0.726,0.328C261.715,181.338,261.55,181.653,261.408,182.066z"/>
						<path style="fill:#407BFF;" d="M246.645,183.093c0,7.293,5.912,13.205,13.205,13.205c7.293,0,13.205-5.912,13.205-13.205
							c0-7.293-5.912-13.205-13.205-13.205C252.557,169.888,246.645,175.8,246.645,183.093z M264.905,179.004
							c0.691,0.708,1.118,1.729,1.283,3.063h1.983v1.771h-1.929c-0.047,0.873-0.2,1.705-0.46,2.496
							c-0.259,0.791-0.578,1.429-0.956,1.912l-2.16-0.974c0.331-0.448,0.608-0.974,0.832-1.576c0.224-0.602,0.366-1.221,0.425-1.859
							h-2.957c-0.2,0.838-0.424,1.546-0.673,2.124c-0.247,0.578-0.611,1.063-1.088,1.452c-0.478,0.39-1.112,0.585-1.903,0.585
							c-0.979,0-1.82-0.357-2.523-1.071c-0.702-0.714-1.13-1.744-1.283-3.089h-1.965v-1.771h1.93c0.118-1.452,0.478-2.65,1.08-3.594
							l2.178,0.885c-0.508,0.886-0.815,1.788-0.921,2.709h3.01c0.189-0.826,0.405-1.525,0.646-2.098
							c0.242-0.572,0.602-1.053,1.081-1.443c0.478-0.389,1.106-0.584,1.885-0.584C263.385,177.941,264.214,178.295,264.905,179.004z
							"/>
					</g>
					<g style="opacity:0.3;">
						<path style="fill:#FFFFFF;" d="M257.159,185.147c0.296,0,0.538-0.112,0.726-0.336c0.189-0.224,0.348-0.549,0.478-0.974h-2.514
							c0.106,0.449,0.274,0.779,0.505,0.991C256.584,185.041,256.853,185.147,257.159,185.147z"/>
						<path style="fill:#FFFFFF;" d="M261.408,182.066h2.443c-0.095-0.425-0.248-0.743-0.461-0.956
							c-0.213-0.212-0.466-0.318-0.762-0.318c-0.295,0-0.537,0.109-0.726,0.328C261.715,181.338,261.55,181.653,261.408,182.066z"/>
						<path style="fill:#FFFFFF;" d="M246.645,183.093c0,7.293,5.912,13.205,13.205,13.205c7.293,0,13.205-5.912,13.205-13.205
							c0-7.293-5.912-13.205-13.205-13.205C252.557,169.888,246.645,175.8,246.645,183.093z M264.905,179.004
							c0.691,0.708,1.118,1.729,1.283,3.063h1.983v1.771h-1.929c-0.047,0.873-0.2,1.705-0.46,2.496
							c-0.259,0.791-0.578,1.429-0.956,1.912l-2.16-0.974c0.331-0.448,0.608-0.974,0.832-1.576c0.224-0.602,0.366-1.221,0.425-1.859
							h-2.957c-0.2,0.838-0.424,1.546-0.673,2.124c-0.247,0.578-0.611,1.063-1.088,1.452c-0.478,0.39-1.112,0.585-1.903,0.585
							c-0.979,0-1.82-0.357-2.523-1.071c-0.702-0.714-1.13-1.744-1.283-3.089h-1.965v-1.771h1.93c0.118-1.452,0.478-2.65,1.08-3.594
							l2.178,0.885c-0.508,0.886-0.815,1.788-0.921,2.709h3.01c0.189-0.826,0.405-1.525,0.646-2.098
							c0.242-0.572,0.602-1.053,1.081-1.443c0.478-0.389,1.106-0.584,1.885-0.584C263.385,177.941,264.214,178.295,264.905,179.004z
							"/>
					</g>
				</g>
			</g>
			<g>
				<g>
					
						<rect x="247.288" y="165.472" transform="matrix(0.3827 -0.9239 0.9239 0.3827 4.1587 384.2513)" style="fill:#407BFF;" width="84.656" height="47.084"/>
					
						<rect x="247.288" y="165.472" transform="matrix(0.3827 -0.9239 0.9239 0.3827 4.1587 384.2513)" style="opacity:0.3;fill:#FFFFFF;" width="84.656" height="47.084"/>
					<path style="opacity:0.8;fill:#FFFFFF;" d="M319.267,159.592l-29.814-12.349c-0.762,1.841-2.873,2.715-4.714,1.952
						l-26.728,64.526c1.841,0.762,2.715,2.873,1.952,4.714l29.814,12.35c0.763-1.841,2.873-2.715,4.714-1.953l26.728-64.526
						C319.379,163.543,318.505,161.433,319.267,159.592z"/>
				</g>
				<g>
					<g>
						<path style="fill:#407BFF;" d="M286.344,189.881c0.273,0.113,0.54,0.102,0.8-0.033c0.26-0.135,0.532-0.374,0.814-0.717
							l-2.323-0.962c-0.074,0.455-0.045,0.824,0.087,1.109C285.853,189.563,286.06,189.764,286.344,189.881z"/>
						<path style="fill:#407BFF;" d="M291.448,188.661l2.257,0.935c0.075-0.429,0.055-0.782-0.06-1.06
							c-0.116-0.278-0.309-0.472-0.582-0.585c-0.272-0.113-0.538-0.104-0.796,0.025C292.01,188.106,291.737,188.334,291.448,188.661
							z"/>
						<path style="fill:#407BFF;" d="M277.416,183.96c-2.791,6.738,0.409,14.462,7.146,17.253
							c6.738,2.791,14.462-0.409,17.253-7.146c2.791-6.738-0.409-14.462-7.146-17.253
							C287.931,174.023,280.207,177.223,277.416,183.96z M295.85,187.17c0.367,0.919,0.371,2.025,0.014,3.321l1.832,0.759
							l-0.678,1.636l-1.782-0.738c-0.378,0.789-0.838,1.499-1.381,2.13c-0.542,0.632-1.081,1.099-1.615,1.401l-1.623-1.726
							c0.477-0.287,0.935-0.667,1.372-1.137c0.437-0.47,0.806-0.988,1.104-1.555l-2.732-1.132c-0.506,0.697-0.984,1.266-1.435,1.705
							c-0.45,0.44-0.971,0.748-1.561,0.924c-0.591,0.177-1.251,0.115-1.982-0.188c-0.905-0.375-1.545-1.026-1.921-1.955
							c-0.375-0.928-0.377-2.044-0.003-3.345l-1.816-0.752l0.678-1.636l1.783,0.739c0.664-1.296,1.456-2.265,2.373-2.907
							l1.673,1.651c-0.808,0.624-1.437,1.34-1.888,2.15l2.781,1.152c0.49-0.691,0.958-1.255,1.4-1.691
							c0.443-0.436,0.959-0.742,1.551-0.919c0.59-0.177,1.246-0.116,1.965,0.182C294.853,185.607,295.483,186.251,295.85,187.17z"/>
					</g>
					<g style="opacity:0.3;">
						<path style="fill:#FFFFFF;" d="M286.344,189.881c0.273,0.113,0.54,0.102,0.8-0.033c0.26-0.135,0.532-0.374,0.814-0.717
							l-2.323-0.962c-0.074,0.455-0.045,0.824,0.087,1.109C285.853,189.563,286.06,189.764,286.344,189.881z"/>
						<path style="fill:#FFFFFF;" d="M291.448,188.661l2.257,0.935c0.075-0.429,0.055-0.782-0.06-1.06
							c-0.116-0.278-0.309-0.472-0.582-0.585c-0.272-0.113-0.538-0.104-0.796,0.025C292.01,188.106,291.737,188.334,291.448,188.661
							z"/>
						<path style="fill:#FFFFFF;" d="M277.416,183.96c-2.791,6.738,0.409,14.462,7.146,17.253
							c6.738,2.791,14.462-0.409,17.253-7.146c2.791-6.738-0.409-14.462-7.146-17.253
							C287.931,174.023,280.207,177.223,277.416,183.96z M295.85,187.17c0.367,0.919,0.371,2.025,0.014,3.321l1.832,0.759
							l-0.678,1.636l-1.782-0.738c-0.378,0.789-0.838,1.499-1.381,2.13c-0.542,0.632-1.081,1.099-1.615,1.401l-1.623-1.726
							c0.477-0.287,0.935-0.667,1.372-1.137c0.437-0.47,0.806-0.988,1.104-1.555l-2.732-1.132c-0.506,0.697-0.984,1.266-1.435,1.705
							c-0.45,0.44-0.971,0.748-1.561,0.924c-0.591,0.177-1.251,0.115-1.982-0.188c-0.905-0.375-1.545-1.026-1.921-1.955
							c-0.375-0.928-0.377-2.044-0.003-3.345l-1.816-0.752l0.678-1.636l1.783,0.739c0.664-1.296,1.456-2.265,2.373-2.907
							l1.673,1.651c-0.808,0.624-1.437,1.34-1.888,2.15l2.781,1.152c0.49-0.691,0.958-1.255,1.4-1.691
							c0.443-0.436,0.959-0.742,1.551-0.919c0.59-0.177,1.246-0.116,1.965,0.182C294.853,185.607,295.483,186.251,295.85,187.17z"/>
					</g>
				</g>
			</g>
			<g>
				<g>
					
						<rect x="272.522" y="182.333" transform="matrix(0.7071 -0.7071 0.7071 0.7071 -53.358 282.9317)" style="fill:#407BFF;" width="84.656" height="47.084"/>
					
						<rect x="272.522" y="182.333" transform="matrix(0.7071 -0.7071 0.7071 0.7071 -53.358 282.9317)" style="opacity:0.3;fill:#FFFFFF;" width="84.656" height="47.084"/>
					<path style="opacity:0.8;fill:#FFFFFF;" d="M353.504,190.04l-22.819-22.819c-1.409,1.409-3.693,1.409-5.102,0l-49.386,49.386
						c1.409,1.409,1.409,3.693,0,5.102l22.819,22.819c1.409-1.409,3.693-1.409,5.102,0l49.386-49.386
						C352.095,193.733,352.095,191.449,353.504,190.04z"/>
				</g>
				<g>
					<g>
						<path style="fill:#407BFF;" d="M311.495,205.424c0.209,0.209,0.46,0.301,0.751,0.276c0.292-0.025,0.635-0.142,1.026-0.351
							l-1.778-1.778c-0.242,0.392-0.357,0.745-0.344,1.057C311.163,204.943,311.278,205.207,311.495,205.424z"/>
						<path style="fill:#407BFF;" d="M316.678,206.251l1.728,1.728c0.233-0.368,0.35-0.701,0.351-1.002
							c-0.001-0.301-0.104-0.555-0.314-0.764c-0.208-0.208-0.457-0.302-0.745-0.282C317.409,205.952,317.07,206.058,316.678,206.251
							z"/>
						<path style="fill:#407BFF;" d="M305.513,196.537c-5.157,5.157-5.157,13.518,0,18.674c5.157,5.157,13.518,5.157,18.674,0
							c5.157-5.157,5.157-13.518,0-18.675C319.03,191.38,310.669,191.38,305.513,196.537z M321.316,206.557
							c-0.012,0.989-0.432,2.013-1.258,3.073l1.402,1.402l-1.252,1.252l-1.364-1.364c-0.651,0.584-1.348,1.064-2.091,1.439
							c-0.743,0.376-1.419,0.601-2.028,0.676l-0.839-2.216c0.551-0.083,1.119-0.258,1.703-0.526
							c0.584-0.267,1.122-0.605,1.615-1.014l-2.091-2.091c-0.734,0.451-1.393,0.793-1.978,1.026
							c-0.584,0.234-1.183,0.32-1.796,0.257c-0.613-0.062-1.2-0.373-1.759-0.933c-0.692-0.692-1.035-1.539-1.026-2.541
							c0.009-1.001,0.434-2.032,1.277-3.092l-1.39-1.39l1.252-1.252l1.365,1.365c1.11-0.943,2.212-1.536,3.305-1.778l0.914,2.166
							c-0.985,0.267-1.84,0.688-2.567,1.264l2.128,2.128c0.717-0.451,1.365-0.792,1.94-1.027c0.576-0.233,1.17-0.319,1.784-0.256
							c0.613,0.063,1.195,0.37,1.746,0.92C320.992,204.731,321.328,205.568,321.316,206.557z"/>
					</g>
					<g style="opacity:0.3;">
						<path style="fill:#FFFFFF;" d="M311.495,205.424c0.209,0.209,0.46,0.301,0.751,0.276c0.292-0.025,0.635-0.142,1.026-0.351
							l-1.778-1.778c-0.242,0.392-0.357,0.745-0.344,1.057C311.163,204.943,311.278,205.207,311.495,205.424z"/>
						<path style="fill:#FFFFFF;" d="M316.678,206.251l1.728,1.728c0.233-0.368,0.35-0.701,0.351-1.002
							c-0.001-0.301-0.104-0.555-0.314-0.764c-0.208-0.208-0.457-0.302-0.745-0.282C317.409,205.952,317.07,206.058,316.678,206.251
							z"/>
						<path style="fill:#FFFFFF;" d="M305.513,196.537c-5.157,5.157-5.157,13.518,0,18.674c5.157,5.157,13.518,5.157,18.674,0
							c5.157-5.157,5.157-13.518,0-18.675C319.03,191.38,310.669,191.38,305.513,196.537z M321.316,206.557
							c-0.012,0.989-0.432,2.013-1.258,3.073l1.402,1.402l-1.252,1.252l-1.364-1.364c-0.651,0.584-1.348,1.064-2.091,1.439
							c-0.743,0.376-1.419,0.601-2.028,0.676l-0.839-2.216c0.551-0.083,1.119-0.258,1.703-0.526
							c0.584-0.267,1.122-0.605,1.615-1.014l-2.091-2.091c-0.734,0.451-1.393,0.793-1.978,1.026
							c-0.584,0.234-1.183,0.32-1.796,0.257c-0.613-0.062-1.2-0.373-1.759-0.933c-0.692-0.692-1.035-1.539-1.026-2.541
							c0.009-1.001,0.434-2.032,1.277-3.092l-1.39-1.39l1.252-1.252l1.365,1.365c1.11-0.943,2.212-1.536,3.305-1.778l0.914,2.166
							c-0.985,0.267-1.84,0.688-2.567,1.264l2.128,2.128c0.717-0.451,1.365-0.792,1.94-1.027c0.576-0.233,1.17-0.319,1.784-0.256
							c0.613,0.063,1.195,0.37,1.746,0.92C320.992,204.731,321.328,205.568,321.316,206.557z"/>
					</g>
				</g>
			</g>
			<g>
				<g>
					
						<rect x="289.383" y="207.567" transform="matrix(0.9239 -0.3827 0.3827 0.9239 -63.1915 144.5322)" style="fill:#407BFF;" width="84.656" height="47.084"/>
					
						<rect x="289.383" y="207.567" transform="matrix(0.9239 -0.3827 0.3827 0.9239 -63.1915 144.5322)" style="opacity:0.3;fill:#FFFFFF;" width="84.656" height="47.084"/>
					<path style="opacity:0.8;fill:#FFFFFF;" d="M373.482,231.271l-12.35-29.814c-1.841,0.763-3.951-0.112-4.714-1.952
						l-64.526,26.728c0.763,1.841-0.112,3.951-1.952,4.714l12.349,29.814c1.841-0.763,3.951,0.112,4.714,1.953l64.526-26.728
						C370.767,234.144,371.641,232.034,373.482,231.271z"/>
				</g>
				<g>
					<g>
						<path style="fill:#407BFF;" d="M328.784,229.409c0.113,0.273,0.309,0.454,0.589,0.542c0.279,0.089,0.641,0.111,1.082,0.069
							l-0.962-2.323c-0.374,0.27-0.615,0.551-0.722,0.845C328.661,228.837,328.666,229.126,328.784,229.409z"/>
						<path style="fill:#407BFF;" d="M333.256,232.156l0.935,2.257c0.356-0.251,0.592-0.514,0.707-0.792
							c0.114-0.278,0.116-0.552,0.003-0.825c-0.113-0.272-0.306-0.454-0.581-0.546C334.046,232.16,333.692,232.128,333.256,232.156z
							"/>
						<path style="fill:#407BFF;" d="M326.657,218.909c-6.738,2.791-9.937,10.515-7.146,17.253
							c2.791,6.738,10.515,9.937,17.253,7.146c6.738-2.791,9.937-10.515,7.146-17.253
							C341.12,219.318,333.395,216.118,326.657,218.909z M337.423,234.214c-0.39,0.909-1.169,1.695-2.338,2.358l0.759,1.832
							l-1.636,0.678l-0.738-1.783c-0.825,0.291-1.652,0.467-2.482,0.53c-0.83,0.063-1.541,0.012-2.132-0.151l0.073-2.369
							c0.54,0.134,1.132,0.189,1.774,0.166c0.642-0.023,1.268-0.129,1.88-0.318l-1.132-2.732c-0.851,0.135-1.591,0.199-2.22,0.191
							c-0.629-0.007-1.215-0.158-1.758-0.45c-0.543-0.292-0.966-0.804-1.269-1.535c-0.375-0.905-0.367-1.818,0.024-2.741
							c0.391-0.922,1.179-1.711,2.363-2.368l-0.752-1.816l1.636-0.678l0.739,1.783c1.386-0.446,2.631-0.573,3.733-0.378l0.016,2.351
							c-1.012-0.13-1.964-0.069-2.855,0.186l1.152,2.781c0.835-0.142,1.564-0.21,2.186-0.206c0.621,0.005,1.203,0.153,1.746,0.446
							c0.542,0.292,0.963,0.799,1.261,1.518C337.823,232.403,337.814,233.304,337.423,234.214z"/>
					</g>
					<g style="opacity:0.3;">
						<path style="fill:#FFFFFF;" d="M328.784,229.409c0.113,0.273,0.309,0.454,0.589,0.542c0.279,0.089,0.641,0.111,1.082,0.069
							l-0.962-2.323c-0.374,0.27-0.615,0.551-0.722,0.845C328.661,228.837,328.666,229.126,328.784,229.409z"/>
						<path style="fill:#FFFFFF;" d="M333.256,232.156l0.935,2.257c0.356-0.251,0.592-0.514,0.707-0.792
							c0.114-0.278,0.116-0.552,0.003-0.825c-0.113-0.272-0.306-0.454-0.581-0.546C334.046,232.16,333.692,232.128,333.256,232.156z
							"/>
						<path style="fill:#FFFFFF;" d="M326.657,218.909c-6.738,2.791-9.937,10.515-7.146,17.253
							c2.791,6.738,10.515,9.937,17.253,7.146c6.738-2.791,9.937-10.515,7.146-17.253
							C341.12,219.318,333.395,216.118,326.657,218.909z M337.423,234.214c-0.39,0.909-1.169,1.695-2.338,2.358l0.759,1.832
							l-1.636,0.678l-0.738-1.783c-0.825,0.291-1.652,0.467-2.482,0.53c-0.83,0.063-1.541,0.012-2.132-0.151l0.073-2.369
							c0.54,0.134,1.132,0.189,1.774,0.166c0.642-0.023,1.268-0.129,1.88-0.318l-1.132-2.732c-0.851,0.135-1.591,0.199-2.22,0.191
							c-0.629-0.007-1.215-0.158-1.758-0.45c-0.543-0.292-0.966-0.804-1.269-1.535c-0.375-0.905-0.367-1.818,0.024-2.741
							c0.391-0.922,1.179-1.711,2.363-2.368l-0.752-1.816l1.636-0.678l0.739,1.783c1.386-0.446,2.631-0.573,3.733-0.378l0.016,2.351
							c-1.012-0.13-1.964-0.069-2.855,0.186l1.152,2.781c0.835-0.142,1.564-0.21,2.186-0.206c0.621,0.005,1.203,0.153,1.746,0.446
							c0.542,0.292,0.963,0.799,1.261,1.518C337.823,232.403,337.814,233.304,337.423,234.214z"/>
					</g>
				</g>
			</g>
			<g>
				<g>
					<rect x="295.303" y="237.333" style="fill:#407BFF;" width="84.656" height="47.084"/>
					<path style="opacity:0.8;fill:#FFFFFF;" d="M376.161,277.01v-32.271c-1.993,0-3.608-1.615-3.608-3.608H302.71
						c0,1.993-1.615,3.608-3.608,3.608v32.271c1.993,0,3.608,1.615,3.608,3.608h69.843
						C372.553,278.625,374.168,277.01,376.161,277.01z"/>
				</g>
				<g>
					<g>
						<path style="fill:#263238;" d="M335.578,258.184c0,0.295,0.112,0.538,0.336,0.726c0.224,0.189,0.549,0.348,0.974,0.478v-2.514
							c-0.449,0.106-0.779,0.274-0.991,0.505C335.684,257.608,335.578,257.877,335.578,258.184z"/>
						<path style="fill:#263238;" d="M338.658,262.433v2.443c0.425-0.095,0.744-0.248,0.956-0.46
							c0.212-0.213,0.318-0.466,0.318-0.762c0-0.295-0.109-0.537-0.328-0.726C339.387,262.739,339.072,262.574,338.658,262.433z"/>
						<path style="fill:#263238;" d="M337.632,247.67c-7.293,0-13.205,5.912-13.205,13.205c0,7.293,5.912,13.205,13.205,13.205
							c7.293,0,13.205-5.912,13.205-13.205C350.836,253.582,344.924,247.67,337.632,247.67z M341.721,265.929
							c-0.708,0.691-1.729,1.118-3.063,1.283v1.983h-1.771v-1.929c-0.873-0.047-1.705-0.2-2.496-0.461
							c-0.791-0.259-1.429-0.578-1.912-0.956l0.974-2.16c0.448,0.331,0.974,0.608,1.576,0.832c0.602,0.224,1.221,0.366,1.859,0.425
							v-2.957c-0.838-0.2-1.546-0.424-2.124-0.673c-0.578-0.248-1.063-0.611-1.452-1.089c-0.39-0.478-0.585-1.112-0.585-1.903
							c0-0.979,0.357-1.82,1.071-2.523c0.714-0.702,1.744-1.13,3.089-1.283v-1.965h1.771v1.93c1.452,0.118,2.65,0.478,3.594,1.08
							l-0.885,2.178c-0.886-0.508-1.788-0.815-2.709-0.921v3.01c0.826,0.189,1.525,0.405,2.098,0.646
							c0.572,0.242,1.053,0.602,1.443,1.081c0.389,0.478,0.584,1.107,0.584,1.885C342.783,264.409,342.43,265.238,341.721,265.929z"
							/>
					</g>
				</g>
			</g>
		</g>
	</g>
	<path style="fill:#407BFF;" d="M277.067,241.636L277.067,241.636c-0.621,0.015-1.113,0.531-1.098,1.152l0.041,1.696
		c-11.064-9.183-27.418-8.847-38.089,1.018c-0.463,0.428-0.462,1.163-0.016,1.609l0,0c0.433,0.433,1.123,0.431,1.573,0.016
		c9.835-9.064,24.882-9.372,35.076-0.929l-1.877,0.046c-0.621,0.015-1.113,0.531-1.098,1.152l0,0
		c0.015,0.621,0.531,1.113,1.152,1.098l5.623-0.137l-0.137-5.623C278.204,242.112,277.688,241.621,277.067,241.636z"/>
</g>
<g id="Device_1">
	<g>
		<g>
			<g>
				<path style="fill:#407BFF;" d="M218.34,354.557h-72.219c-8.124,0-14.711-6.586-14.711-14.711l0-172.613
					c0-8.124,6.586-14.711,14.711-14.711h72.219c8.124,0,14.711,6.586,14.711,14.711v172.613
					C233.051,347.971,226.465,354.557,218.34,354.557z"/>
				<path style="fill:#263238;" d="M214.59,354.557h-72.219c-8.124,0-14.711-6.586-14.711-14.711l0-172.613
					c0-8.124,6.586-14.711,14.711-14.711h72.219c8.124,0,14.711,6.586,14.711,14.711v172.613
					C229.301,347.971,222.715,354.557,214.59,354.557z"/>
				<g>
					<path style="fill:#407BFF;" d="M214.59,155.898h-18.771c-1.23,0-2.267,0.914-2.423,2.133l-0.075,0.588
						c-0.38,2.978-2.915,5.21-5.917,5.21h-17.846c-3.003,0-5.537-2.232-5.917-5.21l-0.075-0.588
						c-0.156-1.219-1.194-2.133-2.423-2.133h-18.771c-6.26,0-11.335,5.075-11.335,11.336v172.613c0,6.26,5.075,11.336,11.336,11.336
						h72.219c6.26,0,11.336-5.075,11.336-11.336V167.234C225.926,160.973,220.851,155.898,214.59,155.898z"/>
					<path style="opacity:0.8;fill:#FFFFFF;" d="M214.59,155.898h-18.771c-1.23,0-2.267,0.914-2.423,2.133l-0.075,0.588
						c-0.38,2.978-2.915,5.21-5.917,5.21h-17.846c-3.003,0-5.537-2.232-5.917-5.21l-0.075-0.588
						c-0.156-1.219-1.194-2.133-2.423-2.133h-18.771c-6.26,0-11.335,5.075-11.335,11.336v172.613c0,6.26,5.075,11.336,11.336,11.336
						h72.219c6.26,0,11.336-5.075,11.336-11.336V167.234C225.926,160.973,220.851,155.898,214.59,155.898z"/>
				</g>
				<g style="opacity:0.7;">
					<path d="M174.113,157.811c0,0.792-0.642,1.434-1.434,1.434c-0.792,0-1.434-0.642-1.434-1.434c0-0.792,0.642-1.434,1.434-1.434
						C173.471,156.376,174.113,157.018,174.113,157.811z"/>
					<path d="M184.283,156.376c-0.567,0-4.351,0-4.918,0c-0.792,0-1.434,0.642-1.434,1.434c0,0.792,0.642,1.434,1.434,1.434
						c0.492,0,4.426,0,4.918,0c0.792,0,1.434-0.642,1.434-1.434C185.717,157.018,185.075,156.376,184.283,156.376z"/>
				</g>
				<g>
					<rect x="138.896" y="162.283" style="fill:#407BFF;" width="1.519" height="1.519"/>
					<polygon style="fill:#407BFF;" points="141.934,162.283 141.934,163.801 143.452,163.801 143.452,162.283 143.453,160.764 
						141.934,160.764 					"/>
					<polygon style="fill:#407BFF;" points="144.971,159.245 144.971,160.764 144.971,162.283 144.971,163.801 146.49,163.801 
						146.49,162.283 146.49,160.764 146.49,159.245 					"/>
				</g>
				<path style="fill:#407BFF;" d="M210.282,159.346v1.114h-0.743l0,2.227h0.742l0,1.114h6.682v-4.455H210.282z M213.252,162.688
					h-2.227l0-2.227h2.228L213.252,162.688z"/>
			</g>
			<g>
				<g>
					<path style="fill:#263238;" d="M186.68,194.566h-2.25v-5.43c0-3.382-2.751-6.133-6.133-6.133c-3.382,0-6.133,2.751-6.133,6.133
						v5.43h-2.25v-5.43c0-4.622,3.761-8.383,8.383-8.383c4.622,0,8.383,3.761,8.383,8.383V194.566z"/>
				</g>
				<path style="fill:#263238;" d="M167.672,192.504v17.5h21.25v-17.5H167.672z M179.418,201.194v2.821
					c0,0.619-0.502,1.12-1.12,1.12l0,0c-0.619,0-1.12-0.502-1.12-1.12v-2.821c-0.681-0.438-1.092-1.258-0.916-2.161
					c0.159-0.816,0.833-1.479,1.651-1.626c1.317-0.237,2.463,0.769,2.463,2.042C180.374,200.183,179.992,200.824,179.418,201.194z"
					/>
			</g>
			<g>
				<path style="fill:#407BFF;" d="M193.108,272.08h-30.355c-2.18,0-3.948-1.767-3.948-3.948v-17.605
					c0-2.18,1.767-3.947,3.948-3.947h30.355c2.18,0,3.947,1.767,3.947,3.947v17.605C197.055,270.313,195.288,272.08,193.108,272.08z
					"/>
				<rect x="158.805" y="250.953" style="fill:#263238;" width="38.25" height="6.775"/>
				<g style="opacity:0.6;">
					<path style="fill:#FFFFFF;" d="M179.808,268.978h-15.755c-0.828,0-1.5-0.672-1.5-1.5l0,0c0-0.828,0.672-1.5,1.5-1.5h15.755
						c0.829,0,1.5,0.672,1.5,1.5l0,0C181.308,268.306,180.636,268.978,179.808,268.978z"/>
					<path style="fill:#FFFFFF;" d="M191.359,268.978h-1.352c-1.077,0-1.949-0.873-1.949-1.949v-1.352
						c0-1.077,0.873-1.949,1.949-1.949h1.352c1.077,0,1.949,0.873,1.949,1.949v1.352
						C193.308,268.105,192.435,268.978,191.359,268.978z"/>
				</g>
			</g>
			<path style="opacity:0.1;fill:#263238;" d="M204.837,319.85v-20.347h-8.647v-19.505h5.086c2.046,0,3.711-1.665,3.711-3.71
				v-33.915c0-2.046-1.665-3.71-3.711-3.71h-45.959c-2.046,0-3.711,1.665-3.711,3.71v33.915c0,2.046,1.665,3.71,3.711,3.71h5.086
				v15.568h-8.647v13.41c-0.28,0.192-0.464,0.513-0.464,0.878c0,0.588,0.476,1.064,1.064,1.064c0.587,0,1.064-0.476,1.064-1.064
				c0-0.365-0.184-0.686-0.464-0.878v-12.21h8.647v-8.813h7.447v38.085c-0.28,0.192-0.464,0.513-0.464,0.878
				c0,0.588,0.476,1.064,1.064,1.064c0.588,0,1.064-0.476,1.064-1.064c0-0.365-0.184-0.686-0.464-0.878v-39.285h-8.647v-6.755
				h16.093v62.915c-0.28,0.192-0.464,0.513-0.464,0.878c0,0.588,0.476,1.064,1.064,1.064c0.588,0,1.064-0.476,1.064-1.064
				c0-0.365-0.184-0.686-0.464-0.878v-34.335h7.447v18.96c-0.28,0.192-0.464,0.513-0.464,0.878c0,0.588,0.476,1.064,1.064,1.064
				c0.588,0,1.064-0.476,1.064-1.064c0-0.365-0.184-0.686-0.464-0.878v-20.159h-8.647v-27.38h16.094v6.755h-8.647v7.753
				c-0.28,0.192-0.464,0.513-0.464,0.878c0,0.588,0.476,1.064,1.064,1.064c0.588,0,1.064-0.476,1.064-1.064
				c0-0.365-0.184-0.686-0.464-0.878v-6.553h7.447v22.689c-0.28,0.192-0.464,0.513-0.464,0.878c0,0.587,0.476,1.064,1.064,1.064
				c0.587,0,1.064-0.476,1.064-1.064c0-0.365-0.184-0.686-0.464-0.878v-9.939h7.447v19.147c-0.28,0.192-0.464,0.513-0.464,0.878
				c0,0.588,0.476,1.064,1.064,1.064c0.588,0,1.064-0.476,1.064-1.064C205.301,320.363,205.117,320.042,204.837,319.85z
				 M153.107,276.288v-33.915c0-1.219,0.992-2.21,2.211-2.21h45.959c1.219,0,2.211,0.992,2.211,2.21v33.915
				c0,1.219-0.992,2.21-2.211,2.21h-45.959C154.099,278.498,153.107,277.506,153.107,276.288z"/>
			<g>
				<path style="fill:#263238;" d="M140.138,227.394c-0.415-0.126-0.744-0.294-0.986-0.503l0.372-0.833
					c0.236,0.187,0.526,0.34,0.87,0.458c0.344,0.118,0.689,0.177,1.036,0.177c0.429,0,0.749-0.069,0.961-0.206
					c0.212-0.138,0.318-0.319,0.318-0.544c0-0.165-0.06-0.301-0.178-0.409c-0.118-0.107-0.268-0.191-0.45-0.251
					c-0.181-0.061-0.429-0.129-0.742-0.206c-0.44-0.104-0.796-0.209-1.068-0.313c-0.272-0.105-0.506-0.269-0.701-0.491
					c-0.195-0.223-0.293-0.524-0.293-0.903c0-0.319,0.086-0.609,0.26-0.87c0.173-0.261,0.435-0.469,0.784-0.623
					c0.349-0.154,0.777-0.231,1.283-0.231c0.352,0,0.699,0.044,1.04,0.132c0.341,0.088,0.635,0.214,0.883,0.379l-0.338,0.833
					c-0.253-0.148-0.517-0.261-0.792-0.338c-0.275-0.077-0.542-0.115-0.8-0.115c-0.424,0-0.739,0.071-0.945,0.214
					c-0.206,0.143-0.31,0.333-0.31,0.569c0,0.165,0.059,0.3,0.178,0.404c0.118,0.104,0.268,0.187,0.449,0.247
					c0.182,0.061,0.429,0.129,0.743,0.206c0.429,0.099,0.781,0.202,1.056,0.31c0.275,0.107,0.51,0.27,0.705,0.491
					c0.195,0.22,0.293,0.517,0.293,0.891c0,0.319-0.087,0.607-0.26,0.866c-0.173,0.258-0.436,0.465-0.788,0.619
					c-0.352,0.154-0.781,0.231-1.287,0.231C140.983,227.583,140.553,227.52,140.138,227.394z"/>
				<path style="fill:#263238;" d="M149.16,226.602v0.899h-4.332v-5.775h4.216v0.899h-3.143v1.502h2.789v0.882h-2.789v1.592H149.16z
					"/>
				<path style="fill:#263238;" d="M151.424,227.2c-0.47-0.255-0.839-0.609-1.105-1.06c-0.267-0.451-0.4-0.959-0.4-1.526
					c0-0.566,0.135-1.075,0.404-1.526c0.27-0.451,0.64-0.805,1.11-1.06c0.47-0.256,0.997-0.384,1.58-0.384
					c0.473,0,0.905,0.083,1.295,0.247c0.391,0.165,0.721,0.404,0.99,0.718l-0.693,0.651c-0.418-0.451-0.932-0.676-1.542-0.676
					c-0.396,0-0.751,0.086-1.064,0.26c-0.313,0.173-0.558,0.414-0.734,0.722c-0.176,0.308-0.264,0.657-0.264,1.047
					c0,0.391,0.088,0.74,0.264,1.048c0.176,0.308,0.421,0.549,0.734,0.722c0.313,0.173,0.668,0.26,1.064,0.26
					c0.61,0,1.124-0.228,1.542-0.685l0.693,0.66c-0.27,0.314-0.601,0.553-0.994,0.718c-0.393,0.165-0.827,0.247-1.299,0.247
					C152.42,227.583,151.894,227.456,151.424,227.2z"/>
				<path style="fill:#263238;" d="M156.906,226.911c-0.445-0.448-0.668-1.09-0.668-1.926v-3.259h1.072v3.217
					c0,1.133,0.49,1.7,1.469,1.7c0.974,0,1.46-0.566,1.46-1.7v-3.217h1.056v3.259c0,0.836-0.221,1.478-0.664,1.926
					c-0.443,0.448-1.063,0.672-1.86,0.672S157.352,227.359,156.906,226.911z"/>
				<path style="fill:#263238;" d="M166.575,227.501l-1.18-1.691c-0.049,0.006-0.124,0.008-0.223,0.008h-1.303v1.683h-1.073v-5.775
					h2.376c0.5,0,0.936,0.082,1.308,0.247c0.372,0.165,0.656,0.401,0.854,0.71c0.198,0.308,0.297,0.674,0.297,1.097
					c0,0.435-0.106,0.809-0.317,1.122c-0.212,0.313-0.516,0.547-0.912,0.701l1.328,1.898H166.575z M166.187,222.931
					c-0.242-0.198-0.597-0.297-1.064-0.297h-1.254v2.302h1.254c0.467,0,0.822-0.1,1.064-0.301c0.242-0.201,0.363-0.485,0.363-0.854
					C166.55,223.412,166.429,223.128,166.187,222.931z"/>
				<path style="fill:#263238;" d="M173.159,226.602v0.899h-4.332v-5.775h4.216v0.899H169.9v1.502h2.789v0.882H169.9v1.592H173.159z
					"/>
				<path style="fill:#263238;" d="M180.315,221.974c0.372,0.165,0.656,0.401,0.854,0.71c0.198,0.308,0.297,0.674,0.297,1.097
					c0,0.418-0.099,0.782-0.297,1.093c-0.198,0.311-0.482,0.548-0.854,0.713c-0.371,0.165-0.807,0.248-1.308,0.248h-1.303v1.667
					h-1.073v-5.775h2.376C179.508,221.726,179.944,221.809,180.315,221.974z M180.022,224.63c0.242-0.198,0.363-0.481,0.363-0.85
					c0-0.369-0.121-0.652-0.363-0.85c-0.242-0.198-0.597-0.297-1.064-0.297h-1.254v2.294h1.254
					C179.425,224.927,179.78,224.828,180.022,224.63z"/>
				<path style="fill:#263238;" d="M185.995,226.165h-2.888l-0.569,1.336h-1.105l2.599-5.775h1.056l2.607,5.775h-1.122
					L185.995,226.165z M185.64,225.323l-1.089-2.524l-1.081,2.524H185.64z"/>
				<path style="fill:#263238;" d="M190.574,225.463v2.038h-1.073v-2.021l-2.269-3.753h1.146l1.691,2.813l1.708-2.813h1.056
					L190.574,225.463z"/>
				<path style="fill:#263238;" d="M198.758,227.501l-0.008-3.828l-1.898,3.168h-0.479l-1.897-3.118v3.778h-1.023v-5.775h0.883
					l2.294,3.828l2.252-3.828h0.883l0.008,5.775H198.758z"/>
				<path style="fill:#263238;" d="M205.663,226.602v0.899h-4.332v-5.775h4.216v0.899h-3.143v1.502h2.789v0.882h-2.789v1.592
					H205.663z"/>
				<path style="fill:#263238;" d="M211.991,221.726v5.775h-0.883l-3.185-3.911v3.911h-1.064v-5.775h0.883l3.185,3.911v-3.911
					H211.991z"/>
				<path style="fill:#263238;" d="M214.713,222.633h-1.914v-0.907h4.9v0.907h-1.914v4.868h-1.073V222.633z"/>
			</g>
		</g>
		<g>
			<g>
				<path style="fill:#407BFF;" d="M198.023,131.219c-0.829,0-1.5-0.671-1.5-1.5c0-2.85-7.619-9.554-18.042-9.554
					c-10.042,0-18.043,6.861-18.043,9.554c0,0.829-0.671,1.5-1.5,1.5c-0.829,0-1.5-0.671-1.5-1.5c0-4.843,9.63-12.554,21.043-12.554
					c11.616,0,21.042,7.597,21.042,12.554C199.523,130.548,198.852,131.219,198.023,131.219z"/>
			</g>
			<g>
				<path style="fill:#407BFF;" d="M192.491,138.799c-0.829,0-1.5-0.671-1.5-1.5c0-1.863-5.415-6.424-12.51-6.424
					c-7.178,0-12.509,4.919-12.509,6.424c0,0.829-0.671,1.5-1.5,1.5s-1.5-0.671-1.5-1.5c0-3.636,7.098-9.424,15.509-9.424
					c8.207,0,15.51,5.27,15.51,9.424C193.991,138.127,193.319,138.799,192.491,138.799z"/>
			</g>
			<g>
				<path style="fill:#407BFF;" d="M170.002,146.407c-0.829,0-1.498-0.7-1.498-1.528c0-2.749,4.838-6.295,9.977-6.295
					c5.373,0,9.977,3.461,9.977,6.295c0,0.829-0.671,1.5-1.5,1.5c-0.829,0-1.5-0.671-1.5-1.5c-0.115-0.833-3.014-3.295-6.977-3.295
					c-3.961,0-6.803,2.544-6.981,3.351C171.5,145.763,170.83,146.407,170.002,146.407z"/>
			</g>
		</g>
	</g>
</g>
<g id="Character">
	<g>
		<path style="fill:#407BFF;" d="M106.186,258.26c0,0-8.244,35.034-8.741,78.839c-0.497,43.805,4.271,66.676,4.271,66.676h8.94
			c0,0,3.178-36.823,2.575-55.946c-0.056-1.773-0.144-3.374-0.271-4.754c-0.438-4.786-0.236-9.602,0.678-14.32l0,0l4.442-22.92l0,0
			c0.698-3.6,1.788-7.106,3.218-10.483c0.128-0.302,0.259-0.619,0.393-0.95c2.852-7.046,6.913-20.601,4.226-36.141H106.186z"/>
		<path style="opacity:0.1;" d="M121.692,294.401c1.611-3.98,3.606-10.038,4.554-17.355c-0.955-4.132-2.297-13.537-4.118-9.529
			c-3.388,7.46-3.13,27.281-2.781,33.231c0.554-1.83,1.203-3.632,1.951-5.397C121.427,295.049,121.558,294.732,121.692,294.401z"/>
		<path style="fill:#263238;" d="M104.133,404.268l6.661,0.034c0.29,0.001,0.541,0.202,0.604,0.485l1.376,6.264
			c0.126,0.555-0.221,1.107-0.776,1.233c-0.071,0.016-0.144,0.025-0.217,0.026c-2.774-0.055-5.241-0.212-8.695-0.216
			c-4.076-0.008-3.043,0.482-7.835,0.539c-2.887,0.031-3.408-3.252-2.184-3.41c5.605-0.692,7.226-2.399,9.392-4.4
			C102.93,404.44,103.526,404.242,104.133,404.268z"/>
		<polygon style="fill:#407BFF;" points="100.184,401.448 101.227,405.024 111.731,405.024 112.103,401.448 		"/>
		<polygon style="opacity:0.5;fill:#FFFFFF;" points="100.184,401.448 101.227,405.024 111.731,405.024 112.103,401.448 		"/>
		<path style="fill:#407BFF;" d="M120.49,258.26c0,0,1.303,62.747,17.637,145.59l9.182-0.199c0,0-1.687-46.543-4.263-65.6
			c-0.097-0.719-0.196-1.397-0.295-2.031c-0.749-4.759-1.079-9.575-0.889-14.389l0.016-0.421l1.266-32.089
			c0,0,0.391-13.945-2.788-30.862H120.49z"/>
		<path style="fill:#263238;" d="M140.29,404.268l6.661,0.034c0.29,0.001,0.541,0.202,0.604,0.485l1.377,6.264
			c0.126,0.555-0.221,1.107-0.776,1.233c-0.071,0.016-0.144,0.025-0.217,0.026c-2.774-0.055-5.241-0.212-8.695-0.216
			c-4.076-0.008-3.043,0.482-7.835,0.539c-2.887,0.031-3.408-3.252-2.184-3.41c5.605-0.692,7.226-2.399,9.392-4.4
			C139.087,404.44,139.683,404.242,140.29,404.268z"/>
		<g>
			<path style="fill:#407BFF;" d="M100.591,211.634h-4.107c-0.864,0-1.626-0.701-1.702-1.565l-1.036-11.842
				c-0.076-0.864,0.564-1.565,1.428-1.565h4.107c0.864,0,1.626,0.701,1.702,1.565l1.036,11.842
				C102.095,210.933,101.455,211.634,100.591,211.634z"/>
			<path style="fill:#263238;" d="M100.094,211.634h-4.107c-0.864,0-1.626-0.701-1.702-1.565l-1.036-11.842
				c-0.076-0.864,0.564-1.565,1.428-1.565h4.107c0.864,0,1.626,0.701,1.702,1.565l1.036,11.842
				C101.598,210.933,100.958,211.634,100.094,211.634z"/>
			<path style="opacity:0.3;fill:#FFFFFF;" d="M95.854,198.319c0.044,0.5-0.326,0.906-0.826,0.906c-0.5,0-0.941-0.406-0.985-0.906
				c-0.044-0.5,0.326-0.906,0.826-0.906C95.37,197.413,95.811,197.819,95.854,198.319z"/>
			<path style="opacity:0.3;" d="M95.356,198.319c0.02,0.225-0.147,0.407-0.371,0.407s-0.423-0.182-0.443-0.407
				c-0.02-0.225,0.147-0.407,0.371-0.407C95.138,197.912,95.336,198.094,95.356,198.319z"/>
		</g>
		<path style="fill:#263238;" d="M109.416,207.547c-0.102-0.549-0.779-0.749-1.157-0.339c-1.602,1.742-5.056,5.942-8.132,12.68
			c-4.172,9.138-16.688,13.31-12.913,19.072c3.774,5.761,19.072-10.529,21.952-14.999
			C111.502,220.335,110.049,210.961,109.416,207.547z"/>
		<path style="opacity:0.6;" d="M95.408,237.683c2.283-5.332,1.431-10.32,0.917-12.31c-1.945,2.107-4.122,3.918-5.934,5.595
			l-2.755,5.335c0,0-0.017,1.593,0.208,3.325C89.484,240.889,92.314,239.805,95.408,237.683z"/>
		<path style="opacity:0.6;" d="M109.975,211.059l-2.164-0.675c0,0-3.236,6.72-4.958,20.912c2.913-2.924,5.333-5.814,6.313-7.336
			C110.916,221.245,110.54,215.305,109.975,211.059z"/>
		<path style="fill:#407BFF;" d="M108.495,207.855c-1.281,3.546-2.756,13.745-2.735,37.163c0.004,5.03-0.766,16.986-0.766,16.986
			h36.653l5.187-53.886c0.095-0.986-0.68-1.839-1.671-1.839h-34.417C109.737,206.279,108.839,206.905,108.495,207.855z"/>
		<path style="opacity:0.5;fill:#FFFFFF;" d="M108.495,207.855c-1.281,3.546-2.756,13.745-2.735,37.163
			c0.004,5.03-0.766,16.986-0.766,16.986h36.653l5.187-53.886c0.095-0.986-0.68-1.839-1.671-1.839h-34.417
			C109.737,206.279,108.839,206.905,108.495,207.855z"/>
		<path style="fill:#263238;" d="M126.461,204.817c-1.101,0.128-2.205,0.165-3.31,0.07c-0.319-0.027-0.677-0.047-1.059-0.051
			c-2.982-0.03-7.476,0.92-6.669,7.104c0,0,1.453-1.637,3.315-0.39c0,0,1.564,5.307,2.719,6.872c0,0,6.295-4.172,8.195-5.736
			c1.9-1.564,4.619,1.118,4.619,1.118s5.971-9.793-6.148-9.131C127.604,204.701,127.05,204.749,126.461,204.817z"/>
		<path style="fill:#EBB376;" d="M125.79,205.571c-3.282,0.372-10.366-2.123-4.257,12.181
			C121.533,217.752,144.851,203.411,125.79,205.571z"/>
		<path style="opacity:0.1;" d="M144.478,212.686l-2.083,1.776c0,0-1.78,10.592,1.791,21.17l0,0l1.947-20.226L144.478,212.686z"/>
		<path style="opacity:0.1;" d="M144.042,207.421c0,0-3.587,2.334-3.239,11.672C140.803,219.093,137.199,210.352,144.042,207.421z"
			/>
		<path style="opacity:0.1;" d="M110.159,207.62c0,0-3.477,7.202-2.384,19.916L110.159,207.62z"/>
		<path style="fill:#EBB376;" d="M129.59,191.219c0,0,0.137,8.336,3.117,15.771c0,0-6.357,5.2-10.926,1.003
			c0,0,1.697-3.43,0.132-7.569C120.348,196.286,129.59,191.219,129.59,191.219z"/>
		<path style="opacity:0.1;" d="M129.57,194.809h-2.583l-5.212,4.314c-0.046,0.439-0.023,0.875,0.138,1.3
			c0.616,1.63,0.723,3.145,0.631,4.389C129.94,203.898,129.57,194.809,129.57,194.809z"/>
		<g>
			<path style="fill:#263238;" d="M112.15,180.702c-3.576,2.315-2.516,8.127,1.212,10.517
				C114.424,184.561,112.15,180.702,112.15,180.702z"/>
			<path style="opacity:0.2;fill:#FFFFFF;" d="M112.15,180.702c-3.576,2.315-2.516,8.127,1.212,10.517
				C114.424,184.561,112.15,180.702,112.15,180.702z"/>
		</g>
		<path style="fill:#EBB376;" d="M128.547,184.522c1.342,6.126,2.443,9.63,0.32,13.68c-2.043,4.009-6.948,5.603-10.958,3.561
			c-1.475-0.752-2.687-1.935-3.473-3.393c-2.819-4.981-4.545-14.161,0.59-18.427c3.421-3.003,8.629-2.665,11.632,0.756
			C127.612,181.787,128.264,183.105,128.547,184.522z"/>
		<path style="fill:#263238;" d="M120.014,189.116c0.144,0.486-0.007,0.962-0.331,1.038c-0.325,0.076-0.682-0.211-0.826-0.697
			c-0.144-0.486,0.003-0.97,0.339-1.042C119.531,188.344,119.877,188.627,120.014,189.116z"/>
		<path style="fill:#263238;" d="M114.548,190.882c0.144,0.486,0,0.959-0.331,1.038c-0.332,0.079-0.682-0.211-0.829-0.704
			c-0.147-0.493,0.007-0.962,0.338-1.042C114.058,190.095,114.408,190.386,114.548,190.882z"/>
		<path style="fill:#D58745;" d="M116.358,190.563c-0.152,1.686-0.526,3.344-1.112,4.931c1.081,0.531,2.442-0.286,2.442-0.286
			L116.358,190.563z"/>
		<path style="fill:#263238;" d="M121.197,186.783c0.047-0.01,0.092-0.031,0.129-0.062c0.1-0.128,0.078-0.312-0.05-0.413
			c-0.003-0.003-0.007-0.005-0.01-0.008c-0.756-0.596-1.76-0.777-2.676-0.482c-0.152,0.058-0.228,0.227-0.17,0.379
			c0.001,0.003,0.002,0.006,0.004,0.009c0.057,0.152,0.227,0.228,0.379,0.17c0.003-0.001,0.006-0.002,0.009-0.003
			c0.714-0.223,1.491-0.086,2.085,0.368C120.979,186.814,121.097,186.83,121.197,186.783z"/>
		<path style="fill:#263238;" d="M111.66,189.736c0.09-0.04,0.153-0.123,0.168-0.221c0.107-0.768,0.566-1.442,1.241-1.824
			c0.137-0.095,0.17-0.283,0.075-0.42c-0.074-0.106-0.208-0.154-0.332-0.117l0,0c-0.847,0.465-1.426,1.302-1.561,2.259
			c-0.029,0.16,0.078,0.312,0.237,0.341c0.002,0,0.003,0,0.005,0.001C111.549,189.766,111.608,189.76,111.66,189.736z"/>
		<path style="fill:#263238;" d="M120.133,197.351c-0.278,0.082-0.562,0.139-0.85,0.172c-0.092,0.016-0.18-0.047-0.196-0.139
			c0-0.002-0.001-0.004-0.001-0.006c-0.006-0.095,0.064-0.179,0.159-0.19c1.472-0.157,2.783-1.004,3.531-2.282
			c0.042-0.086,0.145-0.122,0.231-0.08c0.086,0.042,0.121,0.145,0.08,0.23C122.453,196.189,121.387,197.017,120.133,197.351z"/>
		<path style="fill:#263238;" d="M129.573,177.076c0,0,6.9,2.081,0.485,19.431l-1.556-6.747c0,0-3.576,1.023-4.47-8.065
			L129.573,177.076z"/>
		<path style="opacity:0.2;fill:#FFFFFF;" d="M129.573,177.076c0,0,6.9,2.081,0.485,19.431l-1.556-6.747c0,0-3.576,1.023-4.47-8.065
			L129.573,177.076z"/>
		<path style="fill:#EBB376;" d="M132.251,188.869c-0.026,1.401-0.581,2.741-1.553,3.751c-1.285,1.309-2.758,0.323-3.089-1.402
			c-0.298-1.565,0.014-4.116,1.639-4.769C130.872,185.797,132.268,187.136,132.251,188.869z"/>
		<path style="fill:#263238;" d="M123.601,183.401c-3.898,3.046-13.253,2.389-15.937-1.341c-2.932-4.076,1.472-7.527,5.454-8.77
			c1.105-0.345,2.152,0.425,2.429,1.55c0.048,0.196,0.146,0.358,0.287,0.459c0,0,1.127-1.028,2.732-1.923
			c1.374-0.766,2.992-0.329,4.154,0.731c0.462,0.422,1.594,0.512,3.865-0.255c4.708-1.59,5.345,3.231,3.214,4.523
			C128.092,179.409,125.173,182.173,123.601,183.401z"/>
		<path style="fill:#EBB376;" d="M144.464,258.26l-4.172,5.96c0,0-2.596-0.634-3.477-0.596c-0.59,0.025-2.285,0.596-2.285,0.596
			l6.854,6.754l7.082-9.834L144.464,258.26z"/>
		<path style="fill:#263238;" d="M145.893,207.117c0.545-0.464,1.391-0.27,1.695,0.379c2.533,5.42,12.497,27.475,11.195,36.33
			c-1.49,10.132-12.367,21.903-12.367,21.903l-4.917-4.172c0,0,8.046-13.552,8.046-20.562c0-4.619-2.777-9.823-4.483-14.453
			C143.391,222.012,139.536,212.53,145.893,207.117z"/>
		<path style="fill:#EBB376;" d="M90.731,225.621l3.636-6.724c0,0-1.956-2.821-2.213-3.915c-0.347-1.477,0.323-6.06,0.323-6.06
			c0.041-0.774,0.64-1.403,1.412-1.483l2.858-0.295c0.872-0.09,1.649,0.549,1.73,1.421c0,0,1.136,6.675,0.826,8.885
			c-0.399,2.849-4.171,10.724-4.171,10.724L90.731,225.621z"/>
		<path style="fill:#263238;" d="M91.882,222.037l5.563,2.023c0,0-3.775,18.503-9.437,16.118
			C82.346,237.794,91.882,222.037,91.882,222.037z"/>
		<polygon style="fill:#407BFF;" points="136.432,401.391 137.475,404.967 147.98,404.967 148.352,401.391 		"/>
		<polygon style="opacity:0.5;fill:#FFFFFF;" points="136.432,401.391 137.475,404.967 147.98,404.967 148.352,401.391 		"/>
	</g>
</g>
</svg>
