<?xml version="1.0" encoding="utf-8"?>
<!-- Generator: Adobe Illustrator 27.5.0, SVG Export Plug-In . SVG Version: 6.00 Build 0)  -->
<svg version="1.1" xmlns="http://www.w3.org/2000/svg" xmlns:xlink="http://www.w3.org/1999/xlink" x="0px" y="0px"
	 viewBox="0 0 500 500" style="enable-background:new 0 0 500 500;" xml:space="preserve">
<g id="Background_Complete">
	<g>
		<rect y="382.398" style="fill:#EBEBEB;" width="500" height="0.25"/>
		<rect x="416.779" y="398.494" style="fill:#EBEBEB;" width="33.122" height="0.25"/>
		<rect x="322.527" y="401.208" style="fill:#EBEBEB;" width="8.693" height="0.25"/>
		<rect x="396.586" y="389.208" style="fill:#EBEBEB;" width="19.192" height="0.25"/>
		<rect x="52.459" y="390.888" style="fill:#EBEBEB;" width="43.193" height="0.25"/>
		<rect x="104.556" y="390.888" style="fill:#EBEBEB;" width="6.333" height="0.25"/>
		<rect x="131.471" y="395.111" style="fill:#EBEBEB;" width="93.676" height="0.25"/>
		<path style="fill:#EBEBEB;" d="M237.014,337.8H43.915c-3.147,0-5.708-2.561-5.708-5.708V60.66c0-3.147,2.561-5.708,5.708-5.708
			h193.099c3.146,0,5.707,2.561,5.707,5.708v271.432C242.721,335.239,240.16,337.8,237.014,337.8z M43.915,55.203
			c-3.01,0-5.458,2.448-5.458,5.458v271.432c0,3.01,2.448,5.458,5.458,5.458h193.099c3.009,0,5.457-2.448,5.457-5.458V60.66
			c0-3.009-2.448-5.458-5.457-5.458H43.915z"/>
		<path style="fill:#EBEBEB;" d="M453.31,337.8H260.212c-3.147,0-5.707-2.561-5.707-5.708V60.66c0-3.147,2.561-5.708,5.707-5.708
			H453.31c3.148,0,5.708,2.561,5.708,5.708v271.432C459.019,335.239,456.458,337.8,453.31,337.8z M260.212,55.203
			c-3.009,0-5.457,2.448-5.457,5.458v271.432c0,3.01,2.448,5.458,5.457,5.458H453.31c3.01,0,5.458-2.448,5.458-5.458V60.66
			c0-3.009-2.448-5.458-5.458-5.458H260.212z"/>
	</g>
	<g>
		<g>
			<g>
				<path style="fill:#F5F5F5;" d="M318.667,286.124L318.667,286.124H432.99l0,0c0,4.197-3.304,7.643-7.497,7.832
					c-12.286,0.554-31.186,2.498-37.18,9.296c-11.173,12.672-10.09,57.184,3.292,67.494c4.196,3.232,16.429,9.65,16.429,9.65
					h-64.413c0,0,11.431-6.548,15.402-9.65c13.306-10.394,13.694-54.881,2.469-67.494c-5.759-6.472-23.475-8.562-35.361-9.222
					C321.94,293.798,318.667,290.323,318.667,286.124z"/>
				<path style="fill:#E6E6E6;" d="M418.828,294.371c-11.612,0.931-25.528,3.226-30.515,8.881c-1.476,1.674-2.731,3.914-3.779,6.547
					h-19.201c-1.076-2.635-2.353-4.876-3.839-6.547c-5.005-5.624-19.037-7.939-30.429-8.881H418.828z"/>
			</g>
			<g>
				<polygon style="fill:#EBEBEB;" points="367.365,286.179 368.92,268.41 346.384,268.41 344.83,286.179 				"/>
				<polygon style="fill:#E0E0E0;" points="367.365,286.179 368.92,268.41 370.133,268.41 368.578,286.179 				"/>
				<polygon style="fill:#F0F0F0;" points="365.226,284.367 366.464,270.221 348.523,270.221 347.286,284.367 				"/>
				<polygon style="fill:#FAFAFA;" points="363.851,283.203 364.885,271.386 349.898,271.386 348.865,283.203 				"/>
			</g>
			<g>
				<g>
					<polygon style="fill:#E6E6E6;" points="374.675,286.124 397.313,286.124 394.801,257.415 372.163,257.415 					"/>
					<polygon style="fill:#E0E0E0;" points="374.675,286.124 373.594,286.124 371.082,257.415 372.163,257.415 					"/>
					<polygon style="fill:#F0F0F0;" points="376.727,283.197 394.749,283.197 392.749,260.342 374.727,260.342 					"/>
					<polygon style="fill:#FAFAFA;" points="378.046,281.315 393.1,281.315 391.43,262.224 376.375,262.224 					"/>
				</g>
				<path style="fill:#EBEBEB;" d="M385.65,270.813L385.65,270.813c-1.023,1.023-2.681,1.023-3.704,0l0,0
					c-1.023-1.023-1.023-2.681,0-3.704l0,0c1.023-1.023,2.681-1.023,3.704,0l0,0C386.672,268.132,386.672,269.79,385.65,270.813z"/>
				<path style="fill:#F0F0F0;" d="M384.541,274.021L384.541,274.021c0.749-0.749,1.963-0.749,2.712,0l0,0
					c1.208,1.208,0.352,3.273-1.356,3.273l0,0C384.189,277.294,383.333,275.229,384.541,274.021z"/>
			</g>
		</g>
		<g>
			<path style="fill:#F5F5F5;" d="M192.686,374.525h22.048l-11.591-94.402c-0.491-3.996-4.128-7.236-8.124-7.236h-7.577H98.814
				l14.103,101.638H192.686z"/>
			<path style="fill:#F0F0F0;" d="M122.758,374.525H100.71l-11.591-94.402c-0.491-3.996,2.351-7.236,6.347-7.236h7.577
				c3.996,0,7.633,3.24,8.124,7.236L122.758,374.525z"/>
			<g>
				<path style="fill:#E6E6E6;" d="M130.881,374.413l-3.995-45.66c-0.178-2.039-1.754-3.679-3.785-3.938l-1.643-0.21
					c-2.724-0.348-4.838-2.547-5.077-5.282l-0.729-8.325c-0.299-3.412,2.391-6.347,5.816-6.347H84.622
					c-3.425,0-6.115,2.935-5.816,6.347l0.729,8.325c0.239,2.736,2.353,4.935,5.077,5.282l1.643,0.21
					c2.031,0.259,3.606,1.899,3.785,3.938l3.995,45.66c0.291,3.329,3.079,5.883,6.42,5.883h36.848
					C133.96,380.296,131.172,377.742,130.881,374.413z"/>
			</g>
			<path style="fill:#E6E6E6;" d="M232.283,317.323c0.627-7.17,6.631-12.672,13.829-12.672h-17.829h-14.25
				c-7.198,0-13.202,5.502-13.829,12.672l-3.167,36.195h32.079L232.283,317.323z"/>
			<path style="fill:#F0F0F0;" d="M260.362,304.651h-14.25c-7.198,0-13.202,5.502-13.829,12.672l-3.167,36.195h-76.402
				l-3.167-36.195c-0.627-7.17-6.631-12.672-13.829-12.672h-14.25c-3.425,0-6.115,2.935-5.816,6.347l0.729,8.325
				c0.239,2.736,2.353,4.935,5.077,5.282l1.643,0.21c2.031,0.259,3.606,1.899,3.785,3.938l3.995,45.66
				c0.291,3.329,3.079,5.883,6.42,5.883H244.53c3.342,0,6.129-2.554,6.42-5.883l3.995-45.66c0.178-2.039,1.754-3.679,3.785-3.938
				l1.643-0.21c2.724-0.348,4.838-2.547,5.077-5.283l0.728-8.325C266.477,307.586,263.787,304.651,260.362,304.651z"/>
		</g>
		<g>
			<path style="fill:#E6E6E6;" d="M389.469,142.309c0,0,1.115-7.352-4.247-12.066c-5.362-4.714-4.891-7.518-3.359-7.884
				c1.532-0.366,2.946,4.348,5.303,5.645c0,0,0.075-6.718-2.32-9.192c-2.394-2.475-3.651-8.85-1.373-8.962
				c2.278-0.112,2.514,3.787,2.985,6.551c0.471,2.765,3.01,6.654,3.01,6.654s0.496-6.011,2.043-8.485
				c1.547-2.475-2.578-8.132-0.987-10.607c1.591-2.475,4.419,2.239,4.184,7.542c-0.236,5.303-3.771,10.96-2.946,16.499
				c0,0,1.56-3.889,2.96-4.243c1.4-0.354,2.814-2.926,3.757-3.879c0.943-0.953,2.121,2.347,0,5.411
				c-2.121,3.064-7.542,11.262-6.717,17.887L389.469,142.309z"/>
			<path style="fill:#E6E6E6;" d="M386.264,138.964l-1.756,11.019c-0.542,3.403,2.087,6.484,5.533,6.484h1.873
				c3.446,0,6.075-3.081,5.533-6.484l-1.756-11.019H386.264z"/>
			<rect x="288.701" y="152.402" style="fill:#E0E0E0;" width="124.122" height="6.377"/>
			<rect x="294.414" y="128.894" style="fill:#EBEBEB;" width="5.468" height="23.507"/>
			<rect x="320.855" y="128.894" style="fill:#EBEBEB;" width="5.468" height="23.507"/>
			
				<rect x="352.908" y="128.601" transform="matrix(0.9855 -0.1698 0.1698 0.9855 -18.6703 62.4384)" style="fill:#EBEBEB;" width="5.468" height="23.508"/>
			<rect x="301.19" y="131.992" style="fill:#EBEBEB;" width="5.468" height="20.41"/>
			<rect x="313.758" y="131.992" style="fill:#EBEBEB;" width="5.468" height="20.41"/>
			<rect x="345.483" y="131.992" style="fill:#EBEBEB;" width="5.468" height="20.41"/>
			
				<rect x="330.316" y="131.642" transform="matrix(0.9762 -0.2169 0.2169 0.9762 -22.8371 75.6109)" style="fill:#EBEBEB;" width="5.468" height="20.41"/>
			<rect x="308.652" y="127.727" style="fill:#EBEBEB;" width="2.734" height="24.675"/>
			<rect x="341.177" y="127.727" style="fill:#EBEBEB;" width="2.734" height="24.675"/>
		</g>
		<g>
			
				<rect x="288.701" y="200.01" transform="matrix(-1 -1.224647e-16 1.224647e-16 -1 701.5232 406.3981)" style="fill:#E0E0E0;" width="124.122" height="6.377"/>
			
				<rect x="401.641" y="176.503" transform="matrix(-1 -1.224647e-16 1.224647e-16 -1 808.7505 376.5133)" style="fill:#EBEBEB;" width="5.468" height="23.507"/>
			
				<rect x="375.2" y="176.503" transform="matrix(-1 -1.224647e-16 1.224647e-16 -1 755.8684 376.5133)" style="fill:#EBEBEB;" width="5.468" height="23.507"/>
			
				<rect x="343.147" y="176.209" transform="matrix(-0.9855 -0.1698 0.1698 -0.9855 654.8148 431.9382)" style="fill:#EBEBEB;" width="5.468" height="23.508"/>
			
				<rect x="394.866" y="179.601" transform="matrix(-1 -1.224647e-16 1.224647e-16 -1 795.1991 379.6111)" style="fill:#EBEBEB;" width="5.468" height="20.41"/>
			
				<rect x="382.297" y="179.601" transform="matrix(-1 -1.224647e-16 1.224647e-16 -1 770.0618 379.6111)" style="fill:#EBEBEB;" width="5.468" height="20.41"/>
			
				<rect x="350.572" y="179.601" transform="matrix(-1 -1.224647e-16 1.224647e-16 -1 706.6118 379.6111)" style="fill:#EBEBEB;" width="5.468" height="20.41"/>
			
				<rect x="365.739" y="179.251" transform="matrix(-0.9762 -0.2169 0.2169 -0.9762 687.086 454.3173)" style="fill:#EBEBEB;" width="5.468" height="20.41"/>
			
				<rect x="390.137" y="175.336" transform="matrix(-1 -1.224647e-16 1.224647e-16 -1 783.0082 375.3462)" style="fill:#EBEBEB;" width="2.734" height="24.675"/>
			
				<rect x="357.612" y="175.336" transform="matrix(-1 -1.224647e-16 1.224647e-16 -1 717.9579 375.3462)" style="fill:#EBEBEB;" width="2.734" height="24.675"/>
			
				<rect x="300.611" y="181.405" transform="matrix(-1 -1.224647e-16 1.224647e-16 -1 627.8656 381.2044)" style="fill:#EBEBEB;" width="26.644" height="18.395"/>
		</g>
		<g>
			<rect x="95.533" y="115.921" style="fill:#E9E9E9;" width="112.616" height="124.616"/>
			<rect x="100.488" y="120.857" style="fill:#F5F5F5;" width="103" height="115"/>
			<polygon style="fill:#FFFFFF;" points="129.598,120.857 100.488,229.877 100.488,170.857 113.808,120.857 			"/>
			<polygon style="fill:#FFFFFF;" points="142.608,120.857 111.908,235.857 106.118,235.857 136.818,120.857 			"/>
			<polygon style="fill:#FFFFFF;" points="203.488,152.217 203.488,211.247 196.968,235.857 181.178,235.857 			"/>
			<rect x="149.84" y="115.921" style="fill:#E9E9E9;" width="4" height="124.616"/>
			<rect x="97.488" y="141.207" style="fill:#E9E9E9;" width="108.5" height="4"/>
			<path style="fill:#E0E0E0;" d="M99.216,247.644c0,1.387-1.124,2.511-2.511,2.511c-1.387,0-2.511-1.124-2.511-2.511
				c0-1.387,1.124-2.511,2.511-2.511C98.092,245.133,99.216,246.257,99.216,247.644z"/>
			<path style="fill:#E0E0E0;" d="M210.115,247.567c0,1.387-1.124,2.511-2.511,2.511c-1.387,0-2.511-1.124-2.511-2.511
				c0-1.387,1.124-2.511,2.511-2.511C208.991,245.056,210.115,246.18,210.115,247.567z"/>
		</g>
	</g>
</g>
<g id="Background_Simple" style="display:none;">
	<g style="display:inline;">
		<path style="fill:#407BFF;" d="M297.242,227.667c-67.863-18.572-92.161-164.712-192.165-85.172
			c-70.948,56.429-27.173,194.48,61.948,178.581c53.942-9.623,45.613-10.636,91.386,15.696c46.387,26.685,97.43,40.13,146.842-6.918
			c25.571-24.347,35.508-83.785,10.554-114.604C384.599,176.708,338.7,239.013,297.242,227.667z"/>
		<path style="opacity:0.9;fill:#FFFFFF;" d="M297.242,227.667c-67.863-18.572-92.161-164.712-192.165-85.172
			c-70.948,56.429-27.173,194.48,61.948,178.581c53.942-9.623,45.613-10.636,91.386,15.696c46.387,26.685,97.43,40.13,146.842-6.918
			c25.571-24.347,35.508-83.785,10.554-114.604C384.599,176.708,338.7,239.013,297.242,227.667z"/>
	</g>
</g>
<g id="Shadow_1_">
	<ellipse id="_x3C_Path_x3E__359_" style="fill:#F5F5F5;" cx="250" cy="416.238" rx="193.889" ry="11.323"/>
</g>
<g id="Coin_stack">
	<g>
		<g>
			<g>
				<path style="fill:#407BFF;" d="M184.63,405.568h-58.486c-0.746,0-1.35,0.605-1.35,1.35v7.022c0,0.746,0.605,1.35,1.35,1.35
					h58.486c0.746,0,1.35-0.605,1.35-1.35v-7.022C185.98,406.173,185.376,405.568,184.63,405.568z"/>
				<path style="opacity:0.5;fill:#FFFFFF;enable-background:new    ;" d="M185.985,406.92v7.02c0,0.75-0.61,1.35-1.36,1.35h-58.48
					c-0.75,0-1.35-0.6-1.35-1.35v-7.02c0-0.75,0.6-1.35,1.35-1.35h58.48C185.375,405.57,185.985,406.17,185.985,406.92z"/>
				<g>
					<path style="opacity:0.2;" d="M177.898,414.682L177.898,414.682c-0.272,0-0.495-0.223-0.495-0.495v-7.517
						c0-0.272,0.223-0.494,0.495-0.494l0,0c0.272,0,0.494,0.223,0.494,0.494v7.517C178.393,414.46,178.17,414.682,177.898,414.682z"
						/>
					<path style="opacity:0.2;" d="M170.909,414.682L170.909,414.682c-0.272,0-0.495-0.223-0.495-0.495v-7.517
						c0-0.272,0.223-0.494,0.495-0.494l0,0c0.272,0,0.494,0.223,0.494,0.494v7.517C171.404,414.46,171.181,414.682,170.909,414.682z
						"/>
					<path style="opacity:0.2;" d="M163.162,414.682L163.162,414.682c-0.272,0-0.494-0.223-0.494-0.495v-7.517
						c0-0.272,0.222-0.494,0.494-0.494l0,0c0.272,0,0.495,0.223,0.495,0.494v7.517C163.656,414.46,163.434,414.682,163.162,414.682z
						"/>
					<path style="opacity:0.2;" d="M183.634,414.682L183.634,414.682c-0.272,0-0.495-0.223-0.495-0.495v-7.517
						c0-0.272,0.223-0.494,0.495-0.494l0,0c0.272,0,0.495,0.223,0.495,0.494v7.517C184.129,414.46,183.906,414.682,183.634,414.682z
						"/>
					<path style="opacity:0.2;" d="M132.876,406.177L132.876,406.177c0.272,0,0.494,0.223,0.494,0.494v7.517
						c0,0.272-0.223,0.495-0.494,0.495l0,0c-0.272,0-0.495-0.223-0.495-0.495v-7.517
						C132.381,406.399,132.604,406.177,132.876,406.177z"/>
					<path style="opacity:0.2;" d="M139.865,406.177L139.865,406.177c0.272,0,0.494,0.223,0.494,0.494v7.517
						c0,0.272-0.223,0.495-0.494,0.495l0,0c-0.272,0-0.495-0.223-0.495-0.495v-7.517
						C139.37,406.399,139.592,406.177,139.865,406.177z"/>
					<path style="opacity:0.2;" d="M147.612,406.177L147.612,406.177c0.272,0,0.495,0.223,0.495,0.494v7.517
						c0,0.272-0.223,0.495-0.495,0.495l0,0c-0.272,0-0.494-0.223-0.494-0.495v-7.517
						C147.117,406.399,147.34,406.177,147.612,406.177z"/>
					<path style="opacity:0.2;" d="M127.139,406.177L127.139,406.177c0.272,0,0.494,0.223,0.494,0.494v7.517
						c0,0.272-0.222,0.495-0.494,0.495l0,0c-0.272,0-0.494-0.223-0.494-0.495v-7.517
						C126.645,406.399,126.867,406.177,127.139,406.177z"/>
				</g>
				<path style="opacity:0.2;" d="M155.387,414.682L155.387,414.682c-0.272,0-0.494-0.223-0.494-0.495v-7.517
					c0-0.272,0.223-0.494,0.494-0.494l0,0c0.272,0,0.495,0.223,0.495,0.494v7.517C155.881,414.46,155.659,414.682,155.387,414.682z"
					/>
			</g>
			<g>
				<path style="fill:#407BFF;" d="M186.39,395.71h-58.486c-0.746,0-1.35,0.605-1.35,1.35v7.022c0,0.746,0.605,1.35,1.35,1.35
					h58.486c0.746,0,1.35-0.605,1.35-1.35v-7.022C187.74,396.315,187.135,395.71,186.39,395.71z"/>
				<path style="opacity:0.5;fill:#FFFFFF;enable-background:new    ;" d="M187.735,397.06v7.02c0,0.75-0.6,1.35-1.35,1.35h-58.48
					c-0.75,0-1.35-0.6-1.35-1.35v-7.02c0-0.75,0.6-1.35,1.35-1.35h58.48C187.135,395.71,187.735,396.31,187.735,397.06z"/>
				<g>
					<path style="opacity:0.2;" d="M179.658,404.824L179.658,404.824c-0.272,0-0.494-0.223-0.494-0.495v-7.516
						c0-0.272,0.222-0.495,0.494-0.495l0,0c0.272,0,0.495,0.223,0.495,0.495v7.516C180.152,404.602,179.93,404.824,179.658,404.824z
						"/>
					<path style="opacity:0.2;" d="M172.669,404.824L172.669,404.824c-0.272,0-0.495-0.223-0.495-0.495v-7.516
						c0-0.272,0.223-0.495,0.495-0.495l0,0c0.272,0,0.495,0.223,0.495,0.495v7.516C173.163,404.602,172.941,404.824,172.669,404.824
						z"/>
					<path style="opacity:0.2;" d="M164.922,404.824L164.922,404.824c-0.272,0-0.495-0.223-0.495-0.495v-7.516
						c0-0.272,0.223-0.495,0.495-0.495l0,0c0.272,0,0.495,0.223,0.495,0.495v7.516C165.416,404.602,165.194,404.824,164.922,404.824
						z"/>
					<path style="opacity:0.2;" d="M185.394,404.824L185.394,404.824c-0.272,0-0.494-0.223-0.494-0.495v-7.516
						c0-0.272,0.222-0.495,0.494-0.495l0,0c0.272,0,0.495,0.223,0.495,0.495v7.516C185.889,404.602,185.666,404.824,185.394,404.824
						z"/>
					<path style="opacity:0.2;" d="M134.635,396.319L134.635,396.319c0.272,0,0.495,0.223,0.495,0.495v7.516
						c0,0.272-0.223,0.495-0.495,0.495l0,0c-0.272,0-0.494-0.223-0.494-0.495v-7.516
						C134.141,396.541,134.363,396.319,134.635,396.319z"/>
					<path style="opacity:0.2;" d="M141.624,396.319L141.624,396.319c0.272,0,0.494,0.223,0.494,0.495v7.516
						c0,0.272-0.223,0.495-0.494,0.495l0,0c-0.272,0-0.495-0.223-0.495-0.495v-7.516
						C141.13,396.541,141.352,396.319,141.624,396.319z"/>
					<path style="opacity:0.2;" d="M149.372,396.319L149.372,396.319c0.272,0,0.494,0.223,0.494,0.495v7.516
						c0,0.272-0.223,0.495-0.494,0.495l0,0c-0.272,0-0.495-0.223-0.495-0.495v-7.516C148.877,396.541,149.1,396.319,149.372,396.319
						z"/>
					<path style="opacity:0.2;" d="M128.899,396.319L128.899,396.319c0.272,0,0.494,0.223,0.494,0.495v7.516
						c0,0.272-0.223,0.495-0.494,0.495l0,0c-0.272,0-0.495-0.223-0.495-0.495v-7.516
						C128.404,396.541,128.627,396.319,128.899,396.319z"/>
				</g>
				<path style="opacity:0.2;" d="M157.147,404.824L157.147,404.824c-0.272,0-0.495-0.223-0.495-0.495v-7.516
					c0-0.272,0.223-0.495,0.495-0.495l0,0c0.272,0,0.494,0.223,0.494,0.495v7.516C157.641,404.602,157.419,404.824,157.147,404.824z
					"/>
			</g>
			<g>
				<path style="fill:#407BFF;" d="M188.149,385.852h-58.486c-0.746,0-1.35,0.605-1.35,1.35v7.022c0,0.746,0.605,1.35,1.35,1.35
					h58.486c0.746,0,1.35-0.604,1.35-1.35v-7.022C189.5,386.456,188.895,385.852,188.149,385.852z"/>
				<path style="opacity:0.5;fill:#FFFFFF;enable-background:new    ;" d="M189.495,387.2v7.02c0,0.75-0.6,1.35-1.35,1.35h-58.48
					c-0.75,0-1.35-0.6-1.35-1.35v-7.02c0-0.74,0.6-1.35,1.35-1.35h58.48C188.895,385.85,189.495,386.46,189.495,387.2z"/>
				<g>
					<path style="opacity:0.2;" d="M181.418,394.966L181.418,394.966c-0.272,0-0.494-0.223-0.494-0.494v-7.517
						c0-0.272,0.223-0.495,0.494-0.495l0,0c0.272,0,0.495,0.223,0.495,0.495v7.517C181.912,394.743,181.69,394.966,181.418,394.966z
						"/>
					<path style="opacity:0.2;" d="M174.429,394.966L174.429,394.966c-0.272,0-0.494-0.223-0.494-0.494v-7.517
						c0-0.272,0.222-0.495,0.494-0.495l0,0c0.272,0,0.495,0.223,0.495,0.495v7.517C174.923,394.743,174.701,394.966,174.429,394.966
						z"/>
					<path style="opacity:0.2;" d="M166.681,394.966L166.681,394.966c-0.272,0-0.494-0.223-0.494-0.494v-7.517
						c0-0.272,0.222-0.495,0.494-0.495l0,0c0.272,0,0.495,0.223,0.495,0.495v7.517C167.176,394.743,166.953,394.966,166.681,394.966
						z"/>
					<path style="opacity:0.2;" d="M187.154,394.966L187.154,394.966c-0.272,0-0.495-0.223-0.495-0.494v-7.517
						c0-0.272,0.223-0.495,0.495-0.495l0,0c0.272,0,0.495,0.223,0.495,0.495v7.517C187.648,394.743,187.426,394.966,187.154,394.966
						z"/>
					<path style="opacity:0.2;" d="M136.395,386.46L136.395,386.46c0.272,0,0.494,0.223,0.494,0.495v7.517
						c0,0.272-0.222,0.494-0.494,0.494l0,0c-0.272,0-0.495-0.223-0.495-0.494v-7.517C135.9,386.683,136.123,386.46,136.395,386.46z"
						/>
					<path style="opacity:0.2;" d="M143.384,386.46L143.384,386.46c0.272,0,0.494,0.223,0.494,0.495v7.517
						c0,0.272-0.222,0.494-0.494,0.494l0,0c-0.272,0-0.495-0.223-0.495-0.494v-7.517C142.889,386.683,143.112,386.46,143.384,386.46
						z"/>
					<path style="opacity:0.2;" d="M151.131,386.46L151.131,386.46c0.272,0,0.494,0.223,0.494,0.495v7.517
						c0,0.272-0.223,0.494-0.494,0.494l0,0c-0.272,0-0.495-0.223-0.495-0.494v-7.517C150.637,386.683,150.859,386.46,151.131,386.46
						z"/>
					<path style="opacity:0.2;" d="M130.659,386.46L130.659,386.46c0.272,0,0.494,0.223,0.494,0.495v7.517
						c0,0.272-0.223,0.494-0.494,0.494l0,0c-0.272,0-0.495-0.223-0.495-0.494v-7.517C130.164,386.683,130.387,386.46,130.659,386.46
						z"/>
				</g>
				<path style="opacity:0.2;" d="M158.906,394.966L158.906,394.966c-0.272,0-0.494-0.223-0.494-0.494v-7.517
					c0-0.272,0.223-0.495,0.494-0.495l0,0c0.272,0,0.495,0.223,0.495,0.495v7.517C159.401,394.743,159.178,394.966,158.906,394.966z
					"/>
			</g>
			<g>
				<path style="fill:#407BFF;" d="M180.904,375.993h-58.486c-0.746,0-1.35,0.605-1.35,1.35v7.022c0,0.746,0.605,1.35,1.35,1.35
					h58.486c0.746,0,1.35-0.605,1.35-1.35v-7.022C182.254,376.598,181.649,375.993,180.904,375.993z"/>
				<path style="opacity:0.5;fill:#FFFFFF;enable-background:new    ;" d="M182.255,377.34v7.03c0,0.74-0.61,1.35-1.35,1.35h-58.49
					c-0.74,0-1.35-0.61-1.35-1.35v-7.03c0-0.74,0.61-1.35,1.35-1.35h58.49C181.645,375.99,182.255,376.6,182.255,377.34z"/>
				<g>
					<path style="opacity:0.2;" d="M174.172,385.108L174.172,385.108c-0.272,0-0.494-0.223-0.494-0.495v-7.516
						c0-0.272,0.222-0.495,0.494-0.495l0,0c0.272,0,0.495,0.223,0.495,0.495v7.516C174.666,384.885,174.444,385.108,174.172,385.108
						z"/>
					<path style="opacity:0.2;" d="M167.183,385.108L167.183,385.108c-0.272,0-0.495-0.223-0.495-0.495v-7.516
						c0-0.272,0.223-0.495,0.495-0.495l0,0c0.272,0,0.495,0.223,0.495,0.495v7.516C167.677,384.885,167.455,385.108,167.183,385.108
						z"/>
					<path style="opacity:0.2;" d="M159.436,385.108L159.436,385.108c-0.272,0-0.495-0.223-0.495-0.495v-7.516
						c0-0.272,0.223-0.495,0.495-0.495l0,0c0.272,0,0.494,0.223,0.494,0.495v7.516C159.93,384.885,159.708,385.108,159.436,385.108z
						"/>
					<path style="opacity:0.2;" d="M179.908,385.108L179.908,385.108c-0.272,0-0.495-0.223-0.495-0.495v-7.516
						c0-0.272,0.223-0.495,0.495-0.495l0,0c0.272,0,0.495,0.223,0.495,0.495v7.516C180.403,384.885,180.18,385.108,179.908,385.108z
						"/>
					<path style="opacity:0.2;" d="M129.149,376.602L129.149,376.602c0.272,0,0.495,0.223,0.495,0.495v7.516
						c0,0.272-0.223,0.495-0.495,0.495l0,0c-0.272,0-0.494-0.223-0.494-0.495v-7.516
						C128.655,376.825,128.877,376.602,129.149,376.602z"/>
					<path style="opacity:0.2;" d="M136.138,376.602L136.138,376.602c0.272,0,0.494,0.223,0.494,0.495v7.516
						c0,0.272-0.223,0.495-0.494,0.495l0,0c-0.272,0-0.495-0.223-0.495-0.495v-7.516
						C135.644,376.825,135.866,376.602,136.138,376.602z"/>
					<path style="opacity:0.2;" d="M143.885,376.602L143.885,376.602c0.272,0,0.494,0.223,0.494,0.495v7.516
						c0,0.272-0.223,0.495-0.494,0.495l0,0c-0.272,0-0.495-0.223-0.495-0.495v-7.516
						C143.391,376.825,143.613,376.602,143.885,376.602z"/>
					<path style="opacity:0.2;" d="M123.413,376.602L123.413,376.602c0.272,0,0.494,0.223,0.494,0.495v7.516
						c0,0.272-0.223,0.495-0.494,0.495l0,0c-0.272,0-0.495-0.223-0.495-0.495v-7.516
						C122.918,376.825,123.141,376.602,123.413,376.602z"/>
				</g>
				<path style="opacity:0.2;" d="M151.66,385.108L151.66,385.108c-0.272,0-0.495-0.223-0.495-0.495v-7.516
					c0-0.272,0.223-0.495,0.495-0.495l0,0c0.272,0,0.495,0.223,0.495,0.495v7.516C152.155,384.885,151.932,385.108,151.66,385.108z"
					/>
			</g>
			<g>
				<path style="fill:#407BFF;" d="M183.664,366.135h-58.486c-0.746,0-1.35,0.605-1.35,1.35v7.022c0,0.746,0.605,1.35,1.35,1.35
					h58.486c0.746,0,1.35-0.605,1.35-1.35v-7.022C185.014,366.74,184.41,366.135,183.664,366.135z"/>
				<path style="opacity:0.5;fill:#FFFFFF;enable-background:new    ;" d="M185.015,367.49v7.02c0,0.74-0.61,1.35-1.35,1.35h-58.49
					c-0.74,0-1.35-0.61-1.35-1.35v-7.02c0-0.75,0.61-1.35,1.35-1.35h58.49C184.405,366.14,185.015,366.74,185.015,367.49z"/>
				<g>
					<path style="opacity:0.2;" d="M176.932,375.249L176.932,375.249c-0.272,0-0.495-0.223-0.495-0.495v-7.516
						c0-0.272,0.223-0.495,0.495-0.495l0,0c0.272,0,0.494,0.223,0.494,0.495v7.516C177.427,375.027,177.204,375.249,176.932,375.249
						z"/>
					<path style="opacity:0.2;" d="M169.943,375.249L169.943,375.249c-0.272,0-0.495-0.223-0.495-0.495v-7.516
						c0-0.272,0.223-0.495,0.495-0.495l0,0c0.272,0,0.494,0.223,0.494,0.495v7.516C170.438,375.027,170.215,375.249,169.943,375.249
						z"/>
					<path style="opacity:0.2;" d="M162.196,375.249L162.196,375.249c-0.272,0-0.495-0.223-0.495-0.495v-7.516
						c0-0.272,0.223-0.495,0.495-0.495l0,0c0.272,0,0.494,0.223,0.494,0.495v7.516C162.69,375.027,162.468,375.249,162.196,375.249z
						"/>
					<path style="opacity:0.2;" d="M182.668,375.249L182.668,375.249c-0.272,0-0.494-0.223-0.494-0.495v-7.516
						c0-0.272,0.223-0.495,0.494-0.495l0,0c0.272,0,0.495,0.223,0.495,0.495v7.516C183.163,375.027,182.94,375.249,182.668,375.249z
						"/>
					<path style="opacity:0.2;" d="M131.91,366.744L131.91,366.744c0.272,0,0.495,0.223,0.495,0.495v7.516
						c0,0.272-0.223,0.495-0.495,0.495l0,0c-0.272,0-0.495-0.223-0.495-0.495v-7.516
						C131.415,366.966,131.637,366.744,131.91,366.744z"/>
					<path style="opacity:0.2;" d="M138.898,366.744L138.898,366.744c0.272,0,0.495,0.223,0.495,0.495v7.516
						c0,0.272-0.223,0.495-0.495,0.495l0,0c-0.272,0-0.494-0.223-0.494-0.495v-7.516
						C138.404,366.966,138.626,366.744,138.898,366.744z"/>
					<path style="opacity:0.2;" d="M146.646,366.744L146.646,366.744c0.272,0,0.495,0.223,0.495,0.495v7.516
						c0,0.272-0.223,0.495-0.495,0.495l0,0c-0.272,0-0.494-0.223-0.494-0.495v-7.516
						C146.151,366.966,146.374,366.744,146.646,366.744z"/>
					<path style="opacity:0.2;" d="M126.173,366.744L126.173,366.744c0.272,0,0.494,0.223,0.494,0.495v7.516
						c0,0.272-0.223,0.495-0.494,0.495l0,0c-0.272,0-0.494-0.223-0.494-0.495v-7.516
						C125.679,366.966,125.901,366.744,126.173,366.744z"/>
				</g>
				<path style="opacity:0.2;" d="M154.421,375.249L154.421,375.249c-0.272,0-0.495-0.223-0.495-0.495v-7.516
					c0-0.272,0.223-0.495,0.495-0.495l0,0c0.272,0,0.495,0.223,0.495,0.495v7.516C154.915,375.027,154.693,375.249,154.421,375.249z
					"/>
			</g>
			<path style="opacity:0.2;" d="M123.825,374.51v-7.02c0-0.75,0.61-1.35,1.35-1.35h25.96l4.56,9.72h-30.52
				C124.435,375.86,123.825,375.25,123.825,374.51z"/>
			<path style="opacity:0.2;" d="M160.315,385.72h-37.9c-0.74,0-1.35-0.61-1.35-1.35v-7.03c0-0.74,0.61-1.35,1.35-1.35h33.34
				L160.315,385.72z"/>
			<path style="opacity:0.2;" d="M129.665,385.85h30.71l4.56,9.72h-35.27c-0.75,0-1.35-0.6-1.35-1.35v-7.02
				C128.315,386.46,128.915,385.85,129.665,385.85z"/>
			<path style="opacity:0.2;" d="M127.905,395.71h37.09l4.56,9.72h-41.65c-0.75,0-1.35-0.6-1.35-1.35v-7.02
				C126.555,396.31,127.155,395.71,127.905,395.71z"/>
			<path style="opacity:0.2;" d="M174.175,415.29h-48.03c-0.75,0-1.35-0.6-1.35-1.35v-7.02c0-0.75,0.6-1.35,1.35-1.35h43.47
				L174.175,415.29z"/>
		</g>
		<g>
			<g>
				<path style="fill:#407BFF;" d="M144.605,405.568H86.119c-0.746,0-1.35,0.605-1.35,1.35v7.022c0,0.746,0.605,1.35,1.35,1.35
					h58.486c0.746,0,1.35-0.605,1.35-1.35v-7.022C145.955,406.173,145.35,405.568,144.605,405.568z"/>
				<path style="opacity:0.5;fill:#FFFFFF;enable-background:new    ;" d="M144.605,405.568H86.119c-0.746,0-1.35,0.605-1.35,1.35
					v7.022c0,0.746,0.605,1.35,1.35,1.35h58.486c0.746,0,1.35-0.605,1.35-1.35v-7.022
					C145.955,406.173,145.35,405.568,144.605,405.568z"/>
				<g>
					<path style="opacity:0.2;" d="M137.873,414.682L137.873,414.682c-0.272,0-0.494-0.223-0.494-0.495v-7.517
						c0-0.272,0.223-0.494,0.494-0.494l0,0c0.272,0,0.495,0.223,0.495,0.494v7.517C138.367,414.46,138.145,414.682,137.873,414.682z
						"/>
					<path style="opacity:0.2;" d="M130.884,414.682L130.884,414.682c-0.272,0-0.494-0.223-0.494-0.495v-7.517
						c0-0.272,0.222-0.494,0.494-0.494l0,0c0.272,0,0.495,0.223,0.495,0.494v7.517C131.378,414.46,131.156,414.682,130.884,414.682z
						"/>
					<path style="opacity:0.2;" d="M123.137,414.682L123.137,414.682c-0.272,0-0.495-0.223-0.495-0.495v-7.517
						c0-0.272,0.223-0.494,0.495-0.494l0,0c0.272,0,0.494,0.223,0.494,0.494v7.517C123.631,414.46,123.409,414.682,123.137,414.682z
						"/>
					<path style="opacity:0.2;" d="M143.609,414.682L143.609,414.682c-0.272,0-0.495-0.223-0.495-0.495v-7.517
						c0-0.272,0.223-0.494,0.495-0.494l0,0c0.272,0,0.494,0.223,0.494,0.494v7.517C144.104,414.46,143.881,414.682,143.609,414.682z
						"/>
					<path style="opacity:0.2;" d="M92.85,406.177L92.85,406.177c0.272,0,0.494,0.223,0.494,0.494v7.517
						c0,0.272-0.223,0.495-0.494,0.495l0,0c-0.272,0-0.495-0.223-0.495-0.495v-7.517C92.356,406.399,92.578,406.177,92.85,406.177z"
						/>
					<path style="opacity:0.2;" d="M99.839,406.177L99.839,406.177c0.272,0,0.494,0.223,0.494,0.494v7.517
						c0,0.272-0.223,0.495-0.494,0.495l0,0c-0.272,0-0.494-0.223-0.494-0.495v-7.517C99.345,406.399,99.567,406.177,99.839,406.177z
						"/>
					<path style="opacity:0.2;" d="M107.587,406.177L107.587,406.177c0.272,0,0.494,0.223,0.494,0.494v7.517
						c0,0.272-0.223,0.495-0.494,0.495l0,0c-0.272,0-0.494-0.223-0.494-0.495v-7.517
						C107.092,406.399,107.314,406.177,107.587,406.177z"/>
					<path style="opacity:0.2;" d="M87.114,406.177L87.114,406.177c0.272,0,0.494,0.223,0.494,0.494v7.517
						c0,0.272-0.222,0.495-0.494,0.495l0,0c-0.272,0-0.494-0.223-0.494-0.495v-7.517C86.619,406.399,86.842,406.177,87.114,406.177z
						"/>
				</g>
				<path style="opacity:0.2;" d="M115.362,414.682L115.362,414.682c-0.272,0-0.494-0.223-0.494-0.495v-7.517
					c0-0.272,0.222-0.494,0.494-0.494l0,0c0.272,0,0.494,0.223,0.494,0.494v7.517C115.856,414.46,115.634,414.682,115.362,414.682z"
					/>
			</g>
			<g>
				<path style="fill:#407BFF;" d="M146.364,395.71H87.878c-0.746,0-1.35,0.605-1.35,1.35v7.022c0,0.746,0.605,1.35,1.35,1.35
					h58.486c0.746,0,1.35-0.605,1.35-1.35v-7.022C147.715,396.315,147.11,395.71,146.364,395.71z"/>
				<path style="opacity:0.5;fill:#FFFFFF;enable-background:new    ;" d="M146.364,395.71H87.878c-0.746,0-1.35,0.605-1.35,1.35
					v7.022c0,0.746,0.605,1.35,1.35,1.35h58.486c0.746,0,1.35-0.605,1.35-1.35v-7.022C147.715,396.315,147.11,395.71,146.364,395.71
					z"/>
				<g>
					<path style="opacity:0.2;" d="M139.633,404.824L139.633,404.824c-0.272,0-0.495-0.223-0.495-0.495v-7.516
						c0-0.272,0.223-0.495,0.495-0.495l0,0c0.272,0,0.494,0.223,0.494,0.495v7.516C140.127,404.602,139.905,404.824,139.633,404.824
						z"/>
					<path style="opacity:0.2;" d="M132.644,404.824L132.644,404.824c-0.272,0-0.495-0.223-0.495-0.495v-7.516
						c0-0.272,0.223-0.495,0.495-0.495l0,0c0.272,0,0.494,0.223,0.494,0.495v7.516C133.138,404.602,132.916,404.824,132.644,404.824
						z"/>
					<path style="opacity:0.2;" d="M124.896,404.824L124.896,404.824c-0.272,0-0.494-0.223-0.494-0.495v-7.516
						c0-0.272,0.223-0.495,0.494-0.495l0,0c0.272,0,0.495,0.223,0.495,0.495v7.516C125.391,404.602,125.168,404.824,124.896,404.824
						z"/>
					<path style="opacity:0.2;" d="M145.369,404.824L145.369,404.824c-0.272,0-0.495-0.223-0.495-0.495v-7.516
						c0-0.272,0.223-0.495,0.495-0.495l0,0c0.272,0,0.494,0.223,0.494,0.495v7.516C145.863,404.602,145.641,404.824,145.369,404.824
						z"/>
					<path style="opacity:0.2;" d="M94.61,396.319L94.61,396.319c0.272,0,0.494,0.223,0.494,0.495v7.516
						c0,0.272-0.222,0.495-0.494,0.495l0,0c-0.272,0-0.494-0.223-0.494-0.495v-7.516C94.116,396.541,94.338,396.319,94.61,396.319z"
						/>
					<path style="opacity:0.2;" d="M101.599,396.319L101.599,396.319c0.272,0,0.494,0.223,0.494,0.495v7.516
						c0,0.272-0.222,0.495-0.494,0.495l0,0c-0.272,0-0.494-0.223-0.494-0.495v-7.516
						C101.104,396.541,101.327,396.319,101.599,396.319z"/>
					<path style="opacity:0.2;" d="M109.346,396.319L109.346,396.319c0.272,0,0.494,0.223,0.494,0.495v7.516
						c0,0.272-0.222,0.495-0.494,0.495l0,0c-0.272,0-0.494-0.223-0.494-0.495v-7.516
						C108.852,396.541,109.074,396.319,109.346,396.319z"/>
					<path style="opacity:0.2;" d="M88.874,396.319L88.874,396.319c0.272,0,0.494,0.223,0.494,0.495v7.516
						c0,0.272-0.223,0.495-0.494,0.495l0,0c-0.272,0-0.494-0.223-0.494-0.495v-7.516C88.379,396.541,88.602,396.319,88.874,396.319z
						"/>
				</g>
				<path style="opacity:0.2;" d="M117.121,404.824L117.121,404.824c-0.272,0-0.494-0.223-0.494-0.495v-7.516
					c0-0.272,0.223-0.495,0.494-0.495l0,0c0.272,0,0.494,0.223,0.494,0.495v7.516C117.616,404.602,117.393,404.824,117.121,404.824z
					"/>
			</g>
			<g>
				<path style="fill:#407BFF;" d="M143.121,385.852H84.635c-0.746,0-1.35,0.605-1.35,1.35v7.022c0,0.746,0.605,1.35,1.35,1.35
					h58.486c0.746,0,1.35-0.604,1.35-1.35v-7.022C144.471,386.456,143.867,385.852,143.121,385.852z"/>
				<path style="opacity:0.5;fill:#FFFFFF;enable-background:new    ;" d="M143.121,385.852H84.635c-0.746,0-1.35,0.605-1.35,1.35
					v7.022c0,0.746,0.605,1.35,1.35,1.35h58.486c0.746,0,1.35-0.604,1.35-1.35v-7.022
					C144.471,386.456,143.867,385.852,143.121,385.852z"/>
				<g>
					<path style="opacity:0.2;" d="M136.389,394.966L136.389,394.966c-0.272,0-0.494-0.223-0.494-0.494v-7.517
						c0-0.272,0.223-0.495,0.494-0.495l0,0c0.272,0,0.495,0.223,0.495,0.495v7.517C136.884,394.743,136.661,394.966,136.389,394.966
						z"/>
					<path style="opacity:0.2;" d="M129.4,394.966L129.4,394.966c-0.272,0-0.494-0.223-0.494-0.494v-7.517
						c0-0.272,0.222-0.495,0.494-0.495l0,0c0.272,0,0.495,0.223,0.495,0.495v7.517C129.895,394.743,129.672,394.966,129.4,394.966z"
						/>
					<path style="opacity:0.2;" d="M121.653,394.966L121.653,394.966c-0.272,0-0.494-0.223-0.494-0.494v-7.517
						c0-0.272,0.223-0.495,0.494-0.495l0,0c0.272,0,0.494,0.223,0.494,0.495v7.517C122.148,394.743,121.925,394.966,121.653,394.966
						z"/>
					<path style="opacity:0.2;" d="M142.126,394.966L142.126,394.966c-0.272,0-0.494-0.223-0.494-0.494v-7.517
						c0-0.272,0.223-0.495,0.494-0.495l0,0c0.272,0,0.495,0.223,0.495,0.495v7.517C142.62,394.743,142.398,394.966,142.126,394.966z
						"/>
					<path style="opacity:0.2;" d="M91.367,386.46L91.367,386.46c0.272,0,0.494,0.223,0.494,0.495v7.517
						c0,0.272-0.223,0.494-0.494,0.494l0,0c-0.272,0-0.495-0.223-0.495-0.494v-7.517C90.872,386.683,91.095,386.46,91.367,386.46z"
						/>
					<path style="opacity:0.2;" d="M98.356,386.46L98.356,386.46c0.272,0,0.494,0.223,0.494,0.495v7.517
						c0,0.272-0.223,0.494-0.494,0.494l0,0c-0.272,0-0.494-0.223-0.494-0.494v-7.517C97.861,386.683,98.084,386.46,98.356,386.46z"
						/>
					<path style="opacity:0.2;" d="M106.103,386.46L106.103,386.46c0.272,0,0.494,0.223,0.494,0.495v7.517
						c0,0.272-0.222,0.494-0.494,0.494l0,0c-0.272,0-0.494-0.223-0.494-0.494v-7.517C105.608,386.683,105.831,386.46,106.103,386.46
						z"/>
					<path style="opacity:0.2;" d="M85.63,386.46L85.63,386.46c0.272,0,0.494,0.223,0.494,0.495v7.517
						c0,0.272-0.223,0.494-0.494,0.494l0,0c-0.272,0-0.494-0.223-0.494-0.494v-7.517C85.136,386.683,85.358,386.46,85.63,386.46z"/>
				</g>
				<path style="opacity:0.2;" d="M113.878,394.966L113.878,394.966c-0.272,0-0.494-0.223-0.494-0.494v-7.517
					c0-0.272,0.223-0.495,0.494-0.495l0,0c0.272,0,0.494,0.223,0.494,0.495v7.517C114.372,394.743,114.15,394.966,113.878,394.966z"
					/>
			</g>
			<g>
				<path style="fill:#407BFF;" d="M142.88,375.993H84.394c-0.746,0-1.35,0.605-1.35,1.35v7.022c0,0.746,0.605,1.35,1.35,1.35
					h58.486c0.746,0,1.35-0.605,1.35-1.35v-7.022C144.23,376.598,143.625,375.993,142.88,375.993z"/>
				<path style="opacity:0.5;fill:#FFFFFF;enable-background:new    ;" d="M142.88,375.993H84.394c-0.746,0-1.35,0.605-1.35,1.35
					v7.022c0,0.746,0.605,1.35,1.35,1.35h58.486c0.746,0,1.35-0.605,1.35-1.35v-7.022
					C144.23,376.598,143.625,375.993,142.88,375.993z"/>
				<g>
					<path style="opacity:0.2;" d="M136.148,385.108L136.148,385.108c-0.272,0-0.494-0.223-0.494-0.495v-7.516
						c0-0.272,0.223-0.495,0.494-0.495l0,0c0.272,0,0.495,0.223,0.495,0.495v7.516C136.642,384.885,136.42,385.108,136.148,385.108z
						"/>
					<path style="opacity:0.2;" d="M129.159,385.108L129.159,385.108c-0.272,0-0.494-0.223-0.494-0.495v-7.516
						c0-0.272,0.223-0.495,0.494-0.495l0,0c0.272,0,0.495,0.223,0.495,0.495v7.516C129.653,384.885,129.431,385.108,129.159,385.108
						z"/>
					<path style="opacity:0.2;" d="M121.412,385.108L121.412,385.108c-0.272,0-0.494-0.223-0.494-0.495v-7.516
						c0-0.272,0.223-0.495,0.494-0.495l0,0c0.272,0,0.494,0.223,0.494,0.495v7.516C121.906,384.885,121.684,385.108,121.412,385.108
						z"/>
					<path style="opacity:0.2;" d="M141.884,385.108L141.884,385.108c-0.272,0-0.494-0.223-0.494-0.495v-7.516
						c0-0.272,0.223-0.495,0.494-0.495l0,0c0.272,0,0.495,0.223,0.495,0.495v7.516C142.379,384.885,142.156,385.108,141.884,385.108
						z"/>
					<path style="opacity:0.2;" d="M91.125,376.602L91.125,376.602c0.272,0,0.494,0.223,0.494,0.495v7.516
						c0,0.272-0.223,0.495-0.494,0.495l0,0c-0.272,0-0.494-0.223-0.494-0.495v-7.516C90.631,376.825,90.853,376.602,91.125,376.602z
						"/>
					<path style="opacity:0.2;" d="M98.114,376.602L98.114,376.602c0.272,0,0.495,0.223,0.495,0.495v7.516
						c0,0.272-0.223,0.495-0.495,0.495l0,0c-0.272,0-0.494-0.223-0.494-0.495v-7.516C97.62,376.825,97.842,376.602,98.114,376.602z"
						/>
					<path style="opacity:0.2;" d="M105.861,376.602L105.861,376.602c0.272,0,0.495,0.223,0.495,0.495v7.516
						c0,0.272-0.223,0.495-0.495,0.495l0,0c-0.272,0-0.494-0.223-0.494-0.495v-7.516
						C105.367,376.825,105.59,376.602,105.861,376.602z"/>
					<path style="opacity:0.2;" d="M85.389,376.602L85.389,376.602c0.272,0,0.494,0.223,0.494,0.495v7.516
						c0,0.272-0.223,0.495-0.494,0.495l0,0c-0.272,0-0.494-0.223-0.494-0.495v-7.516C84.894,376.825,85.117,376.602,85.389,376.602z
						"/>
				</g>
				<path style="opacity:0.2;" d="M113.636,385.108L113.636,385.108c-0.272,0-0.494-0.223-0.494-0.495v-7.516
					c0-0.272,0.223-0.495,0.494-0.495l0,0c0.272,0,0.494,0.223,0.494,0.495v7.516C114.131,384.885,113.909,385.108,113.636,385.108z
					"/>
			</g>
			<g>
				<path style="fill:#407BFF;" d="M145.64,366.135H87.154c-0.746,0-1.35,0.605-1.35,1.35v7.022c0,0.746,0.605,1.35,1.35,1.35
					h58.486c0.746,0,1.35-0.605,1.35-1.35v-7.022C146.99,366.74,146.386,366.135,145.64,366.135z"/>
				<path style="opacity:0.5;fill:#FFFFFF;enable-background:new    ;" d="M145.64,366.135H87.154c-0.746,0-1.35,0.605-1.35,1.35
					v7.022c0,0.746,0.605,1.35,1.35,1.35h58.486c0.746,0,1.35-0.605,1.35-1.35v-7.022C146.99,366.74,146.386,366.135,145.64,366.135
					z"/>
				<g>
					<path style="opacity:0.2;" d="M138.908,375.249L138.908,375.249c-0.272,0-0.495-0.223-0.495-0.495v-7.516
						c0-0.272,0.223-0.495,0.495-0.495l0,0c0.272,0,0.495,0.223,0.495,0.495v7.516C139.403,375.027,139.18,375.249,138.908,375.249z
						"/>
					<path style="opacity:0.2;" d="M131.919,375.249L131.919,375.249c-0.272,0-0.495-0.223-0.495-0.495v-7.516
						c0-0.272,0.223-0.495,0.495-0.495l0,0c0.272,0,0.494,0.223,0.494,0.495v7.516C132.414,375.027,132.191,375.249,131.919,375.249
						z"/>
					<path style="opacity:0.2;" d="M124.172,375.249L124.172,375.249c-0.272,0-0.494-0.223-0.494-0.495v-7.516
						c0-0.272,0.223-0.495,0.494-0.495l0,0c0.272,0,0.494,0.223,0.494,0.495v7.516C124.666,375.027,124.444,375.249,124.172,375.249
						z"/>
					<path style="opacity:0.2;" d="M144.645,375.249L144.645,375.249c-0.272,0-0.495-0.223-0.495-0.495v-7.516
						c0-0.272,0.223-0.495,0.495-0.495l0,0c0.272,0,0.495,0.223,0.495,0.495v7.516C145.139,375.027,144.917,375.249,144.645,375.249
						z"/>
					<path style="opacity:0.2;" d="M93.886,366.744L93.886,366.744c0.272,0,0.494,0.223,0.494,0.495v7.516
						c0,0.272-0.223,0.495-0.494,0.495l0,0c-0.272,0-0.494-0.223-0.494-0.495v-7.516C93.391,366.966,93.614,366.744,93.886,366.744z
						"/>
					<path style="opacity:0.2;" d="M100.875,366.744L100.875,366.744c0.272,0,0.494,0.223,0.494,0.495v7.516
						c0,0.272-0.223,0.495-0.494,0.495l0,0c-0.272,0-0.495-0.223-0.495-0.495v-7.516
						C100.38,366.966,100.603,366.744,100.875,366.744z"/>
					<path style="opacity:0.2;" d="M108.622,366.744L108.622,366.744c0.272,0,0.494,0.223,0.494,0.495v7.516
						c0,0.272-0.223,0.495-0.494,0.495l0,0c-0.272,0-0.495-0.223-0.495-0.495v-7.516
						C108.127,366.966,108.35,366.744,108.622,366.744z"/>
					<path style="opacity:0.2;" d="M88.149,366.744L88.149,366.744c0.272,0,0.494,0.223,0.494,0.495v7.516
						c0,0.272-0.222,0.495-0.494,0.495l0,0c-0.272,0-0.494-0.223-0.494-0.495v-7.516C87.655,366.966,87.877,366.744,88.149,366.744z
						"/>
				</g>
				<path style="opacity:0.2;" d="M116.397,375.249L116.397,375.249c-0.272,0-0.494-0.223-0.494-0.495v-7.516
					c0-0.272,0.223-0.495,0.494-0.495l0,0c0.272,0,0.495,0.223,0.495,0.495v7.516C116.891,375.027,116.669,375.249,116.397,375.249z
					"/>
			</g>
			<g>
				<path style="fill:#407BFF;" d="M143.397,356.277H84.911c-0.746,0-1.35,0.605-1.35,1.35v7.022c0,0.746,0.604,1.35,1.35,1.35
					h58.486c0.746,0,1.35-0.605,1.35-1.35v-7.022C144.748,356.882,144.143,356.277,143.397,356.277z"/>
				<path style="opacity:0.5;fill:#FFFFFF;enable-background:new    ;" d="M143.397,356.277H84.911c-0.746,0-1.35,0.605-1.35,1.35
					v7.022c0,0.746,0.604,1.35,1.35,1.35h58.486c0.746,0,1.35-0.605,1.35-1.35v-7.022
					C144.748,356.882,144.143,356.277,143.397,356.277z"/>
				<g>
					<path style="opacity:0.2;" d="M136.665,365.391L136.665,365.391c-0.272,0-0.494-0.223-0.494-0.494v-7.517
						c0-0.272,0.222-0.495,0.494-0.495l0,0c0.272,0,0.495,0.223,0.495,0.495v7.517C137.16,365.168,136.938,365.391,136.665,365.391z
						"/>
					<path style="opacity:0.2;" d="M129.676,365.391L129.676,365.391c-0.272,0-0.494-0.223-0.494-0.494v-7.517
						c0-0.272,0.222-0.495,0.494-0.495l0,0c0.272,0,0.495,0.223,0.495,0.495v7.517C130.171,365.168,129.949,365.391,129.676,365.391
						z"/>
					<path style="opacity:0.2;" d="M121.929,365.391L121.929,365.391c-0.272,0-0.494-0.223-0.494-0.494v-7.517
						c0-0.272,0.223-0.495,0.494-0.495l0,0c0.272,0,0.494,0.223,0.494,0.495v7.517C122.424,365.168,122.201,365.391,121.929,365.391
						z"/>
					<path style="opacity:0.2;" d="M142.402,365.391L142.402,365.391c-0.272,0-0.494-0.223-0.494-0.494v-7.517
						c0-0.272,0.223-0.495,0.494-0.495l0,0c0.272,0,0.495,0.223,0.495,0.495v7.517C142.896,365.168,142.674,365.391,142.402,365.391
						z"/>
					<path style="opacity:0.2;" d="M91.643,356.885L91.643,356.885c0.272,0,0.494,0.223,0.494,0.495v7.517
						c0,0.272-0.222,0.494-0.494,0.494l0,0c-0.272,0-0.494-0.223-0.494-0.494v-7.517C91.148,357.108,91.371,356.885,91.643,356.885z
						"/>
					<path style="opacity:0.2;" d="M98.632,356.885L98.632,356.885c0.272,0,0.494,0.223,0.494,0.495v7.517
						c0,0.272-0.222,0.494-0.494,0.494l0,0c-0.272,0-0.494-0.223-0.494-0.494v-7.517C98.137,357.108,98.36,356.885,98.632,356.885z"
						/>
					<path style="opacity:0.2;" d="M106.379,356.885L106.379,356.885c0.272,0,0.494,0.223,0.494,0.495v7.517
						c0,0.272-0.222,0.494-0.494,0.494l0,0c-0.272,0-0.494-0.223-0.494-0.494v-7.517
						C105.885,357.108,106.107,356.885,106.379,356.885z"/>
					<path style="opacity:0.2;" d="M85.907,356.885L85.907,356.885c0.272,0,0.494,0.223,0.494,0.495v7.517
						c0,0.272-0.223,0.494-0.494,0.494l0,0c-0.272,0-0.494-0.223-0.494-0.494v-7.517C85.412,357.108,85.635,356.885,85.907,356.885z
						"/>
				</g>
				<path style="opacity:0.2;" d="M114.154,365.391L114.154,365.391c-0.272,0-0.494-0.223-0.494-0.494v-7.517
					c0-0.272,0.223-0.495,0.494-0.495l0,0c0.272,0,0.494,0.223,0.494,0.495v7.517C114.649,365.168,114.426,365.391,114.154,365.391z
					"/>
			</g>
			<g>
				<path style="fill:#407BFF;" d="M146.158,346.419H87.672c-0.746,0-1.35,0.605-1.35,1.35v7.022c0,0.746,0.605,1.35,1.35,1.35
					h58.486c0.746,0,1.35-0.604,1.35-1.35v-7.022C147.508,347.023,146.903,346.419,146.158,346.419z"/>
				<path style="opacity:0.5;fill:#FFFFFF;enable-background:new    ;" d="M146.158,346.419H87.672c-0.746,0-1.35,0.605-1.35,1.35
					v7.022c0,0.746,0.605,1.35,1.35,1.35h58.486c0.746,0,1.35-0.604,1.35-1.35v-7.022
					C147.508,347.023,146.903,346.419,146.158,346.419z"/>
				<g>
					<path style="opacity:0.2;" d="M139.426,355.533L139.426,355.533c-0.272,0-0.495-0.223-0.495-0.495v-7.517
						c0-0.272,0.223-0.495,0.495-0.495l0,0c0.272,0,0.494,0.223,0.494,0.495v7.517C139.92,355.31,139.698,355.533,139.426,355.533z"
						/>
					<path style="opacity:0.2;" d="M132.437,355.533L132.437,355.533c-0.272,0-0.495-0.223-0.495-0.495v-7.517
						c0-0.272,0.223-0.495,0.495-0.495l0,0c0.272,0,0.494,0.223,0.494,0.495v7.517C132.931,355.31,132.709,355.533,132.437,355.533z
						"/>
					<path style="opacity:0.2;" d="M124.69,355.533L124.69,355.533c-0.272,0-0.494-0.223-0.494-0.495v-7.517
						c0-0.272,0.223-0.495,0.494-0.495l0,0c0.272,0,0.494,0.223,0.494,0.495v7.517C125.184,355.31,124.962,355.533,124.69,355.533z"
						/>
					<path style="opacity:0.2;" d="M145.162,355.533L145.162,355.533c-0.272,0-0.495-0.223-0.495-0.495v-7.517
						c0-0.272,0.223-0.495,0.495-0.495l0,0c0.272,0,0.494,0.223,0.494,0.495v7.517C145.657,355.31,145.434,355.533,145.162,355.533z
						"/>
					<path style="opacity:0.2;" d="M94.403,347.027L94.403,347.027c0.272,0,0.494,0.223,0.494,0.495v7.517
						c0,0.272-0.222,0.495-0.494,0.495l0,0c-0.272,0-0.494-0.223-0.494-0.495v-7.517C93.909,347.25,94.131,347.027,94.403,347.027z"
						/>
					<path style="opacity:0.2;" d="M101.392,347.027L101.392,347.027c0.272,0,0.495,0.223,0.495,0.495v7.517
						c0,0.272-0.223,0.495-0.495,0.495l0,0c-0.272,0-0.494-0.223-0.494-0.495v-7.517C100.898,347.25,101.12,347.027,101.392,347.027
						z"/>
					<path style="opacity:0.2;" d="M109.14,347.027L109.14,347.027c0.272,0,0.494,0.223,0.494,0.495v7.517
						c0,0.272-0.223,0.495-0.494,0.495l0,0c-0.272,0-0.495-0.223-0.495-0.495v-7.517C108.645,347.25,108.868,347.027,109.14,347.027
						z"/>
					<path style="opacity:0.2;" d="M88.667,347.027L88.667,347.027c0.272,0,0.494,0.223,0.494,0.495v7.517
						c0,0.272-0.223,0.495-0.494,0.495l0,0c-0.272,0-0.494-0.223-0.494-0.495v-7.517C88.173,347.25,88.395,347.027,88.667,347.027z"
						/>
				</g>
				<path style="opacity:0.2;" d="M116.915,355.533L116.915,355.533c-0.272,0-0.494-0.223-0.494-0.495v-7.517
					c0-0.272,0.223-0.495,0.494-0.495l0,0c0.272,0,0.495,0.223,0.495,0.495v7.517C117.409,355.31,117.187,355.533,116.915,355.533z"
					/>
			</g>
			<g>
				<path style="fill:#407BFF;" d="M145.916,336.56H87.43c-0.746,0-1.35,0.605-1.35,1.35v7.022c0,0.746,0.605,1.35,1.35,1.35h58.486
					c0.746,0,1.35-0.605,1.35-1.35v-7.022C147.266,337.165,146.662,336.56,145.916,336.56z"/>
				<path style="opacity:0.5;fill:#FFFFFF;enable-background:new    ;" d="M145.916,336.56H87.43c-0.746,0-1.35,0.605-1.35,1.35
					v7.022c0,0.746,0.605,1.35,1.35,1.35h58.486c0.746,0,1.35-0.605,1.35-1.35v-7.022
					C147.266,337.165,146.662,336.56,145.916,336.56z"/>
				<g>
					<path style="opacity:0.2;" d="M139.184,345.674L139.184,345.674c-0.272,0-0.495-0.223-0.495-0.495v-7.517
						c0-0.272,0.223-0.494,0.495-0.494l0,0c0.272,0,0.494,0.223,0.494,0.494v7.517C139.679,345.452,139.456,345.674,139.184,345.674
						z"/>
					<path style="opacity:0.2;" d="M132.195,345.674L132.195,345.674c-0.272,0-0.495-0.223-0.495-0.495v-7.517
						c0-0.272,0.223-0.494,0.495-0.494l0,0c0.272,0,0.494,0.223,0.494,0.494v7.517C132.69,345.452,132.467,345.674,132.195,345.674z
						"/>
					<path style="opacity:0.2;" d="M124.448,345.674L124.448,345.674c-0.272,0-0.495-0.223-0.495-0.495v-7.517
						c0-0.272,0.223-0.494,0.495-0.494l0,0c0.272,0,0.495,0.223,0.495,0.494v7.517C124.943,345.452,124.72,345.674,124.448,345.674z
						"/>
					<path style="opacity:0.2;" d="M144.921,345.674L144.921,345.674c-0.272,0-0.495-0.223-0.495-0.495v-7.517
						c0-0.272,0.223-0.494,0.495-0.494l0,0c0.272,0,0.495,0.223,0.495,0.494v7.517C145.415,345.452,145.193,345.674,144.921,345.674
						z"/>
					<path style="opacity:0.2;" d="M94.162,337.169L94.162,337.169c0.272,0,0.494,0.223,0.494,0.494v7.517
						c0,0.272-0.222,0.495-0.494,0.495l0,0c-0.272,0-0.494-0.223-0.494-0.495v-7.517C93.667,337.392,93.89,337.169,94.162,337.169z"
						/>
					<path style="opacity:0.2;" d="M101.151,337.169L101.151,337.169c0.272,0,0.494,0.223,0.494,0.494v7.517
						c0,0.272-0.223,0.495-0.494,0.495l0,0c-0.272,0-0.495-0.223-0.495-0.495v-7.517
						C100.656,337.392,100.879,337.169,101.151,337.169z"/>
					<path style="opacity:0.2;" d="M108.898,337.169L108.898,337.169c0.272,0,0.494,0.223,0.494,0.494v7.517
						c0,0.272-0.223,0.495-0.494,0.495l0,0c-0.272,0-0.494-0.223-0.494-0.495v-7.517
						C108.404,337.392,108.626,337.169,108.898,337.169z"/>
					<path style="opacity:0.2;" d="M88.425,337.169L88.425,337.169c0.272,0,0.494,0.223,0.494,0.494v7.517
						c0,0.272-0.222,0.495-0.494,0.495l0,0c-0.272,0-0.494-0.223-0.494-0.495v-7.517C87.931,337.392,88.154,337.169,88.425,337.169z
						"/>
				</g>
				<path style="opacity:0.2;" d="M116.673,345.674L116.673,345.674c-0.272,0-0.495-0.223-0.495-0.495v-7.517
					c0-0.272,0.223-0.494,0.495-0.494l0,0c0.272,0,0.494,0.223,0.494,0.494v7.517C117.168,345.452,116.945,345.674,116.673,345.674z
					"/>
			</g>
		</g>
	</g>
</g>
<g id="Coin_1">
	<g>
		
			<ellipse transform="matrix(0.5524 -0.8336 0.8336 0.5524 -182.9868 221.6165)" style="fill:#407BFF;" cx="114.867" cy="281.198" rx="30.593" ry="30.593"/>
		<path style="opacity:0.5;fill:#FFFFFF;enable-background:new    ;" d="M141.577,296.12c-8.061,14.417-26.058,19.786-40.641,12.3
			c-0.334-0.159-0.656-0.337-0.988-0.516c-1.23-0.684-2.392-1.441-3.485-2.271c-2.169-1.627-4.068-3.505-5.674-5.571
			c-7.378-9.41-8.828-22.691-2.638-33.779c4.76-8.524,12.993-13.893,21.942-15.305c2.614-0.416,5.29-0.492,7.955-0.207
			c1.732,0.168,3.465,0.507,5.179,1.005c2.243,0.629,4.435,1.524,6.554,2.713C144.531,262.729,149.817,281.361,141.577,296.12z"/>
		<g>
			<path style="opacity:0.1;" d="M107.809,275.372c0.405,1.998,2.382,2.552,4.941,2.769l-1.504-7.412
				C108.382,271.786,107.437,273.539,107.809,275.372z"/>
			<path style="opacity:0.1;" d="M117.365,283.363l1.495,7.371c2.948-1.075,3.951-2.753,3.588-4.543
				C122.034,284.15,120.007,283.563,117.365,283.363z"/>
			<path style="opacity:0.1;" d="M109.387,254.188c-14.918,3.026-24.557,17.573-21.531,32.491
				c3.027,14.917,17.573,24.557,32.491,21.531c14.918-3.026,24.557-17.573,21.531-32.491
				C138.852,260.801,124.305,251.161,109.387,254.188z M121.839,270.791c-2.469-0.843-4.945-1.078-7.203-0.88l1.707,8.413
				c4.851,0.187,10.187,0.622,11.361,6.411c0.862,4.247-1.519,8.547-7.922,10.539l0.946,4.665l-3.415,0.693l-0.938-4.623
				c-4.132,0.578-8.359,0.048-10.905-1.387l1.021-4.586c2.379,1.251,5.747,1.825,8.972,1.475l-1.69-8.329
				c-4.851-0.186-10.111-0.681-11.286-6.469c-0.862-4.248,1.468-8.58,7.838-10.523l-0.955-4.706l3.415-0.693l0.938,4.623
				c3.116-0.459,6.425-0.176,8.97,0.826L121.839,270.791z"/>
		</g>
		<g style="opacity:0.1;">
			<path style="fill:#FFFFFF;" d="M110.093,250.979l-19.304,49.084c-7.378-9.41-8.828-22.691-2.638-33.779
				C92.911,257.76,101.145,252.391,110.093,250.979z"/>
			<path style="fill:#FFFFFF;" d="M123.228,251.777l-22.292,56.643c-0.334-0.159-0.656-0.337-0.988-0.516
				c-1.23-0.684-2.392-1.441-3.485-2.271l21.586-54.862C119.781,250.939,121.513,251.279,123.228,251.777z"/>
		</g>
	</g>
</g>
<g id="Coin_2">
	<g>
		
			<ellipse transform="matrix(0.9249 -0.3802 0.3802 0.9249 -68.0382 72.9371)" style="fill:#407BFF;" cx="150.637" cy="208.722" rx="30.593" ry="30.593"/>
		<path style="opacity:0.5;fill:#FFFFFF;enable-background:new    ;" d="M178.87,220.51c-6.37,15.24-23.64,22.62-38.98,16.84
			c-0.35-0.12-0.69-0.26-1.04-0.4c-1.3-0.54-2.54-1.16-3.72-1.86c-2.34-1.37-4.44-3.02-6.27-4.89c-8.4-8.51-11.35-21.54-6.46-33.26
			c3.76-9.01,11.33-15.28,20.06-17.7c2.55-0.71,5.2-1.09,7.88-1.11c1.74-0.03,3.5,0.11,5.26,0.41c2.3,0.37,4.58,1.01,6.82,1.95
			C178.01,187,185.38,204.91,178.87,220.51z"/>
		<g>
			<path style="opacity:0.1;" d="M148.062,199.939c-0.785,1.882,0.54,3.449,2.537,5.064l2.913-6.98
				C150.548,197.292,148.783,198.213,148.062,199.939z"/>
			<path style="opacity:0.1;" d="M151.49,211.915l-2.897,6.941c3.043,0.763,4.816-0.062,5.519-1.748
				C154.914,215.186,153.565,213.563,151.49,211.915z"/>
			<path style="opacity:0.1;" d="M161.253,183.288c-14.047-5.863-30.188,0.771-36.051,14.818
				c-5.863,14.047,0.771,30.187,14.818,36.051c14.047,5.863,30.187-0.771,36.051-14.818
				C181.934,205.292,175.3,189.151,161.253,183.288z M162.246,204.017c-1.571-2.083-3.489-3.667-5.469-4.77l-3.307,7.921
				c3.911,2.876,8.084,6.229,5.808,11.681c-1.669,4-6.052,6.223-12.47,4.281l-1.833,4.393l-3.216-1.342l1.817-4.353
				c-3.745-1.839-6.947-4.65-8.249-7.266l3.418-3.224c1.267,2.37,3.734,4.735,6.6,6.254l3.274-7.843
				c-3.911-2.876-7.988-6.236-5.713-11.687c1.67-4,6.029-6.279,12.392-4.314l1.85-4.431l3.216,1.342l-1.817,4.353
				c2.837,1.368,5.418,3.459,6.962,5.716L162.246,204.017z"/>
		</g>
		<g style="opacity:0.1;">
			<path style="fill:#FFFFFF;" d="M142.46,179.24l-13.6,50.96c-8.4-8.51-11.35-21.54-6.46-33.26
				C126.16,187.93,133.73,181.66,142.46,179.24z"/>
			<path style="fill:#FFFFFF;" d="M155.6,178.54l-15.71,58.81c-0.35-0.12-0.69-0.26-1.04-0.4c-1.3-0.54-2.54-1.16-3.72-1.86
				l15.21-56.96C152.08,178.1,153.84,178.24,155.6,178.54z"/>
		</g>
	</g>
</g>
<g id="Arrow">
	<polygon style="fill:#407BFF;" points="122.801,151.451 133.138,163.351 143.475,151.451 138.363,151.451 138.363,138.761 
		127.913,138.761 127.913,151.451 	"/>
</g>
<g id="Character">
	<g>
		<g>
			<path style="fill:#E4897B;" d="M241.125,183.73l3.2,0.232l3.246,0.199c2.153,0.123,4.295,0.236,6.336,0.236
				c1.017,0.011,2.012-0.008,2.91-0.075c0.441-0.036,0.879-0.075,1.23-0.121c0.37-0.04,0.662-0.105,0.775-0.114
				c0.01,0.001,0.058-0.001,0.044,0.013c-0.03,0.018-0.057,0.044-0.076,0.077c0.007,0.007,0.054-0.012,0.122-0.054
				c0.139-0.091,0.355-0.278,0.586-0.534c0.466-0.512,1.002-1.227,1.497-2.026c1.004-1.608,1.917-3.51,2.793-5.452
				c0.858-1.957,1.668-3.99,2.447-6.053c1.545-4.121,2.97-8.416,4.353-12.632l5.58,1.049c-0.376,4.705-1.08,9.26-2.062,13.874
				c-0.492,2.302-1.067,4.603-1.78,6.912c-0.706,2.319-1.535,4.63-2.706,7.018c-0.596,1.193-1.264,2.417-2.219,3.681
				c-0.48,0.631-1.038,1.282-1.757,1.937c-0.364,0.329-0.769,0.654-1.237,0.974c-0.267,0.173-0.54,0.339-0.818,0.497
				c-0.265,0.146-0.485,0.244-0.733,0.363c-0.938,0.422-1.742,0.676-2.483,0.874c-0.757,0.212-1.444,0.343-2.128,0.463
				c-1.357,0.232-2.632,0.37-3.886,0.475c-5.013,0.349-9.624,0.148-14.456-0.416L241.125,183.73z"/>
		</g>
		<path style="fill:#407BFF;" d="M240.98,181.428l15.071,1.4l-5.754,17.135c0,0-11.381,4.092-15.6-1.662
			C230.476,192.547,229.873,181.562,240.98,181.428z"/>
		<path style="opacity:0.7;fill:#FFFFFF;" d="M256.049,182.826l-5.75,17.134c0,0-0.892,0.32-2.279,0.659
			c-2.269,0.553-5.857,1.144-8.931,0.407h-0.01c-1.726-0.407-3.297-1.241-4.383-2.725c-4.218-5.75-4.819-16.737,6.284-16.873
			L256.049,182.826z"/>
		<path style="opacity:0.2;" d="M248.02,200.62c-2.269,0.553-5.857,1.144-8.931,0.407h-0.01c-2.065-4.373,0.116-11.442,3.035-9.629
			C245.178,193.308,247.069,197.74,248.02,200.62z"/>
		<g>
			<path style="fill:#E4897B;" d="M270.45,157.654l5.196-5.693l3.211,7.923c0,0-4.943,4.8-7.309,2.149L270.45,157.654z"/>
			<polygon style="fill:#E4897B;" points="282.975,149.823 283.423,157.573 278.857,159.885 275.646,151.961 			"/>
		</g>
		<polygon style="fill:#E4897B;" points="238.074,409.779 245.54,408.479 244.683,390.891 237.217,392.192 		"/>
		<polygon style="fill:#E4897B;" points="181.098,409.258 188.543,410.582 193.722,393.716 186.277,392.392 		"/>
		<g>
			<polygon style="opacity:0.2;" points="244.682,390.896 245.125,399.961 237.656,401.263 237.213,392.197 			"/>
			<polygon style="opacity:0.2;" points="186.273,392.396 193.722,393.721 191.049,402.414 183.6,401.089 			"/>
		</g>
		<g>
			<g>
				<path style="fill:#263238;" d="M247.639,397.755l-12.643,2.196c0,0-2.015-42.502-2.919-66.026
					c-0.276-7.156-1.608-17.166-3.386-27.893c-2.246-13.517-5.193-28.156-7.634-39.625c-2.576-12.08-4.574-20.638-4.574-20.638
					l26.602-0.634c0,0,9.568,59.865,10.007,82.931C253.553,352.05,247.639,397.755,247.639,397.755z"/>
			</g>
		</g>
		<path style="opacity:0.2;" d="M228.692,306.032c-2.246-13.517-5.193-28.156-7.634-39.625l3.08-5.793
			C230.275,268.72,230.696,292.964,228.692,306.032z"/>
		<g>
			<g>
				<path style="fill:#263238;" d="M228.733,245.477c0,0-6.846,65.102-10.453,86.994c-3.95,23.974-23.466,68.837-23.466,68.837
					l-13.636-2.425c0,0,12.963-41.304,15.364-65.325c2.685-26.862,6.08-87.457,6.08-87.457L228.733,245.477z"/>
			</g>
		</g>
		<polygon style="fill:#407BFF;" points="196.391,401.892 180.333,399.037 181.235,394.249 198.17,396.261 		"/>
		<polygon style="fill:#407BFF;" points="249.253,397.884 234.151,400.292 233.42,395.427 249.982,392.528 		"/>
		<g>
			<path style="fill:#263238;" d="M246.266,406.867l-8.273-0.223c-0.31-0.008-0.585,0.199-0.664,0.498l-1.738,6.662
				c-0.18,0.691,0.326,1.364,1.042,1.371c2.986,0.03,7.305-0.028,11.056,0.073c4.386,0.118,7.175-0.097,12.318,0.042
				c3.11,0.084,4.086-3.023,2.794-3.341c-5.88-1.45-9.724-1.163-14.732-4.444C247.525,407.147,246.92,406.884,246.266,406.867z"/>
			<path style="fill:#407BFF;" d="M246.86,407.782c-0.008-0.076,0.033-0.148,0.102-0.181c0.35-0.167,3.448-1.631,4.353-1.087
				c0.174,0.103,0.27,0.271,0.279,0.483c0.014,0.357-0.109,0.646-0.368,0.86c-0.857,0.71-3.018,0.354-4.229,0.079
				c-0.008-0.002-0.016-0.004-0.023-0.007C246.912,407.905,246.867,407.849,246.86,407.782z M247.605,407.698
				c1.663,0.322,2.912,0.283,3.393-0.115c0.169-0.14,0.247-0.326,0.237-0.568c-0.004-0.094-0.036-0.152-0.106-0.194
				c-0.019-0.012-0.041-0.021-0.064-0.03C250.501,406.578,248.827,407.16,247.605,407.698z"/>
			<path style="fill:#407BFF;" d="M246.929,407.904c-0.05-0.039-0.076-0.101-0.068-0.164c0.011-0.086,0.288-2.112,1.281-2.873
				c0.303-0.233,0.641-0.326,1.006-0.28c0.491,0.064,0.625,0.316,0.65,0.517c0.108,0.856-1.762,2.438-2.691,2.822
				c-0.043,0.018-0.09,0.018-0.133,0.002C246.958,407.923,246.943,407.915,246.929,407.904z M249.099,404.942
				c-0.27-0.035-0.512,0.033-0.739,0.207c-0.651,0.5-0.965,1.708-1.083,2.298c0.953-0.533,2.23-1.781,2.166-2.295
				c-0.004-0.032-0.014-0.113-0.161-0.168C249.234,404.966,249.175,404.952,249.099,404.942z"/>
		</g>
		<g>
			<path style="fill:#407BFF;" d="M198.595,182.257c1.903,8.441,2.957,17,3.529,25.039c0.415,5.881,0.558,11.483,0.565,16.559
				c0.02,11.896-0.704,20.936-0.508,24.016c5.929-0.166,28.275-0.798,40.459-1.147c7.69-42.732-1.66-65.296-1.66-65.296
				s-4.418-1.073-9.589-1.59c-0.681-0.072-1.374-0.125-2.079-0.168c-4.561-0.285-12.04,0.093-17.202,0.487
				c-1.085,0.084-2.184,0.197-3.254,0.324C203.413,181.137,198.595,182.257,198.595,182.257z"/>
			<path style="opacity:0.7;fill:#FFFFFF;" d="M198.595,182.257c1.903,8.441,2.957,17,3.529,25.039
				c0.415,5.881,0.558,11.483,0.565,16.559c0.02,11.896-0.704,20.936-0.508,24.016c5.929-0.166,28.275-0.798,40.459-1.147
				c7.69-42.732-1.66-65.296-1.66-65.296s-4.418-1.073-9.589-1.59c-0.681-0.072-1.374-0.125-2.079-0.168
				c-4.561-0.285-12.04,0.093-17.202,0.487c-1.085,0.084-2.184,0.197-3.254,0.324C203.413,181.137,198.595,182.257,198.595,182.257z
				"/>
		</g>
		<path style="fill:#263238;" d="M227.082,187.556c1.059,3.001,2.806,5.468,4.162,13.307c-0.459,1.653-1.001,3.312-1.621,4.977
			c-0.967-1.595-1.997-3.185-3.089-4.772c-0.663-7.565,0.051-9.584-1.067-13.413L227.082,187.556z"/>
		<polygon style="fill:#263238;" points="227.039,189.995 228.357,186.163 225.594,185.042 223.572,186.352 		"/>
		<path style="fill:#E4897B;" d="M225.474,185.046c-6.216,0.31-10.473-2.046-13.362-4.887c0.999-0.999,1.639-2.415,2.027-4.073
			c1.115-4.684,0.194-11.258-0.679-15.321l10.725,8.708c-0.165,0.708-0.3,1.416-0.388,2.124c-0.465,3.607,0.33,6.991,5.517,8.068
			C230.41,181.478,230.226,184.814,225.474,185.046z"/>
		<g>
			<path style="fill:#FFFFFF;" d="M225.594,185.042c0,0-1.736,2.356-3.783,4.697c-3.185-1.548-10.671-5.725-10.534-9.854
				c0.364-1.215,1.927-2.001,1.927-2.001S217.992,182.11,225.594,185.042z"/>
		</g>
		<g>
			<path style="fill:#FFFFFF;" d="M225.594,185.042c0,0,2.527,1.906,4.234,4.386c2.196-1.656,0.635-9.27-0.248-10.085
				c-1.865-1.085-3.096-0.908-3.096-0.908S229.154,184.019,225.594,185.042z"/>
		</g>
		<path style="opacity:0.2;" d="M224.184,169.473c-0.165,0.708-0.3,1.416-0.388,2.124c-2.628,3.568-6.72,4.654-9.658,4.49
			c1.115-4.684,0.194-11.258-0.679-15.321L224.184,169.473z"/>
		<g>
			<path style="fill:#263238;" d="M205.661,149.965c-1.12,2.839-1.041,8.839,3.153,7.188
				C213.007,155.501,207.585,145.086,205.661,149.965z"/>
			<path style="fill:#E4897B;" d="M226.305,155.371c-0.082,7.495,0.251,11.889-3.338,15.88c-5.399,6.003-14.818,2.954-16.982-4.436
				c-1.948-6.652-1.486-17.79,5.696-21.063C218.756,142.528,226.387,147.876,226.305,155.371z"/>
			<path style="fill:#263238;" d="M215.049,157.921c0.031,0.609-0.268,1.115-0.666,1.132c-0.399,0.016-0.747-0.464-0.778-1.073
				c-0.031-0.609,0.268-1.115,0.666-1.132C214.67,156.832,215.018,157.313,215.049,157.921z"/>
			<path style="fill:#263238;" d="M208.155,158.201c0.031,0.609-0.268,1.115-0.666,1.131c-0.399,0.016-0.747-0.464-0.777-1.073
				c-0.031-0.609,0.268-1.115,0.666-1.131C207.776,157.112,208.124,157.592,208.155,158.201z"/>
			<path style="fill:#DE5753;" d="M210.362,158.415c0,0-1.251,3.439-2.709,5.142c1.113,0.908,2.923,0.372,2.923,0.372
				L210.362,158.415z"/>
			<path style="fill:#263238;" d="M213.963,166.125c-0.249,0.044-0.512,0.073-0.791,0.084c-0.099,0.004-0.183-0.073-0.188-0.171
				c-0.005-0.099,0.073-0.182,0.17-0.186c2.679-0.112,3.832-2.026,3.844-2.045c0.05-0.085,0.16-0.112,0.245-0.062
				c0.086,0.051,0.115,0.161,0.065,0.245C217.262,164.068,216.266,165.719,213.963,166.125z"/>
			<path style="fill:#263238;" d="M217.062,155.613c-0.123,0.022-0.254-0.022-0.341-0.125c-1.028-1.232-2.342-1.102-2.355-1.101
				c-0.197,0.022-0.376-0.12-0.399-0.316c-0.024-0.196,0.117-0.373,0.313-0.395c0.069-0.008,1.715-0.172,2.991,1.357
				c0.127,0.153,0.108,0.378-0.044,0.504C217.178,155.578,217.121,155.603,217.062,155.613z"/>
			<path style="fill:#263238;" d="M205.065,155.955c-0.067,0.012-0.138,0.005-0.206-0.024c-0.182-0.079-0.267-0.29-0.19-0.471
				c0.777-1.817,2.401-2.095,2.472-2.117c0.195-0.032,0.381,0.099,0.416,0.294c0.035,0.194-0.094,0.377-0.287,0.412
				c-0.068,0.009-1.316,0.239-1.94,1.698C205.281,155.86,205.179,155.935,205.065,155.955z"/>
			<path style="fill:#263238;" d="M214.327,149.823c0,0,2.007-1.55,3.004,0c0.997,1.55,1.104,5.796,1.104,5.796l0.387-0.765
				c0,0,3.01,9.345,6.772,6.818c3.762-2.527,9.056-12.33-0.128-16.877c0,0-1.043-2.245-7.032-3.14
				c-5.989-0.895-13.034,3.045-14.115,7.021c-1.081,3.976,0.729,6.099,0.729,6.099c0.269-1.436,1.053-2.373,1.053-2.373
				c0.185,1.267,1.551,1.751,1.551,1.751c-0.09-1.549,0.397-2.337,0.397-2.337c0.144,0.836,1.065,1.852,1.065,1.852
				c0.278-4.062,2.997-4.993,3.868-4.993C214.055,148.675,214.327,149.823,214.327,149.823z"/>
			<path style="fill:#E4897B;" d="M229.503,161.454c-0.5,1.954-1.861,3.486-3.306,4.297c-2.174,1.22-3.871-0.589-3.779-2.953
				c0.083-2.128,1.315-5.328,3.743-5.578C228.553,156.973,230.075,159.22,229.503,161.454z"/>
		</g>
		<g>
			<path style="fill:#263238;" d="M189.018,406.867l-8.273-0.223c-0.31-0.008-0.586,0.199-0.664,0.498l-1.738,6.662
				c-0.18,0.691,0.326,1.364,1.042,1.371c2.986,0.03,7.305-0.028,11.056,0.073c4.386,0.118,7.175-0.097,12.318,0.042
				c3.11,0.084,4.086-3.023,2.794-3.341c-5.88-1.45-9.724-1.163-14.732-4.444C190.277,407.147,189.672,406.884,189.018,406.867z"/>
			<path style="fill:#407BFF;" d="M189.612,407.782c-0.008-0.076,0.033-0.148,0.102-0.181c0.35-0.167,3.448-1.631,4.353-1.087
				c0.174,0.103,0.27,0.271,0.279,0.483c0.014,0.357-0.109,0.646-0.368,0.86c-0.857,0.71-3.018,0.354-4.229,0.079
				c-0.008-0.002-0.016-0.004-0.023-0.007C189.664,407.905,189.62,407.849,189.612,407.782z M190.357,407.698
				c1.663,0.322,2.912,0.283,3.393-0.115c0.169-0.14,0.247-0.326,0.237-0.568c-0.004-0.094-0.036-0.152-0.106-0.194
				c-0.019-0.012-0.041-0.021-0.064-0.03C193.253,406.578,191.579,407.16,190.357,407.698z"/>
			<path style="fill:#407BFF;" d="M189.681,407.904c-0.05-0.039-0.077-0.101-0.068-0.164c0.011-0.086,0.288-2.112,1.281-2.873
				c0.303-0.233,0.641-0.326,1.006-0.28c0.491,0.064,0.625,0.316,0.65,0.517c0.108,0.856-1.762,2.438-2.691,2.822
				c-0.043,0.018-0.09,0.018-0.133,0.002C189.71,407.923,189.695,407.915,189.681,407.904z M191.851,404.942
				c-0.27-0.035-0.512,0.033-0.739,0.207c-0.651,0.5-0.965,1.708-1.084,2.298c0.953-0.533,2.23-1.781,2.166-2.295
				c-0.004-0.032-0.014-0.113-0.161-0.168C191.986,404.966,191.927,404.952,191.851,404.942z"/>
		</g>
		<g>
			<path style="fill:#407BFF;" d="M246.623,223.388c-0.019,0.339-0.029,0.689-0.049,1.038c-0.107,2.172-0.262,4.432-0.475,6.768
				c-0.068,0.805-0.145,1.629-0.233,2.453c-0.145,1.425-0.32,2.87-0.514,4.354c-0.252,1.998-0.563,4.053-0.902,6.158
				c-0.155,0.921-0.32,1.852-0.485,2.793c-12.179,0.349-35.859,0.756-41.784,0.921c-0.039-0.669-0.039-1.629-0.01-2.831
				c0.039-1.619,0.116-3.695,0.204-6.148c0.058-1.338,0.107-2.793,0.155-4.344c0.019-0.785,0.039-1.6,0.058-2.444
				c0.049-2.104,0.087-4.373,0.087-6.768c0.01-0.339,0.01-0.679,0.01-1.028v-0.456c0-2.822-0.048-5.809-0.165-8.911
				c-0.078-2.482-0.213-5.042-0.398-7.651c-0.165-2.385-0.378-4.81-0.65-7.263c-0.62-5.828-1.542-11.83-2.88-17.775
				c0,0,4.819-1.115,10.26-1.775c8.553,8.349,15.573,16.795,20.771,25.357c3.287-8.814,4.364-17.464,2.686-25.9
				c4.771,0.543,8.669,1.493,8.669,1.493S247.758,195.897,246.623,223.388z"/>
			<path style="opacity:0.4;fill:#FFFFFF;" d="M245.353,238.001c-0.252,1.998-0.563,4.053-0.902,6.158l-42.279,0.882
				c0.039-1.619,0.116-3.695,0.204-6.148L245.353,238.001z"/>
			<path style="opacity:0.4;fill:#FFFFFF;" d="M246.1,231.194c-0.068,0.805-0.145,1.629-0.233,2.453l-43.335,0.902
				c0.019-0.785,0.039-1.6,0.058-2.444L246.1,231.194z"/>
			<path style="opacity:0.4;fill:#FFFFFF;" d="M246.623,223.388c-0.019,0.339-0.029,0.689-0.049,1.038l-43.898,0.912
				c0.01-0.339,0.01-0.679,0.01-1.028L246.623,223.388z"/>
			<path style="opacity:0.2;" d="M202.522,214.942c-0.078-2.482-0.213-5.042-0.398-7.651c-0.165-2.385-0.378-4.81-0.65-7.263
				c1.668-1.6,3.539-2.599,5.382-2.453C206.856,197.575,208.892,211.49,202.522,214.942z"/>
		</g>
		<g>
			<path style="fill:#E4897B;" d="M204.347,193.035c-2.007,4.595-4.006,9.441-5.745,14.176c-0.889,2.372-1.677,4.758-2.374,7.096
				c-0.686,2.317-1.224,4.69-1.419,6.634c-0.046,0.477-0.064,0.92-0.056,1.266c0.006,0.168,0.013,0.321,0.024,0.425l0.011,0.126
				c0,0.009,0.003,0.045-0.003,0.032c-0.008-0.021-0.018-0.042-0.032-0.061c-0.101-0.163-0.201-0.219-0.173-0.138
				c0.042,0.076,0.202,0.263,0.476,0.452c0.548,0.394,1.464,0.805,2.471,1.13c1.013,0.339,2.135,0.634,3.301,0.869
				c4.685,0.937,9.943,1.343,15.011,1.612l0.585,5.647c-5.462,1.181-10.841,1.841-16.674,1.575c-1.459-0.085-2.95-0.229-4.506-0.523
				c-1.554-0.316-3.175-0.734-4.953-1.608c-0.884-0.446-1.824-1.011-2.743-1.846c-0.913-0.842-1.824-1.983-2.4-3.383l-0.203-0.527
				l-0.141-0.444c-0.093-0.296-0.157-0.565-0.22-0.838c-0.124-0.543-0.201-1.047-0.261-1.536c-0.113-0.971-0.136-1.854-0.124-2.697
				c0.07-3.346,0.669-6.174,1.297-8.973c0.648-2.778,1.465-5.437,2.32-8.059c0.886-2.61,1.808-5.184,2.846-7.704
				c1.041-2.538,2.059-4.993,3.29-7.539L204.347,193.035z"/>
		</g>
		<g>
			<path style="fill:#407BFF;" d="M196.397,182.994c-6.555,3.098-12.16,23.984-12.16,23.984l17.758,5.34
				c0,0,3.839-9.045,5.642-18.243C209.6,184.055,204.338,179.241,196.397,182.994z"/>
			<path style="opacity:0.7;fill:#FFFFFF;" d="M196.397,182.994c-6.555,3.098-12.16,23.984-12.16,23.984l17.758,5.34
				c0,0,3.839-9.045,5.642-18.243C209.6,184.055,204.338,179.241,196.397,182.994z"/>
		</g>
		<path style="fill:#E4897B;" d="M213.954,226.573l6.243-4.451l1.756,9.542c0,0-6.147,2.598-7.871-0.536L213.954,226.573z"/>
		<polygon style="fill:#E4897B;" points="226.476,222.393 227.562,230.349 221.953,231.664 220.197,222.122 		"/>
	</g>
</g>
<g id="Device">
	<g>
		<path style="fill:#263238;" d="M403.223,415.291H279.794c-3.714,0-6.725-3.011-6.725-6.725V158.187
			c0-3.714,3.011-6.725,6.725-6.725h123.429c3.714,0,6.725,3.011,6.725,6.725v250.379
			C409.948,412.28,406.937,415.291,403.223,415.291z"/>
		<g>
			<path style="fill:#407BFF;" d="M407.187,159v239.22c0,2.191-1.76,3.897-3.95,3.897h-123.87c-0.314,0-0.619-0.036-0.898-0.117
				c-0.62-0.144-1.149-0.449-1.58-0.88c-0.655-0.637-1.059-1.544-1.059-2.577V158.677c0-1.733,1.284-3.259,3.026-3.259h35.185
				c0.987,0,1.894,0.646,2.262,1.58l1.464,3.582c0.368,0.925,1.266,1.571,2.263,1.571h43.05c0.997,0,1.895-0.62,2.263-1.544
				l1.463-3.6c0.368-0.934,1.266-1.589,2.263-1.589h34.673C405.652,155.418,407.187,157.079,407.187,159z"/>
			<g>
				<g>
					
						<rect x="292.166" y="163.697" transform="matrix(-1 -1.224647e-16 1.224647e-16 -1 586.1619 329.8337)" style="opacity:0.6;fill:#FFFFFF;enable-background:new    ;" width="1.831" height="2.44"/>
					
						<rect x="289.182" y="162.883" transform="matrix(-1 -1.224647e-16 1.224647e-16 -1 580.1956 329.0196)" style="opacity:0.6;fill:#FFFFFF;enable-background:new    ;" width="1.831" height="3.254"/>
					
						<rect x="286.199" y="162.069" transform="matrix(-1 -1.224647e-16 1.224647e-16 -1 574.2294 328.2056)" style="opacity:0.6;fill:#FFFFFF;enable-background:new    ;" width="1.831" height="4.068"/>
					
						<rect x="283.216" y="161.254" transform="matrix(-1 -1.224647e-16 1.224647e-16 -1 568.2632 327.3914)" style="opacity:0.6;fill:#FFFFFF;enable-background:new    ;" width="1.831" height="4.883"/>
				</g>
				<g>
					<rect x="389.331" y="162.806" style="opacity:0.6;fill:#FFFFFF;enable-background:new    ;" width="1.085" height="2.44"/>
					
						<rect x="391.161" y="161.916" transform="matrix(-1 -1.224647e-16 1.224647e-16 -1 790.9668 328.0526)" style="opacity:0.6;fill:#FFFFFF;enable-background:new    ;" width="8.644" height="4.221"/>
				</g>
			</g>
		</g>
		<g>
			<rect x="275.832" y="172.179" style="opacity:0.3;fill:#FFFFFF;enable-background:new    ;" width="131.353" height="210.376"/>
		</g>
		<g>
			<path style="fill:#407BFF;" d="M376.12,339.476h-69.223c-2.002,0-3.625-1.623-3.625-3.625v-15.109
				c0-2.002,1.623-3.625,3.625-3.625h69.223c2.002,0,3.625,1.623,3.625,3.625v15.109
				C379.745,337.853,378.122,339.476,376.12,339.476z"/>
			<g>
				<path style="fill:#FFFFFF;" d="M319.657,333l-1.861-2.668c-0.117,0.013-0.234,0.013-0.351,0.013h-2.057V333h-1.692v-9.111h3.749
					c2.395,0,3.878,1.224,3.878,3.241c0,1.38-0.703,2.395-1.939,2.877l2.096,2.993H319.657z M317.367,325.32h-1.978v3.632h1.978
					c1.484,0,2.251-0.677,2.251-1.822C319.618,325.984,318.851,325.32,317.367,325.32z"/>
				<path style="fill:#FFFFFF;" d="M330.04,331.581V333h-6.833v-9.111h6.651v1.419h-4.959v2.369h4.399v1.393h-4.399v2.512H330.04z"
					/>
				<path style="fill:#FFFFFF;" d="M333.617,325.308v2.773h4.399v1.432h-4.399V333h-1.692v-9.111h6.651v1.419H333.617z"/>
				<path style="fill:#FFFFFF;" d="M340.136,329.03v-5.142h1.692v5.076c0,1.875,0.846,2.682,2.317,2.682s2.304-0.807,2.304-2.682
					v-5.076h1.666v5.142c0,2.655-1.497,4.1-3.983,4.1C341.632,333.13,340.136,331.685,340.136,329.03z"/>
				<path style="fill:#FFFFFF;" d="M358.576,323.889V333h-1.393l-5.024-6.17V333h-1.679v-9.111h1.393l5.024,6.17v-6.17H358.576z"/>
				<path style="fill:#FFFFFF;" d="M361.019,323.889h3.982c2.955,0,4.972,1.822,4.972,4.556S367.956,333,365.001,333h-3.982V323.889
					z M364.924,331.568c2.03,0,3.345-1.236,3.345-3.124c0-1.887-1.314-3.124-3.345-3.124h-2.213v6.248H364.924z"/>
			</g>
		</g>
		<rect x="275.832" y="172.179" style="opacity:0.3;fill:#FFFFFF;enable-background:new    ;" width="131.353" height="12.86"/>
		<g>
			
				<ellipse transform="matrix(0.2298 -0.9732 0.9732 0.2298 11.2994 531.6093)" style="fill:#407BFF;" cx="341.508" cy="258.666" rx="39.544" ry="39.544"/>
			<g>
				<g>
					
						<polygon style="fill:none;stroke:#FFFFFF;stroke-width:2.6436;stroke-linecap:round;stroke-linejoin:round;stroke-miterlimit:10;" points="
						353.584,272.368 329.432,272.368 325.17,247.209 357.846,247.209 					"/>
					
						<polygon style="fill:none;stroke:#FFFFFF;stroke-width:2.6436;stroke-linecap:round;stroke-linejoin:round;stroke-miterlimit:10;" points="
						345.517,272.368 337.5,272.368 336.085,247.209 346.932,247.209 					"/>
					
						<line style="fill:none;stroke:#FFFFFF;stroke-width:2.6436;stroke-linecap:round;stroke-linejoin:round;stroke-miterlimit:10;" x1="326.833" y1="255.675" x2="356.184" y2="255.675"/>
					
						<line style="fill:none;stroke:#FFFFFF;stroke-width:2.6436;stroke-linecap:round;stroke-linejoin:round;stroke-miterlimit:10;" x1="328.403" y1="264.08" x2="354.613" y2="264.08"/>
				</g>
				<g>
					
						<circle style="fill:none;stroke:#FFFFFF;stroke-width:2.6436;stroke-linecap:round;stroke-linejoin:round;stroke-miterlimit:10;" cx="354.984" cy="279.471" r="2.841"/>
					
						<circle style="fill:none;stroke:#FFFFFF;stroke-width:2.6436;stroke-linecap:round;stroke-linejoin:round;stroke-miterlimit:10;" cx="328.033" cy="279.471" r="2.841"/>
				</g>
			</g>
			<polygon style="fill:#FFFFFF;" points="346.076,237.036 341.508,231.778 336.941,237.036 339.2,237.036 339.2,242.643 
				343.817,242.643 343.817,237.036 			"/>
			
				<line style="fill:none;stroke:#FFFFFF;stroke-width:2.6436;stroke-linecap:round;stroke-linejoin:round;stroke-miterlimit:10;" x1="357.846" y1="247.209" x2="364.885" y2="245.041"/>
		</g>
		<g style="opacity:0.1;enable-background:new    ;">
			<path style="fill:#FFFFFF;" d="M334.927,162.15l-37.814,141.642v0.008l-0.421,1.591v0.008l-0.682,2.551v0.009l-0.429,1.591
				l-19.745,73.962v-89.513l36.998-138.585h1.204c0.993,0,1.895,0.648,2.265,1.583l1.457,3.587c0.37,0.926,1.271,1.566,2.265,1.566
				H334.927z"/>
			<polygon style="fill:#FFFFFF;" points="407.187,234.487 407.187,323.998 386.331,402.116 362.441,402.116 362.88,400.455 
				363.509,398.112 364.757,393.435 365.385,391.091 366.624,386.405 367.253,384.07 386.915,310.432 386.915,310.423 
				387.822,307.021 			"/>
			<path style="fill:#FFFFFF;" d="M347.878,162.151l-37.582,140.758l-0.225,0.844l-2.056,7.712l-0.224,0.844l-23.971,89.807h-4.453
				c-0.314,0-0.619-0.036-0.898-0.117l23.944-89.691l0.233-0.844l2.056-7.712l0.224-0.844l37.582-140.758H347.878z"/>
		</g>
	</g>
</g>
</svg>
